{
.appVersion = "3124";
.formatVersion = 3;
DisplayStrings = (
"𑤟/natouch-divesakuru/n-divesakuru/ntouch-divesakuru 
",
"𑤛/tatouch-divesakuru/t-divesakuru/ttouch-divesakuru",
"𑤥/ya_u-divesakuru/yatouch-divesakuru/ya_utouch-divesakuru",
"𑤌/katouch-divesakuru/k-divesakuru/ktouch-divesakuru",
"𑤠/patouch-divesakuru/p-divesakuru/ptouch-divesakuru",
"𑤮/llatouch-divesakuru",
"𑤖/tt-divesakuru",
"𑤧/ratouch-divesakuru",
"𑤤/matouch-divesakuru",
"𑤆/etouch-divesakuru",
"𑤀/atouch-divesakuru",
"𑤂/itouch-divesakuru",
"𑤦/yy-divesakuru",
"𑤬/s-divesakuru",
"𑤢/b-divesakuru"
);
classes = (
{

glyphs = (
{
glyphname = u11900;
lastChange = "2022-02-03 14:16:54 +0000";
layers = (
{
anchors = (
{
name = bottom;
pos = (466,-202);
},
{
name = top;
pos = (576,590);
},
{
name = topleft;
pos = (252,607);
},
{
name = topright;
pos = (707,366);
}
);
layerId = UUID0;
shapes = (
{
closed = 1;
nodes = (
(790,-210,o),
(856,-120,o),
(856,-16,cs),
(856,73,o),
(800,138,o),
(740,160,c),
(744,149,l),
(795,169,o),
(841,210,o),
(841,284,cs),
(841,363,o),
(763,459,o),
(603,459,cs),
(417,459,o),
(266,330,o),
(266,131,cs),
(266,37,o),
(303,-17,o),
(376,-17,cs),
(432,-17,o),
(478,16,o),
(478,77,cs),
(478,156,o),
(401,215,o),
(286,223,cs),
(169,231,o),
(109,238,o),
(109,289,cs),
(109,400,o),
(353,384,o),
(353,542,cs),
(353,602,o),
(319,659,o),
(236,659,cs),
(161,659,o),
(115,614,o),
(115,546,cs),
(115,473,o),
(163,433,o),
(231,433,cs),
(291,433,o),
(334,463,o),
(334,536,cs),
(334,588,o),
(303,634,o),
(258,634,cs),
(248,634,o),
(232,633,o),
(220,619,c),
(236,607,l),
(286,607,o),
(300,579,o),
(300,519,cs),
(300,415,o),
(43,433,o),
(43,285,cs),
(43,186,o),
(153,178,o),
(262,171,cs),
(367,164,o),
(418,131,o),
(418,76,cs),
(418,48,o),
(398,34,o),
(377,34,cs),
(342,34,o),
(324,65,o),
(324,131,cs),
(324,309,o),
(454,407,o),
(593,407,cs),
(727,407,o),
(765,341,o),
(765,276,cs),
(765,232,o),
(744,178,o),
(673,169,c),
(673,130,l),
(750,115,o),
(777,52,o),
(777,-15,cs),
(777,-85,o),
(756,-157,o),
(704,-157,cs),
(640,-157,o),
(612,-69,o),
(612,53,cs),
(612,160,o),
(641,287,o),
(760,351,c),
(717,383,l),
(629,334,o),
(547,214,o),
(547,51,cs),
(547,-96,o),
(606,-210,o),
(698,-210,cs)
);
},
{
closed = 1;
nodes = (
(191,484,o),
(172,509,o),
(172,545,cs),
(172,580,o),
(198,602,o),
(233,602,cs),
(277,602,o),
(294,574,o),
(294,545,cs),
(294,504,o),
(271,484,o),
(234,484,cs)
);
}
);
width = 931;
}
);
unicode = 71936;
},
{
glyphname = u11901;
lastChange = "2022-02-03 14:19:32 +0000";
layers = (
{
anchors = (
{
name = bottom;
pos = (466,-202);
},
{
name = top;
pos = (961,536);
},
{
name = topleft;
pos = (252,607);
}
);
layerId = UUID0;
shapes = (
{
closed = 1;
nodes = (
(1036,111,o),
(1073,210,o),
(1073,284,cs),
(1073,355,o),
(1029,411,o),
(958,440,c),
(924,392,l),
(974,368,o),
(1007,331,o),
(1007,269,cs),
(1007,210,o),
(983,130,o),
(911,21,c),
(958,-4,l)
);
},
{
ref = u11900;
}
);
width = 1113;
}
);
unicode = 71937;
},
{
glyphname = u11902;
lastChange = "2022-02-03 14:17:09 +0000";
layers = (
{
anchors = (
{
name = bottom;
pos = (456,-292);
},
{
name = top;
pos = (472,590);
},
{
name = topleft;
pos = (136,607);
},
{
name = topright;
pos = (617,334);
}
);
layerId = UUID0;
shapes = (
{
closed = 1;
nodes = (
(519,-271,o),
(779,-124,o),
(779,163,cs),
(779,316,o),
(684,436,o),
(497,436,cs),
(325,436,o),
(163,287,o),
(163,134,cs),
(163,22,o),
(228,-17,o),
(294,-17,cs),
(354,-17,o),
(409,26,o),
(409,97,cs),
(409,194,o),
(340,284,o),
(84,342,c),
(99,316,l),
(158,373,o),
(238,453,o),
(238,561,cs),
(238,620,o),
(190,659,o),
(124,659,cs),
(62,659,o),
(23,631,o),
(23,587,cs),
(23,545,o),
(44,530,o),
(73,530,cs),
(101,530,o),
(124,544,o),
(124,579,cs),
(124,604,o),
(109,624,o),
(87,624,cs),
(82,624,o),
(77,622,o),
(77,618,c),
(102,613,l),
(165,613,o),
(179,590,o),
(179,557,cs),
(179,469,o),
(95,379,o),
(45,326,c),
(45,292,l),
(333,227,o),
(349,151,o),
(349,100,cs),
(349,61,o),
(325,41,o),
(295,41,cs),
(261,41,o),
(225,61,o),
(225,137,cs),
(225,267,o),
(359,382,o),
(501,382,cs),
(657,382,o),
(719,277,o),
(719,161,cs),
(719,-97,o),
(471,-180,o),
(313,-180,cs),
(192,-180,o),
(117,-166,o),
(52,-145,c),
(38,-192,l),
(95,-235,o),
(193,-271,o),
(318,-271,cs)
);
}
);
width = 819;
}
);
unicode = 71938;
},
{
glyphname = u11903;
lastChange = "2022-02-03 14:17:29 +0000";
layers = (
{
anchors = (
{
name = bottom;
pos = (552,-432);
},
{
name = top;
pos = (776,590);
},
{
name = topleft;
pos = (136,607);
},
{
name = topright;
pos = (836,274);
}
);
layerId = UUID0;
shapes = (
{
closed = 1;
nodes = (
(449,-271,o),
(689,-124,o),
(689,163,cs),
(689,316,o),
(594,435,o),
(447,435,cs),
(295,435,o),
(163,287,o),
(163,144,cs),
(163,22,o),
(228,-17,o),
(294,-17,cs),
(354,-17,o),
(409,26,o),
(409,97,cs),
(409,194,o),
(340,284,o),
(84,342,c),
(99,316,l),
(158,369,o),
(243,453,o),
(243,561,cs),
(243,620,o),
(195,659,o),
(129,659,cs),
(67,659,o),
(28,631,o),
(28,587,cs),
(28,545,o),
(49,530,o),
(78,530,cs),
(106,530,o),
(129,544,o),
(129,579,cs),
(129,604,o),
(114,624,o),
(92,624,cs),
(87,624,o),
(82,622,o),
(82,618,c),
(107,613,l),
(170,613,o),
(184,590,o),
(184,558,cs),
(184,469,o),
(98,380,o),
(45,326,c),
(45,292,l),
(333,227,o),
(349,151,o),
(349,100,cs),
(349,61,o),
(325,41,o),
(295,41,cs),
(261,41,o),
(225,61,o),
(225,147,cs),
(225,267,o),
(329,381,o),
(451,381,cs),
(567,381,o),
(629,277,o),
(629,161,cs),
(629,-97,o),
(401,-180,o),
(253,-180,cs),
(172,-180,o),
(117,-166,o),
(52,-145,c),
(38,-192,l),
(95,-235,o),
(173,-271,o),
(278,-271,cs)
);
},
{
closed = 1;
nodes = (
(887,-391,o),
(1064,-194,o),
(1064,15,cs),
(1064,129,o),
(995,206,o),
(883,206,cs),
(827,206,o),
(770,176,o),
(770,110,cs),
(770,69,o),
(801,32,o),
(856,32,cs),
(909,32,o),
(976,76,o),
(976,179,cs),
(976,289,o),
(913,359,o),
(814,359,cs),
(738,359,o),
(671,313,o),
(639,251,c),
(653,225,l),
(697,279,o),
(755,305,o),
(812,305,cs),
(873,305,o),
(922,266,o),
(922,191,cs),
(922,102,o),
(887,83,o),
(859,83,cs),
(836,83,o),
(822,101,o),
(822,120,cs),
(822,146,o),
(843,163,o),
(879,163,cs),
(965,163,o),
(1005,111,o),
(1005,19,cs),
(1005,-152,o),
(830,-314,o),
(540,-339,c),
(546,-391,l)
);
}
);
width = 1104;
}
);
unicode = 71939;
},
{
glyphname = u11904;
lastChange = "2022-02-03 14:07:34 +0000";
layers = (
{
anchors = (
{
name = bottom;
pos = (405,-38);
},
{
name = top;
pos = (516,590);
},
{
name = topleft;
pos = (343,543);
}
);
layerId = UUID0;
shapes = (
{
closed = 1;
nodes = (
(576,-10,o),
(678,142,o),
(678,293,cs),
(678,320,o),
(675,342,o),
(671,360,c),
(618,357,l),
(622,338,o),
(624,318,o),
(624,302,cs),
(624,179,o),
(552,92,o),
(390,92,cs),
(281,92,o),
(220,135,o),
(220,191,cs),
(220,222,o),
(229,250,o),
(285,289,cs),
(366,346,o),
(410,404,o),
(410,470,cs),
(410,545,o),
(359,581,o),
(276,581,cs),
(266,581,l),
(255,490,o),
(223,450,o),
(164,450,cs),
(117,450,o),
(100,471,o),
(100,520,cs),
(100,539,o),
(104,556,o),
(110,575,c),
(43,575,l),
(36,560,o),
(32,540,o),
(32,516,cs),
(32,432,o),
(83,393,o),
(156,393,cs),
(266,393,o),
(305,488,o),
(310,539,c),
(299,527,l),
(327,526,o),
(355,510,o),
(355,463,cs),
(355,420,o),
(333,379,o),
(269,336,cs),
(177,274,o),
(154,218,o),
(154,169,cs),
(154,58,o),
(249,-10,o),
(378,-10,cs)
);
}
);
width = 718;
}
);
unicode = 71940;
},
{
glyphname = u11905;
lastChange = "2022-02-03 14:07:37 +0000";
layers = (
{
anchors = (
{
name = bottom;
pos = (405,-38);
},
{
name = top;
pos = (526,590);
},
{
name = topleft;
pos = (343,543);
}
);
layerId = UUID0;
shapes = (
{
closed = 1;
nodes = (
(566,-10,o),
(700,135,o),
(700,289,cs),
(700,353,o),
(671,413,o),
(587,413,cs),
(525,413,o),
(477,372,o),
(477,305,cs),
(477,248,o),
(524,179,o),
(641,179,cs),
(696,179,o),
(750,185,o),
(810,202,c),
(810,250,l),
(746,232,o),
(690,227,o),
(640,227,cs),
(553,227,o),
(533,267,o),
(533,305,cs),
(533,339,o),
(554,363,o),
(590,363,cs),
(633,363,o),
(650,330,o),
(650,291,cs),
(650,187,o),
(556,92,o),
(390,92,cs),
(281,92,o),
(220,135,o),
(220,191,cs),
(220,222,o),
(229,250,o),
(285,289,cs),
(366,346,o),
(410,404,o),
(410,470,cs),
(410,545,o),
(359,581,o),
(276,581,cs),
(266,581,l),
(255,490,o),
(223,450,o),
(164,450,cs),
(117,450,o),
(100,471,o),
(100,520,cs),
(100,539,o),
(104,556,o),
(110,575,c),
(43,575,l),
(36,560,o),
(32,540,o),
(32,516,cs),
(32,432,o),
(83,393,o),
(156,393,cs),
(266,393,o),
(305,488,o),
(310,539,c),
(299,527,l),
(327,526,o),
(355,510,o),
(355,463,cs),
(355,420,o),
(333,381,o),
(269,338,cs),
(177,276,o),
(154,218,o),
(154,169,cs),
(154,58,o),
(249,-10,o),
(378,-10,cs)
);
}
);
width = 820;
}
);
unicode = 71941;
},
{
glyphname = u11906;
lastChange = "2022-02-03 14:08:08 +0000";
layers = (
{
anchors = (
{
name = bottom;
pos = (435,-38);
},
{
name = right;
pos = (792,304);
},
{
name = top;
pos = (566,590);
},
{
name = topleft;
pos = (367,543);
}
);
layerId = UUID0;
shapes = (
{
closed = 1;
nodes = (
(352,-10,o),
(472,163,o),
(472,350,cs),
(472,497,o),
(402,581,o),
(298,581,cs),
(288,581,l),
(277,490,o),
(245,450,o),
(186,450,cs),
(139,450,o),
(122,471,o),
(122,520,cs),
(122,539,o),
(126,556,o),
(132,575,c),
(65,575,l),
(58,560,o),
(54,540,o),
(54,516,cs),
(54,432,o),
(105,393,o),
(178,393,cs),
(288,393,o),
(327,488,o),
(332,539,c),
(321,524,l),
(361,524,o),
(412,463,o),
(412,345,cs),
(412,195,o),
(312,57,o),
(196,57,cs),
(147,57,o),
(108,78,o),
(108,130,cs),
(108,187,o),
(139,214,o),
(194,214,cs),
(311,214,o),
(380,-7,o),
(541,-7,cs),
(666,-7,o),
(754,110,o),
(754,250,cs),
(754,308,o),
(743,357,o),
(725,392,c),
(662,381,l),
(674,338,o),
(680,298,o),
(680,257,cs),
(680,142,o),
(635,68,o),
(545,68,cs),
(419,68,o),
(341,268,o),
(192,268,cs),
(97,268,o),
(40,210,o),
(40,126,cs),
(40,35,o),
(112,-10,o),
(194,-10,cs)
);
}
);
width = 794;
}
);
unicode = 71942;
},
{
glyphname = u11909;
lastChange = "2022-02-03 14:14:10 +0000";
layers = (
{
anchors = (
{
name = bottom;
pos = (535,-38);
},
{
name = top;
pos = (586,590);
},
{
name = topleft;
pos = (257,537);
}
);
layerId = UUID0;
shapes = (
{
closed = 1;
nodes = (
(404,-10,o),
(481,59,o),
(504,129,c),
(533,44,o),
(601,-10,o),
(703,-10,cs),
(816,-10,o),
(915,78,o),
(915,236,cs),
(915,359,o),
(852,437,o),
(767,437,cs),
(692,437,o),
(656,400,o),
(656,336,cs),
(656,279,o),
(689,238,o),
(758,238,cs),
(813,238,o),
(853,269,o),
(853,330,cs),
(853,349,o),
(829,372,o),
(814,383,c),
(817,375,l),
(857,338,o),
(864,292,o),
(864,254,cs),
(864,149,o),
(779,95,o),
(689,95,cs),
(614,95,o),
(538,131,o),
(531,204,c),
(478,204,l),
(463,147,o),
(411,95,o),
(301,95,cs),
(229,95,o),
(190,119,o),
(190,163,cs),
(190,189,o),
(201,218,o),
(270,247,cs),
(359,284,o),
(445,320,o),
(445,430,cs),
(445,511,o),
(382,589,o),
(255,589,cs),
(125,589,o),
(40,528,o),
(40,450,cs),
(40,377,o),
(89,337,o),
(157,337,cs),
(221,337,o),
(276,367,o),
(276,446,cs),
(276,501,o),
(238,538,o),
(183,538,cs),
(173,538,o),
(157,537,o),
(149,535,c),
(159,517,l),
(180,526,o),
(211,537,o),
(261,537,cs),
(329,537,o),
(385,489,o),
(385,428,cs),
(385,358,o),
(349,332,o),
(266,299,cs),
(164,259,o),
(124,204,o),
(124,141,cs),
(124,42,o),
(197,-10,o),
(303,-10,cs)
);
},
{
closed = 1;
nodes = (
(116,388,o),
(97,413,o),
(97,449,cs),
(97,484,o),
(123,506,o),
(158,506,cs),
(202,506,o),
(219,478,o),
(219,449,cs),
(219,408,o),
(196,388,o),
(159,388,cs)
);
},
{
closed = 1;
nodes = (
(721,285,o),
(706,307,o),
(706,339,cs),
(706,369,o),
(728,388,o),
(757,388,cs),
(794,388,o),
(809,363,o),
(809,339,cs),
(809,303,o),
(788,285,o),
(758,285,cs)
);
}
);
width = 955;
}
);
unicode = 71945;
},
{
glyphname = u1190C;
lastChange = "2022-02-03 13:21:39 +0000";
layers = (
{
anchors = (
{
name = bottom;
pos = (505,-276);
},
{
name = right;
pos = (938,300);
},
{
name = top;
pos = (532,653);
},
{
name = topleft;
pos = (534,551);
},
{
name = topright;
pos = (674,495);
}
);
layerId = UUID0;
shapes = (
{
closed = 1;
nodes = (
(725,-235,o),
(904,11,o),
(904,254,cs),
(904,466,o),
(775,598,o),
(554,598,cs),
(387,598,o),
(176,520,o),
(176,295,cs),
(176,121,o),
(285,-2,o),
(440,-2,cs),
(532,-2,o),
(631,64,o),
(631,169,cs),
(631,247,o),
(582,290,o),
(471,305,c),
(473,294,l),
(566,307,o),
(619,357,o),
(619,428,cs),
(619,493,o),
(561,562,o),
(390,562,c),
(380,519,l),
(479,519,o),
(529,486,o),
(529,427,cs),
(529,379,o),
(509,321,o),
(352,317,c),
(352,272,l),
(518,263,o),
(535,208,o),
(535,164,cs),
(535,107,o),
(496,64,o),
(423,64,cs),
(325,64,o),
(237,148,o),
(237,297,cs),
(237,493,o),
(420,547,o),
(548,547,cs),
(732,547,o),
(842,439,o),
(842,270,cs),
(842,33,o),
(663,-143,o),
(418,-143,cs),
(303,-143,o),
(212,-118,o),
(125,-76,c),
(99,-128,l),
(180,-187,o),
(273,-235,o),
(414,-235,cs)
);
},
{
closed = 1;
nodes = (
(125,455,l),
(106,463,o),
(87,475,o),
(87,502,cs),
(87,541,o),
(136,571,o),
(200,571,cs),
(278,571,o),
(331,551,o),
(385,526,c),
(406,567,l),
(349,594,o),
(263,615,o),
(192,615,cs),
(68,615,o),
(10,550,o),
(10,486,cs),
(10,425,o),
(60,406,o),
(94,395,c)
);
}
);
width = 944;
}
);
unicode = 71948;
},
{
glyphname = u1190D;
lastChange = "2022-02-07 15:33:09 +0000";
layers = (
{
anchors = (
{
name = bottom;
pos = (403,-38);
},
{
name = halant;
pos = (601,197);
},
{
name = right2;
pos = (670,120);
},
{
name = top;
pos = (454,590);
},
{
name = topleft;
pos = (312,537);
},
{
name = topright;
pos = (372,494);
}
);
guides = (
{
pos = (602,197);
}
);
layerId = UUID0;
shapes = (
{
closed = 1;
nodes = (
(442,-10,o),
(560,76,o),
(632,200,c),
(591,227,l),
(506,117,o),
(413,92,o),
(302,92,cs),
(157,92,o),
(95,140,o),
(95,202,c),
(81,187,l),
(383,198,o),
(494,301,o),
(494,430,cs),
(494,511,o),
(445,589,o),
(318,589,cs),
(208,589,o),
(123,528,o),
(123,450,cs),
(123,377,o),
(172,337,o),
(240,337,cs),
(304,337,o),
(359,367,o),
(359,446,cs),
(359,501,o),
(311,538,o),
(266,538,cs),
(256,538,o),
(240,537,o),
(232,535,c),
(242,517,l),
(263,526,o),
(294,537,o),
(324,537,cs),
(392,537,o),
(434,489,o),
(434,428,cs),
(434,341,o),
(380,247,o),
(40,234,c),
(40,222,ls),
(40,77,o),
(137,-10,o),
(296,-10,cs)
);
},
{
closed = 1;
nodes = (
(199,388,o),
(180,413,o),
(180,449,cs),
(180,484,o),
(206,506,o),
(241,506,cs),
(285,506,o),
(302,478,o),
(302,449,cs),
(302,408,o),
(279,388,o),
(242,388,cs)
);
}
);
width = 672;
}
);
unicode = 71949;
},
{
glyphname = u1190E;
lastChange = "2022-02-03 16:15:59 +0000";
layers = (
{
anchors = (
{
name = bottom;
pos = (375,-38);
},
{
name = halant;
pos = (665,374);
},
{
name = top;
pos = (144,714);
}
);
layerId = UUID0;
shapes = (
{
closed = 1;
nodes = (
(546,-10,o),
(696,127,o),
(696,354,cs),
(696,487,o),
(612,587,o),
(487,587,cs),
(378,587,o),
(309,517,o),
(309,421,cs),
(309,386,o),
(317,359,o),
(329,331,c),
(357,348,l),
(252,348,ls),
(186,348,o),
(175,365,o),
(175,464,cs),
(175,671,l),
(119,671,l),
(119,440,ls),
(119,310,o),
(151,291,o),
(245,291,cs),
(413,291,l),
(395,319,o),
(367,366,o),
(367,422,cs),
(367,502,o),
(420,533,o),
(485,533,cs),
(585,533,o),
(635,448,o),
(635,352,cs),
(635,154,o),
(498,81,o),
(320,81,cs),
(239,81,o),
(164,95,o),
(99,116,c),
(80,74,l),
(128,21,o),
(230,-10,o),
(315,-10,cs)
);
}
);
width = 746;
}
);
unicode = 71950;
},
{
glyphname = u1190F;
lastChange = "2022-02-07 14:33:42 +0000";
layers = (
{
anchors = (
{
name = bottom;
pos = (488,-38);
},
{
name = halant;
pos = (724,320);
},
{
name = right2;
pos = (780,297);
},
{
name = top;
pos = (539,590);
},
{
name = topleft;
pos = (340,543);
}
);
layerId = UUID0;
shapes = (
{
closed = 1;
nodes = (
(439,-10,o),
(536,172,o),
(536,293,cs),
(536,320,o),
(533,342,o),
(529,360,c),
(476,357,l),
(480,341,o),
(482,322,o),
(482,306,cs),
(482,209,o),
(416,92,o),
(312,92,cs),
(247,92,o),
(216,123,o),
(216,176,cs),
(216,210,o),
(229,250,o),
(285,289,cs),
(366,346,o),
(410,404,o),
(410,470,cs),
(410,545,o),
(359,581,o),
(276,581,cs),
(266,581,l),
(255,490,o),
(223,450,o),
(164,450,cs),
(117,450,o),
(100,471,o),
(100,520,cs),
(100,539,o),
(104,556,o),
(110,575,c),
(43,575,l),
(36,560,o),
(32,540,o),
(32,516,cs),
(32,432,o),
(83,393,o),
(156,393,cs),
(266,393,o),
(305,488,o),
(310,539,c),
(299,527,l),
(327,526,o),
(355,510,o),
(355,463,cs),
(355,420,o),
(333,379,o),
(269,336,cs),
(177,274,o),
(150,206,o),
(150,147,cs),
(150,42,o),
(215,-10,o),
(300,-10,cs)
);
},
{
closed = 1;
nodes = (
(708,-10,o),
(774,112,o),
(774,246,cs),
(774,299,o),
(768,332,o),
(764,350,c),
(711,347,l),
(715,328,o),
(720,297,o),
(720,255,cs),
(720,153,o),
(681,92,o),
(591,92,cs),
(527,92,o),
(493,131,o),
(491,144,c),
(435,122,l),
(448,49,o),
(507,-10,o),
(581,-10,cs)
);
}
);
width = 814;
}
);
unicode = 71951;
},
{
glyphname = u11910;
lastChange = "2022-02-07 14:34:26 +0000";
layers = (
{
anchors = (
{
name = bottom;
pos = (275,-38);
},
{
name = halant;
pos = (447,374);
},
{
name = right2;
pos = (539,110);
},
{
name = top;
pos = (296,590);
},
{
name = topleft;
pos = (259,547);
}
);
layerId = UUID0;
shapes = (
{
closed = 1;
nodes = (
(416,-11,o),
(508,61,o),
(508,159,cs),
(508,250,o),
(401,304,o),
(329,308,c),
(330,299,l),
(400,306,o),
(504,358,o),
(504,446,cs),
(504,540,o),
(408,589,o),
(255,589,cs),
(102,589,o),
(20,545,o),
(20,459,cs),
(20,392,o),
(64,367,o),
(122,367,cs),
(175,367,o),
(221,392,o),
(221,458,cs),
(221,503,o),
(189,534,o),
(144,534,cs),
(135,534,o),
(122,533,o),
(115,532,c),
(139,517,l),
(160,526,o),
(191,537,o),
(251,537,cs),
(346,537,o),
(406,513,o),
(406,448,cs),
(406,367,o),
(318,325,o),
(203,321,c),
(203,276,l),
(312,271,o),
(408,243,o),
(408,160,cs),
(408,83,o),
(350,45,o),
(221,45,cs),
(159,45,o),
(117,52,o),
(59,63,c),
(48,11,l),
(121,-7,o),
(177,-11,o),
(234,-11,cs)
);
},
{
closed = 1;
nodes = (
(86,408,o),
(70,429,o),
(70,459,cs),
(70,494,o),
(86,507,o),
(121,507,cs),
(157,507,o),
(172,483,o),
(172,459,cs),
(172,425,o),
(152,408,o),
(122,408,cs)
);
}
);
width = 558;
}
);
unicode = 71952;
},
{
glyphname = u11911;
lastChange = "2022-02-07 14:34:59 +0000";
layers = (
{
anchors = (
{
name = bottom;
pos = (514,-38);
},
{
name = halant;
pos = (732,380);
},
{
name = right2;
pos = (797,305);
},
{
name = top;
pos = (535,590);
},
{
name = topleft;
pos = (346,543);
}
);
layerId = UUID0;
shapes = (
{
closed = 1;
nodes = (
(606,-10,o),
(777,142,o),
(777,336,cs),
(777,363,o),
(775,390,o),
(772,410,c),
(719,407,l),
(722,386,o),
(723,361,o),
(723,345,cs),
(723,179,o),
(582,92,o),
(391,92,cs),
(214,92,o),
(147,147,o),
(147,219,c),
(133,204,l),
(325,235,o),
(456,316,o),
(456,452,cs),
(456,548,o),
(393,581,o),
(281,581,cs),
(271,581,l),
(260,490,o),
(228,450,o),
(169,450,cs),
(122,450,o),
(105,471,o),
(105,520,cs),
(105,539,o),
(109,556,o),
(115,575,c),
(48,575,l),
(41,560,o),
(37,540,o),
(37,516,cs),
(37,432,o),
(88,393,o),
(161,393,cs),
(271,393,o),
(310,488,o),
(315,539,c),
(304,527,l),
(352,527,o),
(396,514,o),
(396,450,cs),
(396,356,o),
(322,284,o),
(92,251,c),
(92,239,ls),
(92,84,o),
(194,-10,o),
(379,-10,cs)
);
}
);
width = 817;
}
);
unicode = 71953;
},
{
glyphname = u11912;
lastChange = "2022-02-03 13:22:38 +0000";
layers = (
{
anchors = (
{
name = bottom;
pos = (614,-138);
},
{
name = halant;
pos = (1162,378);
},
{
name = top;
pos = (515,590);
},
{
name = topleft;
pos = (347,543);
}
);
layerId = UUID0;
shapes = (
{
closed = 1;
nodes = (
(976,-191,o),
(1223,-27,o),
(1223,287,cs),
(1223,523,o),
(1061,656,o),
(854,656,cs),
(682,656,o),
(540,537,o),
(540,344,cs),
(540,192,o),
(665,73,o),
(811,73,cs),
(931,73,o),
(1047,154,o),
(1047,308,cs),
(1047,438,o),
(960,509,o),
(860,509,cs),
(782,509,o),
(720,465,o),
(720,393,cs),
(720,356,o),
(732,333,o),
(746,311,cs),
(758,292,o),
(767,273,o),
(767,248,cs),
(767,159,o),
(582,92,o),
(391,92,cs),
(214,92,o),
(147,147,o),
(147,219,c),
(133,204,l),
(325,235,o),
(456,316,o),
(456,452,cs),
(456,548,o),
(393,581,o),
(281,581,cs),
(271,581,l),
(260,490,o),
(228,448,o),
(169,448,cs),
(122,448,o),
(105,471,o),
(105,520,cs),
(105,539,o),
(109,556,o),
(115,575,c),
(51,575,l),
(44,560,o),
(40,540,o),
(40,516,cs),
(40,432,o),
(88,393,o),
(161,393,cs),
(271,393,o),
(310,488,o),
(315,539,c),
(304,527,l),
(352,527,o),
(396,514,o),
(396,450,cs),
(396,356,o),
(322,284,o),
(92,251,c),
(92,239,ls),
(92,84,o),
(194,-10,o),
(379,-10,cs),
(606,-10,o),
(816,122,o),
(816,242,cs),
(816,272,o),
(807,295,o),
(797,317,cs),
(788,337,o),
(781,355,o),
(781,376,cs),
(781,412,o),
(809,442,o),
(864,442,cs),
(948,442,o),
(987,369,o),
(987,301,cs),
(987,189,o),
(902,131,o),
(812,131,cs),
(698,131,o),
(598,231,o),
(598,349,cs),
(598,517,o),
(716,602,o),
(858,602,cs),
(1034,602,o),
(1163,484,o),
(1163,285,cs),
(1163,0,o),
(928,-100,o),
(740,-100,cs),
(649,-100,o),
(584,-96,o),
(519,-85,c),
(505,-132,l),
(562,-165,o),
(650,-191,o),
(755,-191,cs)
);
}
);
width = 1263;
}
);
unicode = 71954;
},
{
glyphname = u11913;
lastChange = "2022-02-07 14:35:15 +0000";
layers = (
{
anchors = (
{
name = bottom;
pos = (495,-38);
},
{
name = halant;
pos = (559,256);
},
{
name = right2;
pos = (708,202);
},
{
name = top;
pos = (516,590);
},
{
name = topleft;
pos = (342,543);
}
);
layerId = UUID0;
shapes = (
{
closed = 1;
nodes = (
(666,-62,l),
(639,-38,o),
(547,52,o),
(547,162,cs),
(547,231,o),
(577,256,o),
(610,256,cs),
(640,256,o),
(660,239,o),
(660,209,cs),
(660,149,o),
(606,80,o),
(416,80,cs),
(237,80,o),
(152,138,o),
(152,219,c),
(128,204,l),
(320,235,o),
(451,316,o),
(451,452,cs),
(451,548,o),
(388,581,o),
(276,581,cs),
(266,581,l),
(255,490,o),
(223,450,o),
(164,450,cs),
(117,450,o),
(100,471,o),
(100,520,cs),
(100,539,o),
(104,556,o),
(110,575,c),
(43,575,l),
(36,560,o),
(32,540,o),
(32,516,cs),
(32,432,o),
(83,393,o),
(156,393,cs),
(266,393,o),
(305,488,o),
(310,539,c),
(299,527,l),
(347,527,o),
(391,514,o),
(391,450,cs),
(391,356,o),
(317,284,o),
(87,251,c),
(87,239,ls),
(87,85,o),
(179,-10,o),
(382,-10,cs),
(579,-10,o),
(716,93,o),
(716,213,cs),
(716,265,o),
(687,309,o),
(621,309,cs),
(560,309,o),
(497,264,o),
(497,163,cs),
(497,47,o),
(590,-65,o),
(622,-94,c)
);
}
);
width = 758;
}
);
unicode = 71955;
},
{
glyphname = u11915;
lastChange = "2022-02-07 14:35:36 +0000";
layers = (
{
anchors = (
{
name = bottom;
pos = (425,-138);
},
{
name = top;
pos = (446,590);
},
{
name = topleft;
pos = (350,543);
},
{
name = topright;
pos = (620,494);
}
);
layerId = UUID0;
shapes = (
{
closed = 1;
nodes = (
(654,-114,o),
(789,106,o),
(789,337,cs),
(789,483,o),
(722,589,o),
(577,589,cs),
(471,589,o),
(424,513,o),
(405,436,c),
(386,513,o),
(336,589,o),
(240,589,cs),
(111,589,o),
(35,493,o),
(35,369,cs),
(35,316,o),
(53,277,o),
(70,251,c),
(116,264,l),
(105,289,o),
(96,319,o),
(96,351,cs),
(96,454,o),
(165,493,o),
(241,493,cs),
(326,493,o),
(369,427,o),
(379,346,c),
(432,346,l),
(442,427,o),
(482,493,o),
(577,493,cs),
(675,493,o),
(729,429,o),
(729,316,cs),
(729,137,o),
(626,-49,o),
(515,-49,cs),
(474,-49,o),
(460,-22,o),
(460,17,cs),
(460,90,o),
(525,179,o),
(627,246,cs),
(742,322,o),
(860,365,o),
(953,395,c),
(934,444,l),
(835,409,o),
(717,362,o),
(618,298,cs),
(477,207,o),
(394,102,o),
(394,0,cs),
(394,-76,o),
(438,-114,o),
(506,-114,cs)
);
}
);
width = 963;
}
);
unicode = 71957;
},
{
glyphname = u11916;
lastChange = "2022-02-07 14:36:03 +0000";
layers = (
{
anchors = (
{
name = bottom;
pos = (455,-38);
},
{
name = right2;
pos = (724,201);
},
{
name = top;
pos = (476,590);
},
{
name = topleft;
pos = (270,543);
}
);
layerId = UUID0;
shapes = (
{
closed = 1;
nodes = (
(557,-10,o),
(705,105,o),
(705,253,cs),
(705,269,o),
(703,286,o),
(700,300,c),
(647,297,l),
(650,276,o),
(651,265,o),
(651,252,cs),
(651,142,o),
(533,92,o),
(395,92,cs),
(222,92,o),
(155,147,o),
(155,209,c),
(141,194,l),
(258,252,o),
(405,334,o),
(405,471,cs),
(405,544,o),
(353,591,o),
(257,591,cs),
(176,591,o),
(99,539,o),
(52,473,c),
(76,450,l),
(137,494,o),
(188,517,o),
(252,517,cs),
(309,517,o),
(344,495,o),
(344,449,cs),
(344,375,o),
(245,300,o),
(100,241,c),
(100,229,ls),
(100,84,o),
(202,-10,o),
(383,-10,cs)
);
},
{
closed = 1;
nodes = (
(76,450,l),
(83,483,l),
(78,490,l),
(81,497,o),
(83,514,o),
(83,531,cs),
(83,591,l),
(26,591,l),
(26,450,l)
);
}
);
width = 745;
}
);
unicode = 71958;
},
{
glyphname = u11918;
lastChange = "2022-02-07 14:36:18 +0000";
layers = (
{
anchors = (
{
name = bottom;
pos = (535,-38);
},
{
name = halant;
pos = (728,333);
},
{
name = right2;
pos = (765,279);
},
{
name = top;
pos = (556,590);
},
{
name = topleft;
pos = (341,543);
}
);
layerId = UUID0;
shapes = (
{
closed = 1;
nodes = (
(403,-10,o),
(460,59,o),
(483,129,c),
(512,44,o),
(564,-10,o),
(662,-10,cs),
(775,-10,o),
(846,58,o),
(846,178,cs),
(846,270,o),
(793,338,o),
(723,373,c),
(696,329,l),
(766,289,o),
(783,240,o),
(783,192,cs),
(783,129,o),
(738,95,o),
(648,95,cs),
(577,95,o),
(517,131,o),
(510,204,c),
(457,204,l),
(442,147,o),
(410,95,o),
(300,95,cs),
(242,95,o),
(206,119,o),
(206,163,cs),
(206,189,o),
(214,226,o),
(282,261,cs),
(369,306,o),
(461,354,o),
(461,455,cs),
(461,546,o),
(388,581,o),
(276,581,cs),
(266,581,l),
(255,490,o),
(223,450,o),
(164,450,cs),
(117,450,o),
(100,471,o),
(100,520,cs),
(100,539,o),
(104,556,o),
(110,575,c),
(43,575,l),
(36,560,o),
(32,540,o),
(32,516,cs),
(32,432,o),
(83,393,o),
(156,393,cs),
(266,393,o),
(305,488,o),
(310,539,c),
(299,527,l),
(347,527,o),
(404,510,o),
(404,453,cs),
(404,392,o),
(361,353,o),
(278,313,cs),
(178,265,o),
(140,204,o),
(140,141,cs),
(140,42,o),
(210,-10,o),
(302,-10,cs)
);
}
);
width = 886;
}
);
unicode = 71960;
},
{
glyphname = u11919;
lastChange = "2022-02-07 14:36:38 +0000";
layers = (
{
anchors = (
{
name = bottom;
pos = (535,-38);
},
{
name = halant;
pos = (712,333);
},
{
name = right2;
pos = (749,279);
},
{
name = top;
pos = (556,590);
},
{
name = topleft;
pos = (260,543);
}
);
layerId = UUID0;
shapes = (
{
closed = 1;
nodes = (
(387,-10,o),
(444,59,o),
(467,129,c),
(496,44,o),
(548,-10,o),
(646,-10,cs),
(759,-10,o),
(830,58,o),
(830,178,cs),
(830,270,o),
(777,338,o),
(707,373,c),
(680,329,l),
(750,289,o),
(767,240,o),
(767,192,cs),
(767,129,o),
(722,95,o),
(632,95,cs),
(561,95,o),
(501,131,o),
(494,204,c),
(441,204,l),
(426,147,o),
(394,95,o),
(284,95,cs),
(226,95,o),
(190,119,o),
(190,163,cs),
(190,189,o),
(201,218,o),
(270,247,cs),
(359,284,o),
(445,320,o),
(445,430,cs),
(445,511,o),
(382,589,o),
(255,589,cs),
(125,589,o),
(40,528,o),
(40,450,cs),
(40,377,o),
(89,337,o),
(157,337,cs),
(221,337,o),
(276,367,o),
(276,446,cs),
(276,501,o),
(238,538,o),
(183,538,cs),
(173,538,o),
(157,537,o),
(149,535,c),
(159,517,l),
(180,526,o),
(211,537,o),
(261,537,cs),
(329,537,o),
(385,489,o),
(385,428,cs),
(385,358,o),
(349,332,o),
(266,299,cs),
(164,259,o),
(124,204,o),
(124,141,cs),
(124,42,o),
(194,-10,o),
(286,-10,cs)
);
},
{
closed = 1;
nodes = (
(116,388,o),
(97,413,o),
(97,449,cs),
(97,484,o),
(123,506,o),
(158,506,cs),
(202,506,o),
(219,478,o),
(219,449,cs),
(219,408,o),
(196,388,o),
(159,388,cs)
);
}
);
width = 870;
}
);
unicode = 71961;
},
{
glyphname = u1191A;
lastChange = "2022-02-03 14:41:33 +0000";
layers = (
{
anchors = (
{
name = bottom;
pos = (425,-38);
},
{
name = halant;
pos = (738,380);
},
{
name = top;
pos = (446,590);
},
{
name = topleft;
pos = (350,543);
}
);
layerId = UUID0;
shapes = (
{
closed = 1;
nodes = (
(624,-10,o),
(793,171,o),
(793,365,cs),
(793,493,o),
(716,589,o),
(587,589,cs),
(481,589,o),
(434,513,o),
(415,436,c),
(396,513,o),
(346,589,o),
(240,589,cs),
(121,589,o),
(43,493,o),
(43,374,cs),
(43,256,o),
(103,183,o),
(188,183,cs),
(263,183,o),
(304,231,o),
(304,298,cs),
(304,361,o),
(275,415,o),
(194,415,cs),
(132,415,o),
(94,369,o),
(94,324,cs),
(94,314,o),
(95,298,o),
(97,290,c),
(109,300,l),
(103,319,o),
(95,346,o),
(95,366,cs),
(95,437,o),
(136,493,o),
(239,493,cs),
(336,493,o),
(379,427,o),
(389,346,c),
(442,346,l),
(452,427,o),
(492,493,o),
(587,493,cs),
(663,493,o),
(733,454,o),
(733,348,cs),
(733,192,o),
(594,78,o),
(430,78,cs),
(372,78,o),
(330,85,o),
(275,100,c),
(264,58,l),
(320,14,o),
(373,-10,o),
(463,-10,cs)
);
},
{
closed = 1;
nodes = (
(149,240,o),
(126,255,o),
(126,298,cs),
(126,332,o),
(155,358,o),
(191,358,cs),
(234,358,o),
(253,336,o),
(253,300,cs),
(253,258,o),
(229,240,o),
(191,240,cs)
);
}
);
width = 833;
}
);
unicode = 71962;
},
{
glyphname = u1191B;
lastChange = "2022-02-07 14:37:24 +0000";
layers = (
{
anchors = (
{
name = bottom;
pos = (455,-276);
},
{
name = right2;
pos = (745,183);
},
{
name = top;
pos = (476,590);
},
{
name = topleft;
pos = (310,543);
}
);
layerId = UUID0;
shapes = (
{
closed = 1;
nodes = (
(487,-271,o),
(727,-145,o),
(727,122,cs),
(727,269,o),
(628,369,o),
(465,369,cs),
(249,369,o),
(86,273,o),
(86,130,cs),
(86,36,o),
(156,-10,o),
(247,-10,cs),
(385,-10,o),
(495,119,o),
(495,319,cs),
(495,496,o),
(405,589,o),
(282,589,cs),
(165,589,o),
(93,507,o),
(83,403,c),
(134,395,l),
(148,436,o),
(192,502,o),
(279,502,cs),
(356,502,o),
(435,450,o),
(435,304,cs),
(435,147,o),
(349,46,o),
(249,46,cs),
(193,46,o),
(156,77,o),
(156,136,cs),
(156,246,o),
(283,315,o),
(469,315,cs),
(601,315,o),
(667,230,o),
(667,120,cs),
(667,-118,o),
(439,-180,o),
(281,-180,cs),
(180,-180,o),
(109,-166,o),
(54,-145,c),
(40,-192,l),
(87,-235,o),
(181,-271,o),
(286,-271,cs)
);
}
);
width = 767;
}
);
unicode = 71963;
},
{
glyphname = u1191C;
lastChange = "2022-02-07 14:37:55 +0000";
layers = (
{
anchors = (
{
name = bottom;
pos = (395,-38);
},
{
name = halant;
pos = (509,256);
},
{
name = right2;
pos = (597,201);
},
{
name = top;
pos = (416,590);
},
{
name = topleft;
pos = (292,536);
},
{
name = topright;
pos = (300,492);
}
);
layerId = UUID0;
shapes = (
{
closed = 1;
nodes = (
(506,-10,o),
(599,100,o),
(599,201,cs),
(599,250,o),
(575,309,o),
(498,309,cs),
(438,309,o),
(380,267,o),
(380,151,c),
(434,151,l),
(434,235,o),
(464,259,o),
(499,259,cs),
(528,259,o),
(546,236,o),
(546,203,cs),
(546,158,o),
(515,90,o),
(343,90,cs),
(206,90,o),
(154,137,o),
(154,189,c),
(140,164,l),
(257,232,o),
(399,328,o),
(399,459,cs),
(399,536,o),
(356,581,o),
(270,581,cs),
(190,581,o),
(113,529,o),
(66,463,c),
(90,440,l),
(151,484,o),
(202,507,o),
(259,507,cs),
(312,507,o),
(337,487,o),
(337,448,cs),
(337,369,o),
(244,280,o),
(99,211,c),
(99,199,ls),
(99,84,o),
(181,-10,o),
(326,-10,cs)
);
},
{
closed = 1;
nodes = (
(90,440,l),
(97,473,l),
(92,480,l),
(95,487,o),
(97,504,o),
(97,521,cs),
(97,581,l),
(40,581,l),
(40,440,l)
);
}
);
width = 639;
}
);
unicode = 71964;
},
{
glyphname = u1191D;
lastChange = "2022-02-03 14:45:16 +0000";
layers = (
{
anchors = (
{
name = bottom;
pos = (275,-38);
},
{
name = halant;
pos = (385,383);
},
{
name = top;
pos = (296,590);
},
{
name = topleft;
pos = (252,546);
},
{
name = topright;
pos = (319,495);
}
);
layerId = UUID0;
shapes = (
{
closed = 1;
nodes = (
(410,-11,o),
(506,74,o),
(506,161,cs),
(506,265,o),
(425,286,o),
(267,291,cs),
(210,293,o),
(185,302,o),
(185,327,cs),
(185,360,o),
(227,365,o),
(310,368,cs),
(415,372,o),
(502,394,o),
(502,479,cs),
(502,550,o),
(422,589,o),
(252,589,cs),
(177,589,o),
(106,580,o),
(67,568,c),
(83,520,l),
(127,529,o),
(178,537,o),
(259,537,cs),
(337,537,o),
(402,527,o),
(402,476,cs),
(402,432,o),
(369,422,o),
(274,416,cs),
(210,412,o),
(128,398,o),
(128,321,cs),
(128,247,o),
(206,242,o),
(278,240,cs),
(344,238,o),
(404,223,o),
(404,162,cs),
(404,89,o),
(340,45,o),
(205,45,cs),
(153,45,o),
(113,51,o),
(47,63,c),
(36,11,l),
(94,-5,o),
(150,-11,o),
(218,-11,cs)
);
}
);
width = 556;
}
);
unicode = 71965;
},
{
glyphname = u1191E;
lastChange = "2022-02-03 14:45:22 +0000";
layers = (
{
anchors = (
{
name = bottom;
pos = (575,-38);
},
{
name = top;
pos = (596,590);
},
{
name = topleft;
pos = (262,536);
}
);
layerId = UUID0;
shapes = (
{
closed = 1;
nodes = (
(559,-10,o),
(664,113,o),
(664,214,cs),
(664,282,o),
(623,334,o),
(548,334,cs),
(494,334,o),
(435,295,o),
(435,207,cs),
(435,115,o),
(539,-10,o),
(682,-10,cs),
(843,-10,o),
(909,105,o),
(909,247,cs),
(909,305,o),
(898,354,o),
(880,389,c),
(834,378,l),
(846,335,o),
(852,295,o),
(852,254,cs),
(852,127,o),
(786,82,o),
(667,82,cs),
(566,82,o),
(488,125,o),
(488,206,cs),
(488,251,o),
(509,276,o),
(547,276,cs),
(581,276,o),
(603,251,o),
(603,212,cs),
(603,137,o),
(544,85,o),
(401,85,cs),
(309,85,o),
(259,108,o),
(259,165,cs),
(259,217,o),
(295,258,o),
(342,301,cs),
(389,344,o),
(435,387,o),
(435,461,cs),
(435,534,o),
(376,589,o),
(255,589,cs),
(125,589,o),
(40,528,o),
(40,450,cs),
(40,377,o),
(89,337,o),
(157,337,cs),
(221,337,o),
(276,367,o),
(276,446,cs),
(276,501,o),
(238,538,o),
(183,538,cs),
(173,538,o),
(157,537,o),
(149,535,c),
(159,517,l),
(180,526,o),
(211,537,o),
(261,537,cs),
(323,537,o),
(375,512,o),
(375,459,cs),
(375,396,o),
(335,359,o),
(293,321,cs),
(243,275,o),
(193,228,o),
(193,149,cs),
(193,24,o),
(294,-10,o),
(390,-10,cs)
);
},
{
closed = 1;
nodes = (
(116,388,o),
(97,413,o),
(97,449,cs),
(97,484,o),
(123,506,o),
(158,506,cs),
(202,506,o),
(219,478,o),
(219,449,cs),
(219,408,o),
(196,388,o),
(159,388,cs)
);
}
);
width = 949;
}
);
unicode = 71966;
},
{
glyphname = u1191F;
lastChange = "2022-02-03 14:41:55 +0000";
layers = (
{
anchors = (
{
name = bottom;
pos = (415,-38);
},
{
name = halant;
pos = (728,380);
},
{
name = medra;
pos = (718,489);
},
{
name = top;
pos = (416,590);
},
{
name = topleft;
pos = (330,543);
},
{
name = topright;
pos = (589,494);
}
);
layerId = UUID0;
shapes = (
{
closed = 1;
nodes = (
(625,-6,o),
(783,165,o),
(783,365,cs),
(783,493,o),
(706,589,o),
(577,589,cs),
(471,589,o),
(424,513,o),
(405,436,c),
(386,513,o),
(336,589,o),
(240,589,cs),
(111,589,o),
(35,493,o),
(35,369,cs),
(35,316,o),
(53,277,o),
(70,251,c),
(116,264,l),
(105,289,o),
(96,319,o),
(96,351,cs),
(96,454,o),
(165,493,o),
(241,493,cs),
(326,493,o),
(369,427,o),
(379,346,c),
(432,346,l),
(442,427,o),
(482,493,o),
(577,493,cs),
(653,493,o),
(723,454,o),
(723,348,cs),
(723,197,o),
(576,82,o),
(415,82,cs),
(354,82,o),
(303,93,o),
(265,105,c),
(246,52,l),
(292,15,o),
(361,-6,o),
(431,-6,cs)
);
}
);
width = 823;
}
);
unicode = 71967;
},
{
glyphname = u11920;
lastChange = "2022-02-03 14:45:31 +0000";
layers = (
{
anchors = (
{
name = bottom;
pos = (545,-38);
},
{
name = halant;
pos = (773,380);
},
{
name = top;
pos = (566,590);
},
{
name = topleft;
pos = (262,536);
}
);
layerId = UUID0;
shapes = (
{
closed = 1;
nodes = (
(657,-10,o),
(818,142,o),
(818,336,cs),
(818,363,o),
(816,390,o),
(813,410,c),
(760,407,l),
(763,386,o),
(764,361,o),
(764,345,cs),
(764,179,o),
(633,92,o),
(442,92,cs),
(285,92,o),
(198,142,o),
(198,207,c),
(184,192,l),
(353,233,o),
(434,337,o),
(434,434,cs),
(434,514,o),
(381,589,o),
(255,589,cs),
(125,589,o),
(40,528,o),
(40,450,cs),
(40,377,o),
(89,337,o),
(157,337,cs),
(221,337,o),
(276,367,o),
(276,446,cs),
(276,501,o),
(238,538,o),
(183,538,cs),
(173,538,o),
(157,537,o),
(149,535,c),
(159,517,l),
(180,526,o),
(211,537,o),
(253,537,cs),
(328,537,o),
(374,492,o),
(374,432,cs),
(374,377,o),
(342,279,o),
(143,239,c),
(143,227,ls),
(143,79,o),
(265,-10,o),
(430,-10,cs)
);
},
{
closed = 1;
nodes = (
(116,388,o),
(97,413,o),
(97,449,cs),
(97,484,o),
(123,506,o),
(158,506,cs),
(202,506,o),
(219,478,o),
(219,449,cs),
(219,408,o),
(196,388,o),
(159,388,cs)
);
}
);
width = 858;
}
);
unicode = 71968;
},
{
glyphname = u11921;
lastChange = "2022-02-07 13:33:11 +0000";
layers = (
{
anchors = (
{
name = bottom;
pos = (585,-277);
},
{
name = halant;
pos = (762,382);
},
{
name = top;
pos = (606,590);
},
{
name = topleft;
pos = (252,536);
},
{
name = topright;
pos = (737,343);
}
);
layerId = UUID0;
shapes = (
{
closed = 1;
nodes = (
(677,-10,o),
(818,142,o),
(818,324,cs),
(818,351,o),
(814,382,o),
(796,409,c),
(749,409,l),
(759,382,o),
(764,353,o),
(764,328,cs),
(764,179,o),
(653,92,o),
(442,92,cs),
(285,92,o),
(198,142,o),
(198,207,c),
(184,192,l),
(353,233,o),
(434,337,o),
(434,434,cs),
(434,514,o),
(381,589,o),
(255,589,cs),
(125,589,o),
(40,528,o),
(40,450,cs),
(40,377,o),
(89,337,o),
(157,337,cs),
(221,337,o),
(276,367,o),
(276,446,cs),
(276,501,o),
(238,538,o),
(183,538,cs),
(173,538,o),
(157,537,o),
(149,535,c),
(159,517,l),
(180,526,o),
(211,537,o),
(253,537,cs),
(328,537,o),
(374,492,o),
(374,432,cs),
(374,377,o),
(342,279,o),
(143,239,c),
(143,227,ls),
(143,79,o),
(265,-10,o),
(430,-10,cs)
);
},
{
closed = 1;
nodes = (
(116,388,o),
(97,413,o),
(97,449,cs),
(97,484,o),
(123,506,o),
(158,506,cs),
(202,506,o),
(219,478,o),
(219,449,cs),
(219,408,o),
(196,388,o),
(159,388,cs)
);
},
{
closed = 1;
nodes = (
(835,-257,o),
(985,-65,o),
(985,139,cs),
(985,271,o),
(914,367,o),
(796,409,c),
(763,371,l),
(878,323,o),
(925,247,o),
(925,152,cs),
(925,29,o),
(824,-171,o),
(522,-171,cs),
(464,-171,o),
(404,-166,o),
(346,-150,c),
(338,-194,l),
(402,-237,o),
(484,-257,o),
(584,-257,cs)
);
}
);
width = 1030;
}
);
unicode = 71969;
},
{
glyphname = u11922;
lastChange = "2022-02-07 14:38:24 +0000";
layers = (
{
anchors = (
{
name = bottom;
pos = (475,-38);
},
{
name = right2;
pos = (618,406);
},
{
name = top;
pos = (496,590);
},
{
name = topleft;
pos = (242,536);
},
{
name = topright;
pos = (547,437);
}
);
layerId = UUID0;
shapes = (
{
closed = 1;
nodes = (
(536,-10,o),
(705,186,o),
(705,344,cs),
(705,436,o),
(643,489,o),
(559,503,c),
(549,456,l),
(603,441,o),
(657,414,o),
(657,347,cs),
(657,240,o),
(516,92,o),
(340,92,cs),
(237,92,o),
(204,132,o),
(199,173,c),
(358,235,o),
(434,340,o),
(434,434,cs),
(434,514,o),
(381,589,o),
(255,589,cs),
(125,589,o),
(40,528,o),
(40,450,cs),
(40,377,o),
(89,337,o),
(157,337,cs),
(221,337,o),
(276,367,o),
(276,446,cs),
(276,501,o),
(238,538,o),
(183,538,cs),
(173,538,o),
(157,537,o),
(149,535,c),
(159,517,l),
(180,526,o),
(211,537,o),
(253,537,cs),
(328,537,o),
(374,492,o),
(374,432,cs),
(374,377,o),
(342,275,o),
(143,215,c),
(143,203,ls),
(143,75,o),
(219,-10,o),
(340,-10,cs)
);
},
{
closed = 1;
nodes = (
(116,388,o),
(97,413,o),
(97,449,cs),
(97,484,o),
(123,506,o),
(158,506,cs),
(202,506,o),
(219,478,o),
(219,449,cs),
(219,408,o),
(196,388,o),
(159,388,cs)
);
}
);
width = 745;
}
);
unicode = 71970;
},
{
glyphname = u11923;
lastChange = "2022-02-07 14:38:45 +0000";
layers = (
{
anchors = (
{
name = bottom;
pos = (575,-276);
},
{
name = halant;
pos = (699,356);
},
{
name = right2;
pos = (843,301);
},
{
name = top;
pos = (596,590);
},
{
name = topleft;
pos = (242,537);
},
{
name = topright;
pos = (669,312);
}
);
layerId = UUID0;
shapes = (
{
closed = 1;
nodes = (
(699,-257,o),
(866,-16,o),
(866,244,cs),
(866,339,o),
(829,409,o),
(747,409,cs),
(690,409,o),
(665,363,o),
(634,297,cs),
(568,156,o),
(483,92,o),
(353,92,cs),
(244,92,o),
(204,132,o),
(199,173,c),
(358,235,o),
(434,340,o),
(434,434,cs),
(434,514,o),
(381,589,o),
(255,589,cs),
(125,589,o),
(40,528,o),
(40,450,cs),
(40,377,o),
(89,337,o),
(157,337,cs),
(221,337,o),
(276,367,o),
(276,446,cs),
(276,501,o),
(238,538,o),
(183,538,cs),
(173,538,o),
(157,537,o),
(149,535,c),
(159,517,l),
(180,526,o),
(211,537,o),
(253,537,cs),
(328,537,o),
(374,492,o),
(374,432,cs),
(374,377,o),
(342,275,o),
(143,215,c),
(143,203,ls),
(143,75,o),
(216,-10,o),
(341,-10,cs),
(516,-10,o),
(602,108,o),
(662,239,cs),
(697,316,o),
(713,350,o),
(745,350,cs),
(776,350,o),
(806,315,o),
(806,237,cs),
(806,77,o),
(704,-171,o),
(372,-171,cs),
(314,-171,o),
(254,-166,o),
(176,-150,c),
(168,-197,l),
(234,-234,o),
(308,-257,o),
(404,-257,cs)
);
},
{
closed = 1;
nodes = (
(116,388,o),
(97,413,o),
(97,449,cs),
(97,484,o),
(123,506,o),
(158,506,cs),
(202,506,o),
(219,478,o),
(219,449,cs),
(219,408,o),
(196,388,o),
(159,388,cs)
);
}
);
width = 911;
}
);
unicode = 71971;
},
{
glyphname = u11924;
lastChange = "2022-02-07 14:39:05 +0000";
layers = (
{
anchors = (
{
name = bottom;
pos = (382,-38);
},
{
name = halant;
pos = (437,250);
},
{
name = right;
pos = (658,300);
},
{
name = right2;
pos = (622,201);
},
{
name = top;
pos = (486,590);
},
{
name = topleft;
pos = (262,537);
},
{
name = topright;
pos = (325,493);
}
);
layerId = UUID0;
shapes = (
{
closed = 1;
nodes = (
(568,-10,o),
(642,98,o),
(642,188,cs),
(642,244,o),
(611,309,o),
(526,309,cs),
(491,309,o),
(454,295,o),
(424,277,c),
(449,233,l),
(478,248,o),
(499,255,o),
(524,255,cs),
(562,255,o),
(589,232,o),
(589,196,cs),
(589,140,o),
(532,92,o),
(400,92,cs),
(282,92,o),
(221,137,o),
(221,185,cs),
(221,215,o),
(236,244,o),
(292,280,cs),
(363,326,o),
(436,381,o),
(436,461,cs),
(436,534,o),
(376,589,o),
(255,589,cs),
(125,589,o),
(40,528,o),
(40,450,cs),
(40,377,o),
(89,337,o),
(157,337,cs),
(221,337,o),
(276,367,o),
(276,446,cs),
(276,501,o),
(238,538,o),
(183,538,cs),
(173,538,o),
(157,537,o),
(149,535,c),
(159,517,l),
(180,526,o),
(211,537,o),
(261,537,cs),
(323,537,o),
(376,512,o),
(376,459,cs),
(376,409,o),
(351,377,o),
(286,334,cs),
(186,268,o),
(155,229,o),
(155,162,cs),
(155,62,o),
(248,-10,o),
(388,-10,cs)
);
},
{
closed = 1;
nodes = (
(116,388,o),
(97,413,o),
(97,449,cs),
(97,484,o),
(123,506,o),
(158,506,cs),
(202,506,o),
(219,478,o),
(219,449,cs),
(219,408,o),
(196,388,o),
(159,388,cs)
);
}
);
width = 692;
}
);
unicode = 71972;
},
{
glyphname = u11925;
lastChange = "2022-02-07 14:40:12 +0000";
layers = (
{
anchors = (
{
name = bottom;
pos = (415,-38);
},
{
name = right2;
pos = (827,285);
},
{
name = top;
pos = (436,590);
},
{
name = topleft;
pos = (292,537);
}
);
layerId = UUID0;
shapes = (
{
closed = 1;
nodes = (
(373,-10,o),
(497,151,o),
(497,355,cs),
(497,505,o),
(403,588,o),
(245,588,cs),
(160,588,o),
(76,569,o),
(8,546,c),
(35,476,l),
(109,503,o),
(175,515,o),
(239,515,cs),
(358,515,o),
(434,484,o),
(434,352,cs),
(434,175,o),
(341,56,o),
(224,56,cs),
(168,56,o),
(131,80,o),
(131,134,cs),
(131,184,o),
(160,214,o),
(217,214,cs),
(334,214,o),
(403,-7,o),
(564,-7,cs),
(689,-7,o),
(777,110,o),
(777,250,cs),
(777,308,o),
(766,357,o),
(748,392,c),
(685,381,l),
(697,338,o),
(703,298,o),
(703,257,cs),
(703,142,o),
(656,67,o),
(570,67,cs),
(440,67,o),
(364,268,o),
(215,268,cs),
(120,268,o),
(63,210,o),
(63,126,cs),
(63,35,o),
(135,-10,o),
(217,-10,cs)
);
}
);
width = 817;
}
);
unicode = 71973;
},
{
category = Mark;
glyphname = u11940;
lastChange = "2022-02-03 13:25:28 +0000";
layers = (
{
anchors = (
{
name = _medya;
pos = (-109,488);
},
{
name = bottom;
pos = (295,-138);
},
{
name = right;
pos = (619,300);
},
{
name = top;
pos = (276,590);
},
{
name = topleft;
pos = (152,495);
},
{
name = topright;
pos = (354,495);
}
);
layerId = UUID0;
shapes = (
{
closed = 1;
nodes = (
(240,47,o),
(352,198,o),
(352,348,cs),
(352,511,o),
(222,534,o),
(94,534,cs),
(15,534,o),
(-36,526,o),
(-100,512,c),
(-83,471,l),
(-28,480,o),
(25,484,o),
(79,484,cs),
(202,484,o),
(282,463,o),
(282,340,cs),
(282,209,o),
(193,77,o),
(11,-46,c),
(51,-73,l)
);
},
{
closed = 1;
nodes = (
(351,-87,o),
(581,99,o),
(581,304,cs),
(581,343,o),
(569,373,o),
(556,396,c),
(506,386,l),
(511,359,o),
(514,337,o),
(514,314,cs),
(514,64,o),
(245,-46,o),
(11,-46,c),
(11,-87,l)
);
}
);
width = 621;
}
);
script = divesakuru;
subCategory = Spacing;
unicode = 72000;
},
{
glyphname = u11926;
lastChange = "2022-02-03 13:25:39 +0000";
layers = (
{
anchors = (
{
name = bottom;
pos = (415,-38);
},
{
name = halant;
pos = (714,350);
},
{
name = top;
pos = (436,590);
},
{
name = topleft;
pos = (432,316);
}
);
layerId = UUID0;
shapes = (
{
closed = 1;
nodes = (
(428,-10,o),
(525,141,o),
(525,243,cs),
(525,312,o),
(482,364,o),
(405,364,cs),
(349,364,o),
(289,324,o),
(289,235,cs),
(289,137,o),
(404,-10,o),
(549,-10,cs),
(710,-10,o),
(776,105,o),
(776,247,cs),
(776,305,o),
(765,354,o),
(747,389,c),
(701,378,l),
(713,335,o),
(719,295,o),
(719,254,cs),
(719,127,o),
(653,83,o),
(534,83,cs),
(430,83,o),
(343,151,o),
(343,233,cs),
(343,280,o),
(365,304,o),
(404,304,cs),
(439,304,o),
(463,280,o),
(463,239,cs),
(463,167,o),
(411,86,o),
(268,86,cs),
(161,86,o),
(97,127,o),
(97,254,cs),
(97,295,o),
(103,335,o),
(115,378,c),
(69,389,l),
(51,354,o),
(40,305,o),
(40,247,cs),
(40,105,o),
(104,-10,o),
(257,-10,cs)
);
}
);
width = 816;
}
);
unicode = 71974;
},
{
glyphname = u11927;
lastChange = "2022-02-07 14:56:37 +0000";
layers = (
{
anchors = (
{
name = bottom;
pos = (229,-38);
},
{
name = halant;
pos = (312,373);
},
{
name = top;
pos = (250,590);
},
{
name = topleft;
pos = (182,467);
},
{
name = topright;
pos = (185,383);
}
);
layerId = UUID0;
shapes = (
{
closed = 1;
nodes = (
(324,-11,o),
(365,42,o),
(365,156,cs),
(365,318,ls),
(365,411,o),
(350,428,o),
(270,454,cs),
(19,535,l),
(3,474,l),
(251,395,ls),
(297,380,o),
(303,370,o),
(303,316,cs),
(303,171,ls),
(303,96,o),
(300,48,o),
(230,48,cs),
(168,48,o),
(159,96,o),
(159,171,cs),
(159,455,l),
(103,455,l),
(103,156,ls),
(103,42,o),
(144,-11,o),
(230,-11,cs)
);
}
);
width = 455;
}
);
unicode = 71975;
},
{
category = Mark;
glyphname = u11942;
lastChange = "2022-02-07 13:13:40 +0000";
layers = (
{
anchors = (
{
name = bottom;
pos = (-235,-328);
},
{
name = right;
pos = (199,300);
},
{
name = top;
pos = (-58,653);
},
{
name = topleft;
pos = (-52,467);
},
{
name = topright;
pos = (-52,422);
}
);
layerId = UUID0;
shapes = (
{
closed = 1;
nodes = (
(-77,-401,o),
(149,-82,o),
(149,195,cs),
(149,386,o),
(53,506,o),
(-133,506,c),
(-129,452,l),
(26,452,o),
(89,347,o),
(89,203,cs),
(89,-47,o),
(-124,-307,o),
(-464,-307,cs),
(-581,-307,o),
(-683,-290,o),
(-738,-275,c),
(-752,-322,l),
(-695,-365,o),
(-577,-401,o),
(-452,-401,cs)
);
}
);
width = 199;
}
);
script = divesakuru;
subCategory = Spacing;
unicode = 72002;
},
{
glyphname = u11928;
lastChange = "2022-02-07 14:40:26 +0000";
layers = (
{
anchors = (
{
name = bottom;
pos = (375,-38);
},
{
name = halant;
pos = (585,372);
},
{
name = right2;
pos = (690,318);
},
{
name = top;
pos = (396,590);
},
{
name = topleft;
pos = (228,390);
}
);
layerId = UUID0;
shapes = (
{
closed = 1;
nodes = (
(574,-11,o),
(667,101,o),
(667,249,cs),
(667,319,o),
(645,379,o),
(611,425,c),
(572,399,l),
(593,368,o),
(609,309,o),
(609,268,cs),
(609,122,o),
(477,82,o),
(356,82,cs),
(207,82,o),
(117,136,o),
(117,266,cs),
(117,307,o),
(127,333,o),
(143,351,c),
(136,379,l),
(121,368,o),
(107,344,o),
(107,315,cs),
(107,249,o),
(150,208,o),
(218,208,cs),
(283,208,o),
(342,244,o),
(342,329,cs),
(342,405,o),
(291,443,o),
(219,443,cs),
(136,443,o),
(60,384,o),
(60,248,cs),
(60,73,o),
(170,-11,o),
(357,-11,cs)
);
},
{
closed = 1;
nodes = (
(174,262,o),
(146,286,o),
(146,325,cs),
(146,365,o),
(170,390,o),
(218,390,cs),
(256,390,o),
(285,370,o),
(285,327,cs),
(285,285,o),
(258,262,o),
(218,262,cs)
);
}
);
width = 727;
}
);
unicode = 71976;
},
{
glyphname = u11929;
lastChange = "2022-02-07 14:40:46 +0000";
layers = (
{
anchors = (
{
name = bottom;
pos = (435,-38);
},
{
name = halant;
pos = (437,257);
},
{
name = right2;
pos = (626,207);
},
{
name = top;
pos = (456,590);
},
{
name = topleft;
pos = (348,543);
},
{
name = topright;
pos = (336,485);
}
);
layerId = UUID0;
shapes = (
{
closed = 1;
nodes = (
(569,-10,o),
(643,99,o),
(643,194,cs),
(643,250,o),
(612,315,o),
(527,315,cs),
(492,315,o),
(455,301,o),
(425,283,c),
(450,239,l),
(479,254,o),
(500,261,o),
(525,261,cs),
(563,261,o),
(590,238,o),
(590,202,cs),
(590,141,o),
(533,92,o),
(401,92,cs),
(282,92,o),
(221,135,o),
(221,191,cs),
(221,222,o),
(230,250,o),
(286,289,cs),
(367,346,o),
(422,404,o),
(422,470,cs),
(422,545,o),
(364,581,o),
(281,581,cs),
(271,581,l),
(260,490,o),
(228,450,o),
(169,450,cs),
(122,450,o),
(105,471,o),
(105,520,cs),
(105,539,o),
(109,556,o),
(115,575,c),
(48,575,l),
(41,560,o),
(37,540,o),
(37,516,cs),
(37,432,o),
(88,393,o),
(161,393,cs),
(271,393,o),
(310,488,o),
(315,539,c),
(304,527,l),
(332,526,o),
(367,510,o),
(367,463,cs),
(367,420,o),
(334,379,o),
(270,336,cs),
(178,274,o),
(155,218,o),
(155,169,cs),
(155,58,o),
(250,-10,o),
(389,-10,cs)
);
}
);
width = 693;
}
);
unicode = 71977;
},
{
glyphname = u1192A;
lastChange = "2022-02-07 14:40:58 +0000";
layers = (
{
anchors = (
{
name = bottom;
pos = (535,-38);
},
{
name = halant;
pos = (688,267);
},
{
name = right2;
pos = (815,203);
},
{
name = top;
pos = (556,590);
},
{
name = topleft;
pos = (292,543);
},
{
name = topright;
pos = (716,219);
}
);
layerId = UUID0;
shapes = (
{
closed = 1;
nodes = (
(394,-10,o),
(474,17,o),
(509,45,c),
(484,89,o),
(470,118,o),
(470,158,cs),
(470,235,o),
(522,282,o),
(616,282,cs),
(712,282,o),
(780,233,o),
(780,137,cs),
(780,125,o),
(779,115,o),
(777,107,c),
(786,97,l),
(788,105,o),
(789,121,o),
(789,131,cs),
(789,186,o),
(748,211,o),
(696,211,cs),
(629,211,o),
(588,159,o),
(588,102,cs),
(588,42,o),
(628,-8,o),
(701,-8,cs),
(775,-8,o),
(830,42,o),
(830,135,cs),
(830,270,o),
(734,342,o),
(618,342,cs),
(509,342,o),
(416,273,o),
(416,169,cs),
(416,138,o),
(424,104,o),
(444,68,c),
(463,121,l),
(431,96,o),
(389,81,o),
(343,81,cs),
(264,81,o),
(225,108,o),
(225,161,cs),
(225,210,o),
(264,249,o),
(308,290,cs),
(360,338,o),
(413,392,o),
(413,470,cs),
(413,544,o),
(367,591,o),
(271,591,cs),
(190,591,o),
(113,539,o),
(66,473,c),
(90,450,l),
(151,494,o),
(202,517,o),
(266,517,cs),
(323,517,o),
(358,495,o),
(358,459,cs),
(358,400,o),
(312,356,o),
(262,310,cs),
(209,262,o),
(156,210,o),
(156,139,cs),
(156,37,o),
(226,-10,o),
(334,-10,cs)
);
},
{
closed = 1;
nodes = (
(90,450,l),
(97,483,l),
(92,490,l),
(95,497,o),
(97,514,o),
(97,531,cs),
(97,591,l),
(40,591,l),
(40,450,l)
);
},
{
closed = 1;
nodes = (
(665,43,o),
(644,65,o),
(644,102,cs),
(644,134,o),
(666,160,o),
(699,160,cs),
(726,160,o),
(758,145,o),
(758,101,cs),
(758,67,o),
(736,43,o),
(701,43,cs)
);
}
);
width = 900;
}
);
unicode = 71978;
},
{
glyphname = u1192B;
lastChange = "2022-02-07 14:41:09 +0000";
layers = (
{
anchors = (
{
name = bottom;
pos = (421,-38);
},
{
name = halant;
pos = (724,206);
},
{
name = right2;
pos = (778,183);
},
{
name = top;
pos = (442,590);
},
{
name = topleft;
pos = (292,543);
},
{
name = topright;
pos = (663,503);
}
);
layerId = UUID0;
shapes = (
{
closed = 1;
nodes = (
(608,-10,o),
(761,119,o),
(761,244,cs),
(761,316,o),
(711,372,o),
(635,432,cs),
(586,471,o),
(571,501,o),
(571,538,cs),
(571,575,o),
(589,601,o),
(625,601,cs),
(660,601,o),
(680,580,o),
(680,542,cs),
(680,502,o),
(657,474,o),
(608,433,cs),
(549,383,o),
(488,321,o),
(488,249,cs),
(488,162,o),
(554,130,o),
(618,130,cs),
(651,130,o),
(683,147,o),
(697,170,c),
(703,231,l),
(689,196,o),
(654,190,o),
(620,190,cs),
(581,190,o),
(550,207,o),
(550,256,cs),
(550,318,o),
(600,362,o),
(650,406,cs),
(703,453,o),
(730,500,o),
(730,549,cs),
(730,614,o),
(677,649,o),
(627,649,cs),
(563,649,o),
(518,604,o),
(518,540,cs),
(518,481,o),
(550,441,o),
(603,396,cs),
(664,344,o),
(697,298,o),
(697,241,cs),
(697,190,o),
(665,92,o),
(406,92,cs),
(277,92,o),
(225,133,o),
(225,193,cs),
(225,240,o),
(265,273,o),
(307,306,cs),
(359,347,o),
(413,391,o),
(413,470,cs),
(413,544,o),
(367,591,o),
(271,591,cs),
(190,591,o),
(113,539,o),
(66,473,c),
(90,450,l),
(151,494,o),
(202,517,o),
(266,517,cs),
(323,517,o),
(358,495,o),
(358,459,cs),
(358,408,o),
(317,375,o),
(270,339,cs),
(215,297,o),
(156,250,o),
(156,163,cs),
(156,61,o),
(238,-10,o),
(394,-10,cs)
);
},
{
closed = 1;
nodes = (
(90,450,l),
(97,483,l),
(92,490,l),
(95,497,o),
(97,514,o),
(97,531,cs),
(97,591,l),
(40,591,l),
(40,450,l)
);
}
);
width = 831;
}
);
unicode = 71979;
},
{
glyphname = u1192C;
lastChange = "2022-02-03 13:27:11 +0000";
layers = (
{
anchors = (
{
name = bottom;
pos = (445,-38);
},
{
name = top;
pos = (466,590);
},
{
name = topleft;
pos = (260,541);
}
);
layerId = UUID0;
shapes = (
{
closed = 1;
nodes = (
(376,-11,o),
(440,15,o),
(440,83,cs),
(440,110,o),
(433,129,o),
(426,146,cs),
(421,159,o),
(417,172,o),
(417,186,cs),
(417,203,o),
(424,210,o),
(457,210,cs),
(667,210,o),
(725,269,o),
(725,433,c),
(669,433,l),
(669,294,o),
(615,260,o),
(464,260,cs),
(378,260,o),
(355,232,o),
(355,197,cs),
(355,173,o),
(362,157,o),
(370,141,cs),
(378,124,o),
(386,107,o),
(386,83,cs),
(386,53,o),
(363,38,o),
(321,38,cs),
(240,38,o),
(183,110,o),
(183,197,cs),
(183,281,o),
(251,319,o),
(387,325,c),
(387,370,l),
(263,374,o),
(135,381,o),
(135,462,cs),
(135,516,o),
(185,537,o),
(263,537,cs),
(313,537,o),
(352,530,o),
(400,520,c),
(419,567,l),
(358,584,o),
(305,589,o),
(250,589,cs),
(119,589,o),
(44,544,o),
(44,463,cs),
(44,376,o),
(158,341,o),
(257,332,c),
(257,341,l),
(184,337,o),
(89,286,o),
(89,193,cs),
(89,73,o),
(194,-11,o),
(314,-11,cs)
);
}
);
width = 740;
}
);
unicode = 71980;
},
{
glyphname = u1192D;
lastChange = "2022-02-03 13:27:22 +0000";
layers = (
{
anchors = (
{
name = bottom;
pos = (445,-38);
},
{
name = halant;
pos = (783,379);
},
{
name = top;
pos = (466,590);
},
{
name = topleft;
pos = (382,543);
},
{
name = topright;
pos = (581,495);
}
);
layerId = UUID0;
shapes = (
{
closed = 1;
nodes = (
(666,-10,o),
(829,179,o),
(829,395,cs),
(829,503,o),
(781,589,o),
(670,589,cs),
(605,589,o),
(559,549,o),
(559,488,cs),
(559,456,o),
(570,446,o),
(570,426,cs),
(570,411,o),
(559,398,o),
(511,398,cs),
(472,398,o),
(459,415,o),
(459,450,cs),
(459,536,o),
(416,589,o),
(336,589,cs),
(250,589,o),
(207,500,o),
(195,417,c),
(201,413,l),
(176,499,o),
(115,563,o),
(30,594,c),
(5,545,l),
(88,515,o),
(154,427,o),
(173,346,c),
(226,346,l),
(236,427,o),
(268,493,o),
(332,493,cs),
(401,493,o),
(407,456,o),
(413,418,cs),
(419,378,o),
(427,336,o),
(512,336,cs),
(596,336,o),
(613,381,o),
(613,409,cs),
(613,427,o),
(607,436,o),
(607,452,cs),
(607,480,o),
(624,509,o),
(671,509,cs),
(735,509,o),
(769,460,o),
(769,376,cs),
(769,202,o),
(615,78,o),
(391,78,cs),
(309,78,o),
(252,90,o),
(199,104,c),
(180,54,l),
(233,18,o),
(307,-10,o),
(406,-10,cs)
);
}
);
width = 869;
}
);
unicode = 71981;
},
{
glyphname = u1192E;
lastChange = "2022-02-03 13:28:16 +0000";
layers = (
{
anchors = (
{
name = bottom;
pos = (305,-248);
},
{
name = halant;
pos = (454,374);
},
{
name = top;
pos = (326,590);
},
{
name = topleft;
pos = (259,547);
}
);
layerId = UUID0;
shapes = (
{
closed = 1;
nodes = (
(438,-220,o),
(550,-142,o),
(557,-13,c),
(508,-13,l),
(498,-83,o),
(441,-138,o),
(295,-138,cs),
(133,-138,o),
(88,-54,o),
(93,10,c),
(78,-4,l),
(111,-9,o),
(142,-11,o),
(207,-11,cs),
(391,-11,o),
(513,57,o),
(513,159,cs),
(513,250,o),
(406,304,o),
(334,308,c),
(335,299,l),
(405,306,o),
(509,358,o),
(509,446,cs),
(509,540,o),
(413,589,o),
(260,589,cs),
(107,589,o),
(25,545,o),
(25,459,cs),
(25,392,o),
(69,367,o),
(127,367,cs),
(180,367,o),
(226,392,o),
(226,458,cs),
(226,503,o),
(194,534,o),
(149,534,cs),
(140,534,o),
(127,533,o),
(120,532,c),
(144,517,l),
(165,526,o),
(196,537,o),
(256,537,cs),
(351,537,o),
(412,513,o),
(412,448,cs),
(412,367,o),
(323,325,o),
(208,321,c),
(208,276,l),
(317,271,o),
(414,243,o),
(414,160,cs),
(414,79,o),
(325,45,o),
(176,45,cs),
(122,45,o),
(92,46,o),
(39,51,c),
(39,33,ls),
(39,-126,o),
(127,-220,o),
(289,-220,cs)
);
},
{
closed = 1;
nodes = (
(91,408,o),
(75,429,o),
(75,459,cs),
(75,494,o),
(91,507,o),
(126,507,cs),
(162,507,o),
(177,483,o),
(177,459,cs),
(177,425,o),
(157,408,o),
(127,408,cs)
);
}
);
width = 607;
}
);
unicode = 71982;
},
{
glyphname = u1192F;
lastChange = "2022-02-07 14:41:20 +0000";
layers = (
{
anchors = (
{
name = bottom;
pos = (525,-38);
},
{
name = halant;
pos = (714,333);
},
{
name = right2;
pos = (751,279);
},
{
name = top;
pos = (546,590);
},
{
name = topleft;
pos = (335,535);
}
);
layerId = UUID0;
shapes = (
{
closed = 1;
nodes = (
(389,-10,o),
(446,59,o),
(469,129,c),
(498,44,o),
(550,-10,o),
(648,-10,cs),
(761,-10,o),
(832,58,o),
(832,178,cs),
(832,270,o),
(779,338,o),
(709,373,c),
(682,329,l),
(752,289,o),
(769,240,o),
(769,192,cs),
(769,129,o),
(724,95,o),
(634,95,cs),
(563,95,o),
(503,131,o),
(496,204,c),
(443,204,l),
(428,147,o),
(396,95,o),
(256,95,cs),
(149,95,o),
(87,140,o),
(87,202,c),
(73,187,l),
(365,198,o),
(468,302,o),
(468,431,cs),
(468,512,o),
(418,589,o),
(326,589,cs),
(251,589,o),
(205,544,o),
(205,476,cs),
(205,403,o),
(253,363,o),
(321,363,cs),
(381,363,o),
(424,393,o),
(424,466,cs),
(424,518,o),
(393,564,o),
(348,564,cs),
(338,564,o),
(322,563,o),
(310,549,c),
(326,537,l),
(374,537,o),
(413,501,o),
(413,430,cs),
(413,348,o),
(362,247,o),
(32,234,c),
(32,222,ls),
(32,77,o),
(129,-10,o),
(258,-10,cs)
);
},
{
closed = 1;
nodes = (
(281,414,o),
(262,439,o),
(262,475,cs),
(262,510,o),
(288,532,o),
(323,532,cs),
(367,532,o),
(384,504,o),
(384,475,cs),
(384,434,o),
(361,414,o),
(324,414,cs)
);
}
);
width = 872;
}
);
unicode = 71983;
},
{
glyphname = "ka_tha-divesakuru";
lastChange = "2022-02-03 18:10:45 +0000";
layers = (
{
anchors = (
{
name = bottom;
pos = (829,-293);
},
{
name = halant;
pos = (941,-21);
},
{
name = right;
pos = (1088,300);
},
{
name = top;
pos = (835,590);
}
);
layerId = UUID0;
shapes = (
{
closed = 1;
nodes = (
(954,-270,o),
(1042,-167,o),
(1042,-72,cs),
(1042,-23,o),
(1018,34,o),
(941,34,cs),
(881,34,o),
(823,-6,o),
(823,-122,c),
(877,-122,l),
(877,-38,o),
(907,-16,o),
(942,-16,cs),
(971,-16,o),
(989,-37,o),
(989,-70,cs),
(989,-109,o),
(958,-170,o),
(846,-170,cs),
(777,-170,o),
(741,-125,o),
(741,-69,cs),
(741,-9,o),
(768,36,o),
(798,85,cs),
(835,146,o),
(875,213,o),
(875,322,cs),
(875,448,o),
(793,600,o),
(554,600,cs),
(387,600,o),
(176,522,o),
(176,297,cs),
(176,123,o),
(285,0,o),
(440,0,cs),
(532,0,o),
(631,66,o),
(631,171,cs),
(631,249,o),
(582,292,o),
(471,307,c),
(473,296,l),
(566,309,o),
(619,359,o),
(619,430,cs),
(619,495,o),
(561,564,o),
(390,564,c),
(380,521,l),
(479,521,o),
(529,488,o),
(529,429,cs),
(529,381,o),
(509,323,o),
(352,319,c),
(352,274,l),
(518,265,o),
(535,210,o),
(535,166,cs),
(535,109,o),
(496,66,o),
(423,66,cs),
(325,66,o),
(237,150,o),
(237,299,cs),
(237,495,o),
(420,549,o),
(548,549,cs),
(750,549,o),
(809,421,o),
(809,305,cs),
(809,214,o),
(777,157,o),
(743,100,cs),
(710,45,o),
(678,-12,o),
(678,-101,cs),
(678,-202,o),
(745,-270,o),
(834,-270,cs)
);
},
{
closed = 1;
nodes = (
(125,457,l),
(106,465,o),
(87,477,o),
(87,504,cs),
(87,543,o),
(136,573,o),
(200,573,cs),
(278,573,o),
(331,553,o),
(385,528,c),
(406,569,l),
(349,596,o),
(263,617,o),
(192,617,cs),
(68,617,o),
(10,552,o),
(10,488,cs),
(10,427,o),
(60,408,o),
(94,397,c)
);
}
);
width = 985;
}
);
},
{
glyphname = "ka_ra_vowelI-divesakuru";
lastChange = "2022-02-03 16:00:38 +0000";
layers = (
{
anchors = (
{
name = bottom;
pos = (1169,-171);
},
{
name = top;
pos = (1121,714);
},
{
name = topleft;
pos = (1025,633);
}
);
layerId = UUID0;
shapes = (
{
closed = 1;
nodes = (
(1263,22,o),
(1339,208,o),
(1339,385,cs),
(1339,571,o),
(1234,689,o),
(1059,689,cs),
(949,689,o),
(868,640,o),
(836,610,c),
(874,575,l),
(928,615,o),
(984,637,o),
(1064,637,cs),
(1206,637,o),
(1279,534,o),
(1279,377,cs),
(1279,219,o),
(1216,52,o),
(1152,-63,c),
(1189,-85,l)
);
},
{
ref = "ka_medra-divesakuru";
}
);
width = 1399;
}
);
},
{
glyphname = "ka_ssa-divesakuru";
lastChange = "2022-02-03 18:07:47 +0000";
layers = (
{
anchors = (
{
name = bottom;
pos = (929,-293);
},
{
name = halant;
pos = (1200,-14);
},
{
name = top;
pos = (925,590);
}
);
layerId = UUID0;
shapes = (
{
closed = 1;
nodes = (
(1138,-224,o),
(1234,-103,o),
(1234,18,cs),
(1234,102,o),
(1184,158,o),
(1108,218,cs),
(1059,257,o),
(1044,287,o),
(1044,324,cs),
(1044,361,o),
(1062,387,o),
(1098,387,cs),
(1133,387,o),
(1153,366,o),
(1153,328,cs),
(1153,288,o),
(1130,260,o),
(1081,219,cs),
(1022,169,o),
(961,107,o),
(961,35,cs),
(961,-52,o),
(1027,-84,o),
(1091,-84,cs),
(1124,-84,o),
(1156,-67,o),
(1170,-44,c),
(1176,17,l),
(1162,-18,o),
(1127,-24,o),
(1093,-24,cs),
(1054,-24,o),
(1023,-7,o),
(1023,42,cs),
(1023,104,o),
(1073,148,o),
(1123,192,cs),
(1176,239,o),
(1203,286,o),
(1203,335,cs),
(1203,400,o),
(1150,435,o),
(1100,435,cs),
(1036,435,o),
(991,390,o),
(991,326,cs),
(991,267,o),
(1023,227,o),
(1076,182,cs),
(1137,130,o),
(1170,84,o),
(1170,27,cs),
(1170,-44,o),
(1122,-132,o),
(962,-132,cs),
(833,-132,o),
(765,-82,o),
(765,18,cs),
(765,72,o),
(784,121,o),
(805,172,cs),
(827,225,o),
(848,280,o),
(848,345,cs),
(848,493,o),
(754,600,o),
(534,600,cs),
(387,600,o),
(176,522,o),
(176,297,cs),
(176,123,o),
(285,0,o),
(440,0,cs),
(532,0,o),
(631,66,o),
(631,171,cs),
(631,249,o),
(582,292,o),
(471,307,c),
(473,296,l),
(566,309,o),
(619,359,o),
(619,430,cs),
(619,495,o),
(561,564,o),
(390,564,c),
(380,521,l),
(479,521,o),
(529,488,o),
(529,429,cs),
(529,381,o),
(509,323,o),
(352,319,c),
(352,274,l),
(518,265,o),
(535,210,o),
(535,166,cs),
(535,109,o),
(496,66,o),
(423,66,cs),
(325,66,o),
(237,150,o),
(237,299,cs),
(237,495,o),
(420,549,o),
(528,549,cs),
(711,549,o),
(791,463,o),
(791,343,cs),
(791,275,o),
(771,225,o),
(748,174,cs),
(723,119,o),
(699,63,o),
(699,-20,cs),
(699,-153,o),
(794,-224,o),
(940,-224,cs)
);
},
{
closed = 1;
nodes = (
(125,457,l),
(106,465,o),
(87,477,o),
(87,504,cs),
(87,543,o),
(136,573,o),
(200,573,cs),
(278,573,o),
(331,553,o),
(385,528,c),
(406,569,l),
(349,596,o),
(263,617,o),
(192,617,cs),
(68,617,o),
(10,552,o),
(10,488,cs),
(10,427,o),
(60,408,o),
(94,397,c)
);
}
);
width = 1304;
}
);
},
{
glyphname = "ka_medra-divesakuru";
lastChange = "2022-02-03 16:01:04 +0000";
layers = (
{
anchors = (
{
name = bottom;
pos = (815,-308);
},
{
name = right;
pos = (1151,300);
},
{
name = top;
pos = (842,653);
},
{
name = topleft;
pos = (805,564);
},
{
name = topright;
pos = (887,495);
}
);
layerId = UUID0;
shapes = (
{
closed = 1;
nodes = (
(894,-422,o),
(1102,-121,o),
(1102,212,cs),
(1102,452,o),
(978,619,o),
(805,619,cs),
(747,619,o),
(708,602,o),
(675,570,c),
(712,539,l),
(731,555,o),
(763,568,o),
(801,568,cs),
(935,568,o),
(1040,425,o),
(1040,218,cs),
(1040,-135,o),
(804,-335,o),
(461,-335,cs),
(371,-335,o),
(299,-322,o),
(243,-304,c),
(219,-355,l),
(275,-393,o),
(366,-422,o),
(471,-422,cs)
);
},
{
ref = u1190C;
}
);
width = 1152;
}
);
},
{
glyphname = "ka_vowelU-divesakuru";
lastChange = "2022-02-03 17:09:40 +0000";
layers = (
{
anchors = (
{
name = bottom;
pos = (739,-15);
},
{
name = top;
pos = (691,714);
},
{
name = topleft;
pos = (534,551);
}
);
layerId = UUID0;
shapes = (
{
closed = 1;
nodes = (
(602,-245,l),
(540,-238,o),
(467,-218,o),
(467,-168,cs),
(467,-118,o),
(516,-92,o),
(627,-38,cs),
(781,37,o),
(875,150,o),
(875,320,cs),
(875,472,o),
(763,600,o),
(554,600,cs),
(387,600,o),
(176,522,o),
(176,297,cs),
(176,123,o),
(285,0,o),
(440,0,cs),
(532,0,o),
(631,66,o),
(631,171,cs),
(631,249,o),
(582,292,o),
(471,307,c),
(473,296,l),
(566,309,o),
(619,359,o),
(619,430,cs),
(619,495,o),
(561,564,o),
(390,564,c),
(380,521,l),
(479,521,o),
(529,488,o),
(529,429,cs),
(529,381,o),
(509,323,o),
(352,319,c),
(352,274,l),
(518,265,o),
(535,210,o),
(535,166,cs),
(535,109,o),
(496,66,o),
(423,66,cs),
(325,66,o),
(237,150,o),
(237,299,cs),
(237,495,o),
(420,549,o),
(548,549,cs),
(720,549,o),
(805,445,o),
(805,323,cs),
(805,176,o),
(746,81,o),
(567,-4,cs),
(468,-51,o),
(411,-101,o),
(411,-174,cs),
(411,-272,o),
(512,-301,o),
(591,-304,c)
);
},
{
closed = 1;
nodes = (
(125,457,l),
(106,465,o),
(87,477,o),
(87,504,cs),
(87,543,o),
(136,573,o),
(200,573,cs),
(278,573,o),
(331,553,o),
(385,528,c),
(406,569,l),
(349,596,o),
(263,617,o),
(192,617,cs),
(68,617,o),
(10,552,o),
(10,488,cs),
(10,427,o),
(60,408,o),
(94,397,c)
);
}
);
width = 925;
}
);
},
{
glyphname = "ka_vowelUU-divesakuru";
lastChange = "2022-02-03 17:10:25 +0000";
layers = (
{
anchors = (
{
name = bottom;
pos = (966,-353);
},
{
name = top;
pos = (962,536);
},
{
name = topleft;
pos = (534,551);
}
);
layerId = UUID0;
shapes = (
{
closed = 1;
nodes = (
(1051,-305,o),
(1092,-247,o),
(1092,-113,cs),
(1092,18,ls),
(1092,178,o),
(1060,207,o),
(906,207,cs),
(806,207,l),
(806,150,l),
(929,150,ls),
(1025,150,o),
(1032,123,o),
(1032,-6,cs),
(1032,-98,ls),
(1032,-193,o),
(1027,-246,o),
(966,-246,cs),
(905,-246,o),
(896,-193,o),
(896,-98,cs),
(896,25,l),
(840,25,l),
(840,-113,ls),
(840,-247,o),
(881,-305,o),
(966,-305,cs)
);
},
{
ref = "ka_vowelU-divesakuru";
}
);
width = 1182;
}
);
},
{
glyphname = "nga_ga-divesakuru";
lastChange = "2022-02-03 18:09:34 +0000";
layers = (
{
anchors = (
{
name = bottom;
pos = (539,-293);
},
{
name = halant;
pos = (615,187);
},
{
name = top;
pos = (565,590);
}
);
layerId = UUID0;
shapes = (
{
closed = 1;
nodes = (
(582,-273,o),
(746,-173,o),
(746,26,cs),
(746,147,o),
(672,218,o),
(565,218,cs),
(472,218,o),
(421,156,o),
(421,97,cs),
(421,74,o),
(425,52,o),
(432,40,c),
(460,57,l),
(361,57,ls),
(300,57,o),
(277,74,o),
(277,108,cs),
(277,150,o),
(312,172,o),
(369,197,cs),
(408,214,o),
(461,238,o),
(461,272,cs),
(461,323,o),
(379,340,o),
(307,344,c),
(308,335,l),
(378,342,o),
(482,390,o),
(482,462,cs),
(482,540,o),
(396,589,o),
(253,589,cs),
(110,589,o),
(28,545,o),
(28,459,cs),
(28,392,o),
(72,367,o),
(130,367,cs),
(183,367,o),
(229,392,o),
(229,458,cs),
(229,503,o),
(197,534,o),
(152,534,cs),
(143,534,o),
(130,533,o),
(123,532,c),
(147,517,l),
(168,526,o),
(199,537,o),
(249,537,cs),
(334,537,o),
(392,513,o),
(392,464,cs),
(392,396,o),
(304,361,o),
(211,357,c),
(211,315,l),
(304,312,o),
(369,301,o),
(369,268,cs),
(369,250,o),
(347,238,o),
(317,224,cs),
(242,188,o),
(199,152,o),
(199,95,cs),
(199,25,o),
(251,0,o),
(360,0,cs),
(511,0,l),
(496,28,o),
(482,61,o),
(482,95,cs),
(482,138,o),
(514,164,o),
(563,164,cs),
(645,164,o),
(685,108,o),
(685,24,cs),
(685,-146,o),
(534,-182,o),
(435,-182,cs),
(344,-182,o),
(279,-168,o),
(214,-147,c),
(195,-189,l),
(243,-242,o),
(335,-273,o),
(430,-273,cs)
);
},
{
closed = 1;
nodes = (
(94,408,o),
(78,429,o),
(78,459,cs),
(78,494,o),
(94,507,o),
(129,507,cs),
(165,507,o),
(180,483,o),
(180,459,cs),
(180,425,o),
(160,408,o),
(130,408,cs)
);
}
);
width = 786;
}
);
},
{
glyphname = "tta_tta-divesakuru";
lastChange = "2022-01-28 16:15:27 +0000";
layers = (
{
anchors = (
{
name = bottom;
pos = (670,-38);
},
{
name = top;
pos = (671,590);
}
);
layerId = UUID0;
shapes = (
{
closed = 1;
nodes = (
(80,450,l),
(87,483,l),
(82,490,l),
(85,497,o),
(87,514,o),
(87,531,cs),
(87,591,l),
(30,591,l),
(30,450,l)
);
},
{
closed = 1;
nodes = (
(484,-10,o),
(573,170,o),
(573,292,cs),
(573,317,o),
(572,336,o),
(568,359,c),
(514,357,l),
(517,339,o),
(519,318,o),
(519,294,cs),
(519,202,o),
(442,92,o),
(309,92,cs),
(216,92,o),
(166,125,o),
(156,187,c),
(142,172,l),
(269,240,o),
(382,334,o),
(382,471,cs),
(382,544,o),
(335,591,o),
(257,591,cs),
(178,591,o),
(103,539,o),
(56,473,c),
(80,450,l),
(141,494,o),
(190,517,o),
(244,517,cs),
(291,517,o),
(321,495,o),
(321,449,cs),
(321,375,o),
(256,285,o),
(101,216,c),
(102,204,ls),
(114,58,o),
(181,-10,o),
(300,-10,cs)
);
},
{
closed = 1;
nodes = (
(511,84,o),
(578,-10,o),
(688,-10,cs),
(819,-10,o),
(917,105,o),
(917,283,cs),
(917,299,o),
(915,316,o),
(912,330,c),
(859,327,l),
(862,306,o),
(863,295,o),
(863,282,cs),
(863,142,o),
(795,92,o),
(700,92,cs),
(598,92,o),
(561,147,o),
(561,219,c),
(511,219,l)
);
}
);
width = 957;
}
);
},
{
glyphname = "tta_va-divesakuru";
lastChange = "2022-02-03 18:09:49 +0000";
layers = (
{
anchors = (
{
name = bottom;
pos = (889,-293);
},
{
name = halant;
pos = (907,-4);
},
{
name = right;
pos = (1148,300);
},
{
name = top;
pos = (915,590);
}
);
layerId = UUID0;
shapes = (
{
closed = 1;
nodes = (
(1038,-270,o),
(1112,-161,o),
(1112,-66,cs),
(1112,-10,o),
(1081,55,o),
(996,55,cs),
(961,55,o),
(924,41,o),
(894,23,c),
(919,-21,l),
(948,-6,o),
(969,1,o),
(994,1,cs),
(1032,1,o),
(1059,-22,o),
(1059,-58,cs),
(1059,-119,o),
(1002,-168,o),
(890,-168,cs),
(781,-168,o),
(720,-121,o),
(720,-51,cs),
(720,1,o),
(745,32,o),
(791,70,cs),
(864,131,o),
(931,198,o),
(931,293,cs),
(931,371,o),
(889,442,o),
(759,442,cs),
(674,442,o),
(619,400,o),
(619,343,cs),
(619,306,o),
(633,282,o),
(633,242,cs),
(633,165,o),
(535,92,o),
(397,92,cs),
(224,92,o),
(157,147,o),
(157,209,c),
(143,194,l),
(260,252,o),
(407,334,o),
(407,471,cs),
(407,544,o),
(355,591,o),
(259,591,cs),
(178,591,o),
(101,539,o),
(54,473,c),
(78,450,l),
(139,494,o),
(190,517,o),
(254,517,cs),
(311,517,o),
(346,495,o),
(346,449,cs),
(346,375,o),
(247,300,o),
(102,241,c),
(102,229,ls),
(102,84,o),
(204,-10,o),
(385,-10,cs),
(559,-10,o),
(684,128,o),
(684,230,cs),
(684,265,o),
(674,283,o),
(674,322,cs),
(674,352,o),
(698,383,o),
(759,383,cs),
(836,383,o),
(876,349,o),
(876,285,cs),
(876,214,o),
(827,163,o),
(771,117,cs),
(690,50,o),
(654,-6,o),
(654,-71,cs),
(654,-198,o),
(749,-270,o),
(878,-270,cs)
);
},
{
closed = 1;
nodes = (
(78,450,l),
(85,483,l),
(80,490,l),
(83,497,o),
(85,514,o),
(85,531,cs),
(85,591,l),
(28,591,l),
(28,450,l)
);
}
);
width = 1077;
}
);
},
{
glyphname = "nna_dda-divesakuru";
lastChange = "2022-01-28 16:15:27 +0000";
layers = (
{
anchors = (
{
name = bottom;
pos = (769,-38);
},
{
name = top;
pos = (795,590);
}
);
layerId = UUID0;
shapes = (
{
closed = 1;
nodes = (
(634,-10,o),
(691,59,o),
(714,129,c),
(743,44,o),
(795,-10,o),
(893,-10,cs),
(1006,-10,o),
(1077,58,o),
(1077,178,cs),
(1077,270,o),
(1024,338,o),
(954,373,c),
(927,329,l),
(997,289,o),
(1014,240,o),
(1014,192,cs),
(1014,129,o),
(969,95,o),
(879,95,cs),
(808,95,o),
(748,131,o),
(741,204,c),
(688,204,l),
(673,147,o),
(641,95,o),
(531,95,cs),
(473,95,o),
(437,119,o),
(437,163,cs),
(437,189,o),
(448,219,o),
(513,261,cs),
(587,309,o),
(650,360,o),
(650,455,cs),
(650,526,o),
(600,586,o),
(513,586,cs),
(411,586,o),
(375,513,o),
(356,456,c),
(337,513,o),
(297,586,o),
(200,586,cs),
(111,586,o),
(34,510,o),
(34,400,cs),
(34,300,o),
(81,247,o),
(148,247,cs),
(210,247,o),
(248,287,o),
(248,346,cs),
(248,396,o),
(221,440,o),
(154,440,cs),
(104,440,o),
(77,406,o),
(77,368,cs),
(77,358,o),
(78,342,o),
(80,334,c),
(91,361,l),
(85,380,o),
(84,390,o),
(84,402,cs),
(84,452,o),
(127,500,o),
(200,500,cs),
(282,500,o),
(319,452,o),
(330,376,c),
(383,376,l),
(394,452,o),
(428,500,o),
(506,500,cs),
(555,500,o),
(584,471,o),
(584,430,cs),
(584,379,o),
(541,336,o),
(484,301,cs),
(413,258,o),
(371,204,o),
(371,141,cs),
(371,42,o),
(441,-10,o),
(533,-10,cs)
);
},
{
closed = 1;
nodes = (
(115,295,o),
(98,307,o),
(98,343,cs),
(98,374,o),
(115,393,o),
(150,393,cs),
(186,393,o),
(202,375,o),
(202,345,cs),
(202,310,o),
(182,295,o),
(150,295,cs)
);
}
);
width = 1117;
}
);
},
{
glyphname = "ta_tha-divesakuru";
lastChange = "2022-02-03 18:10:33 +0000";
layers = (
{
anchors = (
{
name = bottom;
pos = (689,-293);
},
{
name = halant;
pos = (774,-9);
},
{
name = right;
pos = (938,300);
},
{
name = top;
pos = (695,590);
}
);
layerId = UUID0;
shapes = (
{
closed = 1;
nodes = (
(785,-270,o),
(873,-160,o),
(873,-59,cs),
(873,-10,o),
(849,47,o),
(772,47,cs),
(712,47,o),
(654,7,o),
(654,-109,c),
(708,-109,l),
(708,-25,o),
(738,-3,o),
(773,-3,cs),
(802,-3,o),
(820,-24,o),
(820,-57,cs),
(820,-102,o),
(789,-170,o),
(657,-170,cs),
(568,-170,o),
(532,-125,o),
(532,-69,cs),
(532,-11,o),
(550,31,o),
(568,72,cs),
(586,113,o),
(603,155,o),
(603,213,cs),
(603,286,o),
(555,369,o),
(422,369,cs),
(216,369,o),
(63,273,o),
(63,130,cs),
(63,36,o),
(123,-10,o),
(214,-10,cs),
(352,-10,o),
(452,119,o),
(452,319,cs),
(452,496,o),
(362,589,o),
(239,589,cs),
(122,589,o),
(50,507,o),
(40,403,c),
(91,395,l),
(105,436,o),
(149,502,o),
(236,502,cs),
(313,502,o),
(392,450,o),
(392,304,cs),
(392,147,o),
(316,46,o),
(216,46,cs),
(160,46,o),
(134,77,o),
(134,136,cs),
(134,246,o),
(250,313,o),
(426,313,cs),
(508,313,o),
(547,273,o),
(547,205,cs),
(547,151,o),
(530,109,o),
(511,66,cs),
(490,18,o),
(469,-31,o),
(469,-101,cs),
(469,-202,o),
(536,-270,o),
(645,-270,cs)
);
}
);
width = 838;
}
);
},
{
glyphname = "ta_medya-divesakuru";
lastChange = "2022-02-03 16:39:14 +0000";
layers = (
{
anchors = (
{
name = bottom;
pos = (995,-208);
},
{
name = right;
pos = (1281,300);
},
{
name = top;
pos = (846,536);
},
{
name = topleft;
pos = (815,292);
},
{
name = topright;
pos = (1016,495);
}
);
layerId = UUID0;
shapes = (
{
closed = 1;
nodes = (
(487,-271,o),
(727,-145,o),
(727,122,cs),
(727,269,o),
(628,369,o),
(465,369,cs),
(259,369,o),
(106,273,o),
(106,130,cs),
(106,36,o),
(166,-10,o),
(257,-10,cs),
(395,-10,o),
(495,119,o),
(495,319,cs),
(495,496,o),
(405,589,o),
(282,589,cs),
(165,589,o),
(93,507,o),
(83,403,c),
(134,395,l),
(148,436,o),
(192,502,o),
(279,502,cs),
(356,502,o),
(435,450,o),
(435,304,cs),
(435,147,o),
(359,46,o),
(259,46,cs),
(203,46,o),
(176,77,o),
(176,136,cs),
(176,246,o),
(293,315,o),
(469,315,cs),
(601,315,o),
(667,230,o),
(667,120,cs),
(667,-118,o),
(439,-180,o),
(281,-180,cs),
(180,-180,o),
(109,-166,o),
(54,-145,c),
(40,-192,l),
(87,-235,o),
(181,-271,o),
(286,-271,cs)
);
},
{
closed = 1;
nodes = (
(903,-103,o),
(1015,18,o),
(1015,148,cs),
(1015,311,o),
(885,334,o),
(797,334,cs),
(738,334,o),
(697,326,o),
(633,312,c),
(650,273,l),
(705,282,o),
(748,286,o),
(782,286,cs),
(864,286,o),
(945,265,o),
(945,140,cs),
(945,29,o),
(856,-73,o),
(724,-196,c),
(764,-223,l)
);
},
{
closed = 1;
nodes = (
(1014,-237,o),
(1244,-71,o),
(1244,181,cs),
(1244,229,o),
(1232,276,o),
(1216,296,c),
(1169,288,l),
(1176,262,o),
(1180,228,o),
(1180,206,cs),
(1180,-107,o),
(915,-196,o),
(724,-196,c),
(724,-237,l)
);
}
);
width = 1284;
}
);
},
{
glyphname = "da_medya-divesakuru";
lastChange = "2022-02-03 16:39:36 +0000";
layers = (
{
anchors = (
{
name = bottom;
pos = (775,-208);
},
{
name = right;
pos = (1031,300);
},
{
name = top;
pos = (627,536);
},
{
name = topleft;
pos = (625,252);
},
{
name = topright;
pos = (766,495);
}
);
layerId = UUID0;
shapes = (
{
closed = 1;
nodes = (
(410,-11,o),
(506,74,o),
(506,161,cs),
(506,265,o),
(425,286,o),
(267,291,cs),
(210,293,o),
(185,302,o),
(185,327,cs),
(185,360,o),
(227,365,o),
(310,368,cs),
(415,372,o),
(502,394,o),
(502,479,cs),
(502,550,o),
(422,589,o),
(252,589,cs),
(177,589,o),
(106,580,o),
(67,568,c),
(83,520,l),
(127,529,o),
(178,537,o),
(259,537,cs),
(344,537,o),
(412,527,o),
(412,476,cs),
(412,430,o),
(374,423,o),
(274,416,cs),
(210,412,o),
(128,398,o),
(128,321,cs),
(128,247,o),
(206,242,o),
(278,240,cs),
(347,238,o),
(414,226,o),
(414,162,cs),
(414,86,o),
(344,45,o),
(205,45,cs),
(153,45,o),
(113,51,o),
(47,63,c),
(36,11,l),
(94,-5,o),
(150,-11,o),
(218,-11,cs)
);
},
{
closed = 1;
nodes = (
(653,-143,o),
(765,-22,o),
(765,118,cs),
(765,261,o),
(653,294,o),
(567,294,cs),
(508,294,o),
(467,286,o),
(403,272,c),
(420,233,l),
(475,242,o),
(518,246,o),
(552,246,cs),
(631,246,o),
(695,216,o),
(695,110,cs),
(695,-11,o),
(606,-113,o),
(474,-236,c),
(514,-263,l)
);
},
{
closed = 1;
nodes = (
(784,-277,o),
(994,-71,o),
(994,161,cs),
(994,209,o),
(982,256,o),
(966,276,c),
(919,268,l),
(926,242,o),
(930,208,o),
(930,186,cs),
(930,-107,o),
(685,-236,o),
(474,-236,c),
(474,-277,l)
);
}
);
width = 1034;
}
);
},
{
glyphname = "da_vowelU-divesakuru";
lastChange = "2022-02-03 17:10:57 +0000";
layers = (
{
anchors = (
{
name = bottom;
pos = (676,-353);
},
{
name = top;
pos = (672,536);
},
{
name = topleft;
pos = (635,199);
}
);
layerId = UUID0;
shapes = (
{
closed = 1;
nodes = (
(410,-11,o),
(506,74,o),
(506,161,cs),
(506,265,o),
(425,286,o),
(267,291,cs),
(210,293,o),
(185,302,o),
(185,327,cs),
(185,360,o),
(227,365,o),
(310,368,cs),
(415,372,o),
(502,394,o),
(502,479,cs),
(502,550,o),
(422,589,o),
(252,589,cs),
(177,589,o),
(106,580,o),
(67,568,c),
(83,520,l),
(127,529,o),
(178,537,o),
(259,537,cs),
(337,537,o),
(402,527,o),
(402,476,cs),
(402,432,o),
(369,422,o),
(274,416,cs),
(210,412,o),
(128,398,o),
(128,321,cs),
(128,247,o),
(206,242,o),
(278,240,cs),
(344,238,o),
(404,223,o),
(404,162,cs),
(404,89,o),
(340,45,o),
(205,45,cs),
(153,45,o),
(113,51,o),
(47,63,c),
(36,11,l),
(94,-5,o),
(150,-11,o),
(218,-11,cs)
);
},
{
closed = 1;
nodes = (
(761,-305,o),
(802,-247,o),
(802,-113,cs),
(802,48,ls),
(802,208,o),
(770,237,o),
(616,237,cs),
(446,237,l),
(446,180,l),
(639,180,ls),
(735,180,o),
(742,153,o),
(742,24,cs),
(742,-98,ls),
(742,-193,o),
(737,-246,o),
(676,-246,cs),
(615,-246,o),
(606,-193,o),
(606,-98,cs),
(606,55,l),
(550,55,l),
(550,-113,ls),
(550,-247,o),
(591,-305,o),
(676,-305,cs)
);
}
);
width = 892;
}
);
},
{
glyphname = "dha_medya-divesakuru";
lastChange = "2022-02-03 16:43:32 +0000";
layers = (
{
anchors = (
{
name = bottom;
pos = (1115,-98);
},
{
name = right;
pos = (1403,300);
},
{
name = top;
pos = (1019,536);
},
{
name = topleft;
pos = (953,401);
},
{
name = topright;
pos = (1138,495);
}
);
layerId = UUID0;
shapes = (
{
closed = 1;
nodes = (
(559,-10,o),
(664,113,o),
(664,214,cs),
(664,282,o),
(623,334,o),
(548,334,cs),
(494,334,o),
(435,295,o),
(435,207,cs),
(435,115,o),
(539,-10,o),
(682,-10,cs),
(843,-10,o),
(909,105,o),
(909,247,cs),
(909,305,o),
(898,354,o),
(874,400,c),
(828,389,l),
(846,335,o),
(852,295,o),
(852,254,cs),
(852,127,o),
(786,82,o),
(667,82,cs),
(566,82,o),
(488,125,o),
(488,206,cs),
(488,251,o),
(509,276,o),
(547,276,cs),
(581,276,o),
(605,251,o),
(605,212,cs),
(605,137,o),
(544,85,o),
(401,85,cs),
(309,85,o),
(259,108,o),
(259,165,cs),
(259,217,o),
(295,258,o),
(342,301,cs),
(389,344,o),
(435,387,o),
(435,461,cs),
(435,534,o),
(376,589,o),
(255,589,cs),
(125,589,o),
(40,528,o),
(40,450,cs),
(40,377,o),
(89,337,o),
(157,337,cs),
(221,337,o),
(276,367,o),
(276,446,cs),
(276,501,o),
(238,538,o),
(183,538,cs),
(173,538,o),
(157,537,o),
(149,535,c),
(159,517,l),
(180,526,o),
(211,537,o),
(261,537,cs),
(323,537,o),
(375,512,o),
(375,459,cs),
(375,396,o),
(335,359,o),
(293,321,cs),
(243,275,o),
(193,228,o),
(193,149,cs),
(193,24,o),
(294,-10,o),
(390,-10,cs)
);
},
{
closed = 1;
nodes = (
(116,388,o),
(97,413,o),
(97,449,cs),
(97,484,o),
(123,506,o),
(158,506,cs),
(202,506,o),
(219,478,o),
(219,449,cs),
(219,408,o),
(196,388,o),
(159,388,cs)
);
},
{
closed = 1;
nodes = (
(1023,7,o),
(1135,128,o),
(1135,268,cs),
(1135,411,o),
(1013,444,o),
(947,444,cs),
(905,444,o),
(862,439,o),
(814,422,c),
(830,383,l),
(869,393,o),
(895,396,o),
(927,396,cs),
(989,396,o),
(1065,374,o),
(1065,260,cs),
(1065,139,o),
(976,37,o),
(844,-86,c),
(884,-113,l)
);
},
{
closed = 1;
nodes = (
(1134,-127,o),
(1364,29,o),
(1364,214,cs),
(1364,253,o),
(1352,283,o),
(1339,306,c),
(1292,298,l),
(1297,271,o),
(1300,249,o),
(1300,226,cs),
(1300,-6,o),
(1029,-86,o),
(844,-86,c),
(844,-127,l)
);
}
);
width = 1404;
}
);
},
{
glyphname = "dha_vowelI-divesakuru";
lastChange = "2022-02-03 17:11:15 +0000";
layers = (
{
anchors = (
{
name = bottom;
pos = (1019,-38);
},
{
name = top;
pos = (971,714);
},
{
name = topleft;
pos = (932,622);
}
);
layerId = UUID0;
shapes = (
{
closed = 1;
nodes = (
(1132,82,o),
(1211,238,o),
(1211,395,cs),
(1211,571,o),
(1116,689,o),
(967,689,cs),
(838,689,o),
(790,611,o),
(790,535,cs),
(790,482,o),
(803,442,o),
(819,401,cs),
(836,357,o),
(852,311,o),
(852,245,cs),
(852,128,o),
(786,82,o),
(667,82,cs),
(566,82,o),
(488,125,o),
(488,206,cs),
(488,251,o),
(509,276,o),
(547,276,cs),
(581,276,o),
(605,251,o),
(605,212,cs),
(605,137,o),
(544,85,o),
(401,85,cs),
(309,85,o),
(259,108,o),
(259,165,cs),
(259,217,o),
(295,258,o),
(342,301,cs),
(389,344,o),
(435,387,o),
(435,461,cs),
(435,534,o),
(376,589,o),
(255,589,cs),
(125,589,o),
(40,528,o),
(40,450,cs),
(40,377,o),
(89,337,o),
(157,337,cs),
(221,337,o),
(276,367,o),
(276,446,cs),
(276,501,o),
(238,538,o),
(183,538,cs),
(173,538,o),
(157,537,o),
(149,535,c),
(159,517,l),
(180,526,o),
(211,537,o),
(261,537,cs),
(323,537,o),
(375,512,o),
(375,459,cs),
(375,396,o),
(335,359,o),
(293,321,cs),
(243,275,o),
(193,228,o),
(193,149,cs),
(193,24,o),
(294,-10,o),
(390,-10,cs),
(559,-10,o),
(664,113,o),
(664,214,cs),
(664,282,o),
(623,334,o),
(548,334,cs),
(494,334,o),
(435,295,o),
(435,207,cs),
(435,115,o),
(539,-10,o),
(682,-10,cs),
(843,-10,o),
(909,105,o),
(909,237,cs),
(909,306,o),
(891,357,o),
(873,406,cs),
(857,449,o),
(844,490,o),
(844,540,cs),
(844,592,o),
(876,637,o),
(968,637,cs),
(1084,637,o),
(1151,534,o),
(1151,387,cs),
(1151,249,o),
(1085,112,o),
(1004,19,c),
(1036,-12,l)
);
},
{
closed = 1;
nodes = (
(116,388,o),
(97,413,o),
(97,449,cs),
(97,484,o),
(123,506,o),
(158,506,cs),
(202,506,o),
(219,478,o),
(219,449,cs),
(219,408,o),
(196,388,o),
(159,388,cs)
);
}
);
width = 1286;
}
);
},
{
glyphname = "dha_vowelII-divesakuru";
lastChange = "2022-02-03 17:11:22 +0000";
layers = (
{
anchors = (
{
name = bottom;
pos = (1119,-138);
},
{
name = top;
pos = (1071,714);
},
{
name = topleft;
pos = (1035,662);
}
);
layerId = UUID0;
shapes = (
{
closed = 1;
nodes = (
(1201,-93,o),
(1349,36,o),
(1349,215,cs),
(1349,349,o),
(1257,444,o),
(1138,444,cs),
(1069,444,o),
(1019,398,o),
(1019,333,cs),
(1019,289,o),
(1055,244,o),
(1126,244,cs),
(1207,244,o),
(1310,310,o),
(1310,469,cs),
(1310,628,o),
(1201,713,o),
(1032,713,cs),
(838,713,o),
(790,591,o),
(790,515,cs),
(790,468,o),
(802,434,o),
(818,398,cs),
(836,358,o),
(852,313,o),
(852,245,cs),
(852,128,o),
(786,82,o),
(667,82,cs),
(566,82,o),
(488,125,o),
(488,206,cs),
(488,251,o),
(509,276,o),
(547,276,cs),
(581,276,o),
(605,251,o),
(605,212,cs),
(605,137,o),
(544,85,o),
(401,85,cs),
(309,85,o),
(259,108,o),
(259,165,cs),
(259,217,o),
(295,258,o),
(342,301,cs),
(389,344,o),
(435,387,o),
(435,461,cs),
(435,534,o),
(376,589,o),
(255,589,cs),
(125,589,o),
(40,528,o),
(40,450,cs),
(40,377,o),
(89,337,o),
(157,337,cs),
(221,337,o),
(276,367,o),
(276,446,cs),
(276,501,o),
(238,538,o),
(183,538,cs),
(173,538,o),
(157,537,o),
(149,535,c),
(159,517,l),
(180,526,o),
(211,537,o),
(261,537,cs),
(323,537,o),
(375,512,o),
(375,459,cs),
(375,396,o),
(335,359,o),
(293,321,cs),
(243,275,o),
(193,228,o),
(193,149,cs),
(193,24,o),
(294,-10,o),
(390,-10,cs),
(559,-10,o),
(664,113,o),
(664,214,cs),
(664,282,o),
(623,334,o),
(548,334,cs),
(494,334,o),
(435,295,o),
(435,207,cs),
(435,115,o),
(539,-10,o),
(682,-10,cs),
(843,-10,o),
(909,105,o),
(909,237,cs),
(909,307,o),
(890,356,o),
(872,401,cs),
(857,438,o),
(844,475,o),
(844,520,cs),
(844,572,o),
(876,661,o),
(1037,661,cs),
(1173,661,o),
(1256,591,o),
(1256,467,cs),
(1256,342,o),
(1185,295,o),
(1129,295,cs),
(1087,295,o),
(1071,319,o),
(1071,343,cs),
(1071,368,o),
(1087,401,o),
(1138,401,cs),
(1236,401,o),
(1290,318,o),
(1290,227,cs),
(1290,78,o),
(1144,-16,o),
(984,-69,c),
(995,-121,l)
);
},
{
closed = 1;
nodes = (
(116,388,o),
(97,413,o),
(97,449,cs),
(97,484,o),
(123,506,o),
(158,506,cs),
(202,506,o),
(219,478,o),
(219,449,cs),
(219,408,o),
(196,388,o),
(159,388,cs)
);
}
);
width = 1424;
}
);
},
{
glyphname = "dha_vowelU-divesakuru";
lastChange = "2022-02-03 17:11:36 +0000";
layers = (
{
anchors = (
{
name = bottom;
pos = (1117,-273);
},
{
name = top;
pos = (1092,536);
},
{
name = topleft;
pos = (1046,367);
}
);
layerId = UUID0;
shapes = (
{
closed = 1;
nodes = (
(1204,-235,o),
(1245,-177,o),
(1245,-43,cs),
(1245,218,ls),
(1245,378,o),
(1213,407,o),
(1059,407,cs),
(819,407,l),
(846,335,o),
(852,295,o),
(852,254,cs),
(852,127,o),
(786,82,o),
(667,82,cs),
(566,82,o),
(488,125,o),
(488,206,cs),
(488,251,o),
(509,276,o),
(547,276,cs),
(581,276,o),
(605,251,o),
(605,212,cs),
(605,137,o),
(544,85,o),
(401,85,cs),
(309,85,o),
(259,108,o),
(259,165,cs),
(259,217,o),
(295,258,o),
(342,301,cs),
(389,344,o),
(435,387,o),
(435,461,cs),
(435,534,o),
(376,589,o),
(255,589,cs),
(125,589,o),
(40,528,o),
(40,450,cs),
(40,377,o),
(89,337,o),
(157,337,cs),
(221,337,o),
(276,367,o),
(276,446,cs),
(276,501,o),
(238,538,o),
(183,538,cs),
(173,538,o),
(157,537,o),
(149,535,c),
(159,517,l),
(180,526,o),
(211,537,o),
(261,537,cs),
(323,537,o),
(375,512,o),
(375,459,cs),
(375,396,o),
(335,359,o),
(293,321,cs),
(243,275,o),
(193,228,o),
(193,149,cs),
(193,24,o),
(294,-10,o),
(390,-10,cs),
(559,-10,o),
(664,113,o),
(664,214,cs),
(664,282,o),
(623,334,o),
(548,334,cs),
(494,334,o),
(435,295,o),
(435,207,cs),
(435,115,o),
(539,-10,o),
(682,-10,cs),
(843,-10,o),
(909,105,o),
(909,247,cs),
(909,305,o),
(898,354,o),
(874,400,c),
(847,350,l),
(1082,350,ls),
(1178,350,o),
(1185,323,o),
(1185,194,cs),
(1185,-28,ls),
(1185,-123,o),
(1180,-176,o),
(1119,-176,cs),
(1058,-176,o),
(1049,-123,o),
(1049,-28,cs),
(1049,225,l),
(993,225,l),
(993,-43,ls),
(993,-177,o),
(1034,-235,o),
(1119,-235,cs)
);
},
{
closed = 1;
nodes = (
(116,388,o),
(97,413,o),
(97,449,cs),
(97,484,o),
(123,506,o),
(158,506,cs),
(202,506,o),
(219,478,o),
(219,449,cs),
(219,408,o),
(196,388,o),
(159,388,cs)
);
}
);
width = 1335;
}
);
},
{
glyphname = "na_ta_medra-divesakuru";
lastChange = "2022-02-03 16:07:02 +0000";
layers = (
{
anchors = (
{
name = bottom;
pos = (1229,-492);
},
{
name = top;
pos = (1435,590);
},
{
name = topleft;
pos = (1405,264);
}
);
layerId = UUID0;
shapes = (
{
closed = 1;
nodes = (
(1256,-492,o),
(1542,-258,o),
(1542,82,cs),
(1542,222,o),
(1465,307,o),
(1370,307,cs),
(1331,307,o),
(1306,296,o),
(1274,268,c),
(1311,237,l),
(1328,251,o),
(1343,256,o),
(1364,256,cs),
(1432,256,o),
(1482,195,o),
(1482,88,cs),
(1482,-245,o),
(1133,-407,o),
(774,-407,cs),
(557,-407,o),
(370,-363,o),
(223,-291,c),
(199,-339,l),
(340,-434,o),
(530,-492,o),
(771,-492,cs)
);
},
{
ref = u1191F;
},
{
pos = (636,0);
ref = u1191B;
}
);
width = 1582;
}
);
},
{
glyphname = "na_tha-divesakuru";
lastChange = "2022-02-03 18:10:59 +0000";
layers = (
{
anchors = (
{
name = bottom;
pos = (689,-38);
},
{
name = halant;
pos = (797,246);
},
{
name = top;
pos = (715,590);
}
);
layerId = UUID0;
shapes = (
{
closed = 1;
nodes = (
(794,-10,o),
(887,100,o),
(887,201,cs),
(887,250,o),
(863,307,o),
(786,307,cs),
(726,307,o),
(668,267,o),
(668,151,c),
(722,151,l),
(722,235,o),
(752,257,o),
(787,257,cs),
(816,257,o),
(834,236,o),
(834,203,cs),
(834,158,o),
(803,90,o),
(631,90,cs),
(494,90,o),
(438,139,o),
(438,201,c),
(424,176,l),
(541,263,o),
(619,328,o),
(619,443,cs),
(619,529,o),
(572,586,o),
(480,586,cs),
(389,586,o),
(342,514,o),
(323,447,c),
(304,514,o),
(258,586,o),
(177,586,cs),
(76,586,o),
(25,510,o),
(25,416,cs),
(25,371,o),
(42,323,o),
(60,296,c),
(106,309,l),
(95,334,o),
(86,364,o),
(86,396,cs),
(86,469,o),
(130,499,o),
(178,499,cs),
(248,499,o),
(286,438,o),
(296,367,c),
(349,367,l),
(359,438,o),
(397,499,o),
(470,499,cs),
(529,499,o),
(557,466,o),
(557,423,cs),
(557,369,o),
(532,309,o),
(387,211,c),
(387,199,ls),
(387,84,o),
(469,-10,o),
(614,-10,cs)
);
}
);
width = 927;
}
);
},
{
glyphname = "na_dha-divesakuru";
lastChange = "2022-01-28 16:15:27 +0000";
layers = (
{
anchors = (
{
name = bottom;
pos = (799,-38);
},
{
name = top;
pos = (825,590);
}
);
layerId = UUID0;
shapes = (
{
closed = 1;
nodes = (
(783,-10,o),
(889,113,o),
(889,214,cs),
(889,282,o),
(848,334,o),
(773,334,cs),
(719,334,o),
(660,295,o),
(660,207,cs),
(660,115,o),
(764,-10,o),
(907,-10,cs),
(1068,-10,o),
(1134,105,o),
(1134,247,cs),
(1134,305,o),
(1123,354,o),
(1105,389,c),
(1059,378,l),
(1071,335,o),
(1077,295,o),
(1077,254,cs),
(1077,127,o),
(1011,82,o),
(892,82,cs),
(791,82,o),
(713,125,o),
(713,206,cs),
(713,251,o),
(734,276,o),
(772,276,cs),
(806,276,o),
(828,251,o),
(828,212,cs),
(828,137,o),
(769,85,o),
(626,85,cs),
(496,85,o),
(438,139,o),
(438,201,c),
(424,176,l),
(541,263,o),
(619,328,o),
(619,443,cs),
(619,529,o),
(572,586,o),
(480,586,cs),
(389,586,o),
(342,514,o),
(323,447,c),
(304,514,o),
(258,586,o),
(177,586,cs),
(76,586,o),
(25,510,o),
(25,416,cs),
(25,371,o),
(42,323,o),
(60,296,c),
(106,309,l),
(95,334,o),
(86,364,o),
(86,396,cs),
(86,469,o),
(130,499,o),
(178,499,cs),
(248,499,o),
(286,438,o),
(296,367,c),
(349,367,l),
(359,438,o),
(397,499,o),
(470,499,cs),
(529,499,o),
(557,466,o),
(557,423,cs),
(557,369,o),
(532,309,o),
(387,211,c),
(387,199,ls),
(387,84,o),
(471,-10,o),
(614,-10,cs)
);
}
);
width = 1174;
}
);
},
{
glyphname = "na_dha_vowelI-divesakuru";
lastChange = "2022-02-03 17:11:49 +0000";
layers = (
{
anchors = (
{
name = bottom;
pos = (1240,-38);
},
{
name = top;
pos = (1192,714);
},
{
name = topleft;
pos = (1157,622);
}
);
layerId = UUID0;
shapes = (
{
closed = 1;
nodes = (
(1357,82,o),
(1436,238,o),
(1436,395,cs),
(1436,571,o),
(1341,689,o),
(1192,689,cs),
(1063,689,o),
(1015,611,o),
(1015,535,cs),
(1015,482,o),
(1028,442,o),
(1044,401,cs),
(1061,357,o),
(1077,311,o),
(1077,245,cs),
(1077,128,o),
(1011,82,o),
(892,82,cs),
(791,82,o),
(713,125,o),
(713,206,cs),
(713,251,o),
(734,276,o),
(772,276,cs),
(806,276,o),
(828,251,o),
(828,212,cs),
(828,137,o),
(769,85,o),
(626,85,cs),
(496,85,o),
(438,139,o),
(438,201,c),
(424,176,l),
(541,263,o),
(619,328,o),
(619,443,cs),
(619,529,o),
(572,586,o),
(480,586,cs),
(389,586,o),
(342,514,o),
(323,447,c),
(304,514,o),
(258,586,o),
(177,586,cs),
(76,586,o),
(25,510,o),
(25,416,cs),
(25,371,o),
(42,323,o),
(60,296,c),
(106,309,l),
(95,334,o),
(86,364,o),
(86,396,cs),
(86,469,o),
(130,499,o),
(178,499,cs),
(248,499,o),
(286,438,o),
(296,367,c),
(349,367,l),
(359,438,o),
(397,499,o),
(470,499,cs),
(529,499,o),
(557,466,o),
(557,423,cs),
(557,369,o),
(532,309,o),
(387,211,c),
(387,199,ls),
(387,84,o),
(471,-10,o),
(614,-10,cs),
(783,-10,o),
(889,113,o),
(889,214,cs),
(889,282,o),
(848,334,o),
(773,334,cs),
(719,334,o),
(660,295,o),
(660,207,cs),
(660,115,o),
(764,-10,o),
(907,-10,cs),
(1068,-10,o),
(1134,105,o),
(1134,237,cs),
(1134,306,o),
(1116,357,o),
(1098,406,cs),
(1082,449,o),
(1069,490,o),
(1069,540,cs),
(1069,592,o),
(1101,637,o),
(1193,637,cs),
(1309,637,o),
(1376,534,o),
(1376,387,cs),
(1376,249,o),
(1310,112,o),
(1229,19,c),
(1261,-12,l)
);
}
);
width = 1511;
}
);
},
{
glyphname = "na_dha_vowelII-divesakuru";
lastChange = "2022-02-03 17:11:58 +0000";
layers = (
{
anchors = (
{
name = bottom;
pos = (1346,-138);
},
{
name = top;
pos = (1298,714);
},
{
name = topleft;
pos = (1225,655);
}
);
layerId = UUID0;
shapes = (
{
closed = 1;
nodes = (
(1426,-93,o),
(1574,36,o),
(1574,215,cs),
(1574,349,o),
(1482,444,o),
(1363,444,cs),
(1294,444,o),
(1244,398,o),
(1244,333,cs),
(1244,289,o),
(1280,244,o),
(1351,244,cs),
(1432,244,o),
(1535,310,o),
(1535,469,cs),
(1535,628,o),
(1426,713,o),
(1257,713,cs),
(1063,713,o),
(1015,591,o),
(1015,515,cs),
(1015,468,o),
(1027,434,o),
(1043,398,cs),
(1061,358,o),
(1077,313,o),
(1077,245,cs),
(1077,128,o),
(1011,82,o),
(892,82,cs),
(791,82,o),
(713,125,o),
(713,206,cs),
(713,251,o),
(734,276,o),
(772,276,cs),
(806,276,o),
(828,251,o),
(828,212,cs),
(828,137,o),
(769,85,o),
(626,85,cs),
(496,85,o),
(438,139,o),
(438,201,c),
(424,176,l),
(541,263,o),
(619,328,o),
(619,443,cs),
(619,529,o),
(572,586,o),
(480,586,cs),
(389,586,o),
(342,514,o),
(323,447,c),
(304,514,o),
(258,586,o),
(177,586,cs),
(76,586,o),
(25,510,o),
(25,416,cs),
(25,371,o),
(42,323,o),
(60,296,c),
(106,309,l),
(95,334,o),
(86,364,o),
(86,396,cs),
(86,469,o),
(130,499,o),
(178,499,cs),
(248,499,o),
(286,438,o),
(296,367,c),
(349,367,l),
(359,438,o),
(397,499,o),
(470,499,cs),
(529,499,o),
(557,466,o),
(557,423,cs),
(557,369,o),
(532,309,o),
(387,211,c),
(387,199,ls),
(387,84,o),
(471,-10,o),
(614,-10,cs),
(783,-10,o),
(889,113,o),
(889,214,cs),
(889,282,o),
(848,334,o),
(773,334,cs),
(719,334,o),
(660,295,o),
(660,207,cs),
(660,115,o),
(764,-10,o),
(907,-10,cs),
(1068,-10,o),
(1134,105,o),
(1134,237,cs),
(1134,307,o),
(1115,356,o),
(1097,401,cs),
(1082,438,o),
(1069,475,o),
(1069,520,cs),
(1069,572,o),
(1101,661,o),
(1262,661,cs),
(1398,661,o),
(1481,591,o),
(1481,467,cs),
(1481,342,o),
(1410,295,o),
(1354,295,cs),
(1312,295,o),
(1296,319,o),
(1296,343,cs),
(1296,368,o),
(1312,401,o),
(1363,401,cs),
(1461,401,o),
(1515,318,o),
(1515,227,cs),
(1515,78,o),
(1369,-16,o),
(1209,-69,c),
(1220,-121,l)
);
}
);
width = 1649;
}
);
},
{
glyphname = "na_dha_vowelU-divesakuru";
lastChange = "2022-02-03 17:12:09 +0000";
layers = (
{
anchors = (
{
name = bottom;
pos = (1344,-273);
},
{
name = top;
pos = (1319,536);
},
{
name = topleft;
pos = (1264,363);
}
);
layerId = UUID0;
shapes = (
{
closed = 1;
nodes = (
(1429,-235,o),
(1470,-177,o),
(1470,-43,cs),
(1470,218,ls),
(1470,378,o),
(1438,407,o),
(1284,407,cs),
(1044,407,l),
(1071,335,o),
(1077,295,o),
(1077,254,cs),
(1077,127,o),
(1011,82,o),
(892,82,cs),
(791,82,o),
(713,125,o),
(713,206,cs),
(713,251,o),
(734,276,o),
(772,276,cs),
(806,276,o),
(828,251,o),
(828,212,cs),
(828,137,o),
(769,85,o),
(626,85,cs),
(496,85,o),
(438,139,o),
(438,201,c),
(424,176,l),
(541,263,o),
(619,328,o),
(619,443,cs),
(619,529,o),
(572,586,o),
(480,586,cs),
(389,586,o),
(342,514,o),
(323,447,c),
(304,514,o),
(258,586,o),
(177,586,cs),
(76,586,o),
(25,510,o),
(25,416,cs),
(25,371,o),
(42,323,o),
(60,296,c),
(106,309,l),
(95,334,o),
(86,364,o),
(86,396,cs),
(86,469,o),
(130,499,o),
(178,499,cs),
(248,499,o),
(286,438,o),
(296,367,c),
(349,367,l),
(359,438,o),
(397,499,o),
(470,499,cs),
(529,499,o),
(557,466,o),
(557,423,cs),
(557,369,o),
(532,309,o),
(387,211,c),
(387,199,ls),
(387,84,o),
(471,-10,o),
(614,-10,cs),
(783,-10,o),
(889,113,o),
(889,214,cs),
(889,282,o),
(848,334,o),
(773,334,cs),
(719,334,o),
(660,295,o),
(660,207,cs),
(660,115,o),
(764,-10,o),
(907,-10,cs),
(1068,-10,o),
(1134,105,o),
(1134,247,cs),
(1134,305,o),
(1123,354,o),
(1099,400,c),
(1072,350,l),
(1307,350,ls),
(1403,350,o),
(1410,323,o),
(1410,194,cs),
(1410,-28,ls),
(1410,-123,o),
(1405,-176,o),
(1344,-176,cs),
(1283,-176,o),
(1274,-123,o),
(1274,-28,cs),
(1274,225,l),
(1218,225,l),
(1218,-43,ls),
(1218,-177,o),
(1259,-235,o),
(1344,-235,cs)
);
}
);
width = 1560;
}
);
},
{
glyphname = "na_vowelU-divesakuru";
lastChange = "2022-02-03 17:12:21 +0000";
layers = (
{
anchors = (
{
name = bottom;
pos = (819,-148);
},
{
name = top;
pos = (752,653);
},
{
name = topleft;
pos = (652,542);
}
);
layerId = UUID0;
shapes = (
{
closed = 1;
nodes = (
(880,-105,o),
(911,-95,o),
(930,-85,c),
(915,-30,l),
(891,-38,o),
(869,-42,o),
(847,-42,cs),
(770,-42,o),
(758,7,o),
(758,102,cs),
(758,334,ls),
(758,483,o),
(721,589,o),
(577,589,cs),
(471,589,o),
(424,513,o),
(405,436,c),
(386,513,o),
(336,589,o),
(240,589,cs),
(111,589,o),
(35,493,o),
(35,369,cs),
(35,316,o),
(53,277,o),
(70,251,c),
(116,264,l),
(105,289,o),
(96,319,o),
(96,351,cs),
(96,454,o),
(165,493,o),
(241,493,cs),
(326,493,o),
(369,427,o),
(379,346,c),
(432,346,l),
(442,427,o),
(482,493,o),
(577,493,cs),
(669,493,o),
(698,447,o),
(698,290,cs),
(698,74,ls),
(698,-47,o),
(743,-105,o),
(840,-105,cs)
);
}
);
width = 935;
}
);
},
{
glyphname = "pa_medra-divesakuru";
lastChange = "2022-02-03 16:07:25 +0000";
layers = (
{
anchors = (
{
name = bottom;
pos = (769,-276);
},
{
name = halant_1;
pos = (773,380);
},
{
name = top;
pos = (885,590);
},
{
name = topleft;
pos = (845,370);
}
);
background = {
shapes = (
{
closed = 0;
nodes = (
(810,388,l),
(810,371,l),
(927,355,o),
(962,255,o),
(962,163,cs),
(962,-80,o),
(713,-187,o),
(454,-187,cs),
(317,-187,o),
(216,-168,o),
(75,-114,c),
(50,-164,l),
(145,-228,o),
(278,-272,o),
(451,-272,cs),
(806,-272,o),
(1022,-93,o),
(1022,157,cs),
(1022,282,o),
(942,400,o),
(810,410,c)
);
},
{
closed = 0;
nodes = (
(760,407,l),
(763,386,o),
(764,361,o),
(764,345,cs),
(764,179,o),
(633,92,o),
(442,92,cs),
(285,92,o),
(198,142,o),
(198,207,c),
(184,192,l),
(353,233,o),
(434,337,o),
(434,434,cs),
(434,514,o),
(381,589,o),
(255,589,cs),
(125,589,o),
(40,528,o),
(40,450,cs),
(40,377,o),
(89,337,o),
(157,337,cs),
(221,337,o),
(276,367,o),
(276,446,cs),
(276,501,o),
(238,538,o),
(183,538,cs),
(173,538,o),
(157,537,o),
(149,535,c),
(159,517,l),
(180,526,o),
(211,537,o),
(253,537,cs),
(328,537,o),
(374,492,o),
(374,432,cs),
(374,377,o),
(342,279,o),
(143,239,c),
(143,227,ls),
(143,79,o),
(265,-10,o),
(430,-10,cs),
(657,-10,o),
(818,142,o),
(818,336,cs),
(818,363,o),
(816,390,o),
(813,410,c)
);
},
{
closed = 1;
nodes = (
(116,388,o),
(97,413,o),
(97,449,cs),
(97,484,o),
(123,506,o),
(158,506,cs),
(202,506,o),
(219,478,o),
(219,449,cs),
(219,408,o),
(196,388,o),
(159,388,cs)
);
}
);
};
layerId = UUID0;
shapes = (
{
closed = 1;
nodes = (
(806,-272,o),
(1022,-93,o),
(1022,157,cs),
(1022,282,o),
(943,409,o),
(760,409,c),
(763,388,o),
(764,361,o),
(764,345,cs),
(764,179,o),
(633,92,o),
(442,92,cs),
(285,92,o),
(198,142,o),
(198,207,c),
(184,192,l),
(353,233,o),
(434,337,o),
(434,434,cs),
(434,514,o),
(381,589,o),
(255,589,cs),
(125,589,o),
(40,528,o),
(40,450,cs),
(40,377,o),
(89,337,o),
(157,337,cs),
(221,337,o),
(276,367,o),
(276,446,cs),
(276,501,o),
(238,538,o),
(183,538,cs),
(173,538,o),
(157,537,o),
(149,535,c),
(159,517,l),
(180,526,o),
(211,537,o),
(253,537,cs),
(328,537,o),
(374,492,o),
(374,432,cs),
(374,377,o),
(342,279,o),
(143,239,c),
(143,227,ls),
(143,79,o),
(265,-10,o),
(430,-10,cs),
(657,-10,o),
(818,142,o),
(818,336,cs),
(818,363,o),
(816,390,o),
(811,401,c),
(810,361,l),
(927,345,o),
(962,255,o),
(962,163,cs),
(962,-80,o),
(713,-187,o),
(454,-187,cs),
(317,-187,o),
(216,-168,o),
(75,-114,c),
(50,-164,l),
(145,-228,o),
(278,-272,o),
(451,-272,cs)
);
},
{
closed = 1;
nodes = (
(116,388,o),
(97,413,o),
(97,449,cs),
(97,484,o),
(123,506,o),
(158,506,cs),
(202,506,o),
(219,478,o),
(219,449,cs),
(219,408,o),
(196,388,o),
(159,388,cs)
);
}
);
width = 1052;
}
);
},
{
glyphname = "pa_vowelI-divesakuru";
lastChange = "2022-02-03 17:12:31 +0000";
layers = (
{
anchors = (
{
name = bottom;
pos = (840,-38);
},
{
name = top;
pos = (792,714);
},
{
name = topleft;
pos = (755,622);
}
);
layerId = UUID0;
shapes = (
{
closed = 1;
nodes = (
(962,82,o),
(1041,238,o),
(1041,395,cs),
(1041,571,o),
(946,689,o),
(790,689,cs),
(663,689,o),
(612,611,o),
(612,535,cs),
(612,483,o),
(628,443,o),
(645,402,cs),
(663,358,o),
(682,311,o),
(682,245,cs),
(682,128,o),
(616,92,o),
(452,92,cs),
(285,92,o),
(198,142,o),
(198,207,c),
(184,192,l),
(353,233,o),
(434,337,o),
(434,434,cs),
(434,514,o),
(381,589,o),
(255,589,cs),
(125,589,o),
(40,528,o),
(40,450,cs),
(40,377,o),
(89,337,o),
(157,337,cs),
(221,337,o),
(276,367,o),
(276,446,cs),
(276,501,o),
(238,538,o),
(183,538,cs),
(173,538,o),
(157,537,o),
(149,535,c),
(159,517,l),
(180,526,o),
(211,537,o),
(253,537,cs),
(328,537,o),
(374,492,o),
(374,432,cs),
(374,377,o),
(342,279,o),
(143,239,c),
(143,227,ls),
(143,75,o),
(263,-10,o),
(447,-10,cs),
(673,-10,o),
(739,105,o),
(739,237,cs),
(739,304,o),
(720,355,o),
(700,403,cs),
(682,447,o),
(666,489,o),
(666,540,cs),
(666,592,o),
(701,637,o),
(791,637,cs),
(914,637,o),
(981,534,o),
(981,387,cs),
(981,249,o),
(915,112,o),
(834,19,c),
(866,-12,l)
);
},
{
closed = 1;
nodes = (
(116,388,o),
(97,413,o),
(97,449,cs),
(97,484,o),
(123,506,o),
(158,506,cs),
(202,506,o),
(219,478,o),
(219,449,cs),
(219,408,o),
(196,388,o),
(159,388,cs)
);
}
);
width = 1116;
}
);
},
{
glyphname = "pa_vowelU-divesakuru";
lastChange = "2022-02-03 17:12:39 +0000";
layers = (
{
anchors = (
{
name = bottom;
pos = (1002,-273);
},
{
name = top;
pos = (977,536);
},
{
name = topleft;
pos = (932,370);
}
);
layerId = UUID0;
shapes = (
{
closed = 1;
nodes = (
(1087,-232,o),
(1128,-174,o),
(1128,-40,cs),
(1128,221,ls),
(1128,381,o),
(1096,410,o),
(942,410,cs),
(760,410,l),
(765,353,l),
(965,353,ls),
(1061,353,o),
(1068,326,o),
(1068,197,cs),
(1068,-25,ls),
(1068,-120,o),
(1063,-173,o),
(1002,-173,cs),
(941,-173,o),
(932,-120,o),
(932,-25,cs),
(932,228,l),
(876,228,l),
(876,-40,ls),
(876,-174,o),
(917,-232,o),
(1002,-232,cs)
);
},
{
ref = u11920;
}
);
width = 1218;
}
);
},
{
glyphname = "pa_vowelUU-divesakuru";
lastChange = "2022-02-03 17:13:51 +0000";
layers = (
{
anchors = (
{
name = bottom;
pos = (1074,-273);
},
{
name = top;
pos = (1049,536);
},
{
name = topleft;
pos = (992,372);
}
);
layerId = UUID0;
shapes = (
{
closed = 1;
nodes = (
(1166,-232,o),
(1207,-174,o),
(1207,-40,cs),
(1207,221,ls),
(1207,381,o),
(1175,410,o),
(1021,410,cs),
(759,410,l),
(765,353,l),
(1044,353,ls),
(1140,353,o),
(1147,326,o),
(1147,197,cs),
(1147,-25,ls),
(1147,-120,o),
(1142,-173,o),
(1081,-173,cs),
(1020,-173,o),
(1011,-120,o),
(1011,-25,cs),
(1011,218,l),
(955,188,l),
(955,-40,ls),
(955,-174,o),
(996,-232,o),
(1081,-232,cs)
);
},
{
closed = 1;
nodes = (
(851,-257,l),
(822,-222,o),
(779,-160,o),
(779,-87,cs),
(779,47,o),
(882,137,o),
(1011,177,c),
(1011,226,l),
(913,200,o),
(715,91,o),
(715,-83,cs),
(715,-164,o),
(767,-234,o),
(786,-257,c)
);
},
{
ref = u11920;
}
);
width = 1297;
}
);
},
{
glyphname = "ba_bha-divesakuru";
lastChange = "2022-02-03 18:12:32 +0000";
layers = (
{
anchors = (
{
name = bottom;
pos = (1115,-276);
},
{
name = halant;
pos = (1225,356);
},
{
name = top;
pos = (1175,590);
}
);
layerId = UUID0;
shapes = (
{
closed = 1;
nodes = (
(1225,-257,o),
(1392,-16,o),
(1392,244,cs),
(1392,339,o),
(1355,408,o),
(1273,408,cs),
(1216,408,o),
(1191,363,o),
(1160,297,cs),
(1094,156,o),
(1009,92,o),
(909,92,cs),
(810,92,o),
(773,126,o),
(768,153,c),
(927,229,o),
(1003,348,o),
(1003,442,cs),
(1003,522,o),
(964,589,o),
(853,589,cs),
(742,589,o),
(687,525,o),
(629,364,cs),
(577,221,o),
(482,92,o),
(335,92,cs),
(237,92,o),
(204,132,o),
(199,173,c),
(358,235,o),
(434,340,o),
(434,434,cs),
(434,514,o),
(381,589,o),
(255,589,cs),
(125,589,o),
(40,528,o),
(40,450,cs),
(40,377,o),
(89,337,o),
(157,337,cs),
(221,337,o),
(276,367,o),
(276,446,cs),
(276,501,o),
(238,538,o),
(183,538,cs),
(173,538,o),
(157,537,o),
(149,535,c),
(159,517,l),
(180,526,o),
(211,537,o),
(253,537,cs),
(328,537,o),
(374,492,o),
(374,432,cs),
(374,377,o),
(342,275,o),
(143,215,c),
(143,203,ls),
(143,75,o),
(219,-10,o),
(324,-10,cs),
(515,-10,o),
(610,173,o),
(663,322,cs),
(715,468,o),
(756,537,o),
(843,537,cs),
(911,537,o),
(943,500,o),
(943,440,cs),
(943,385,o),
(911,269,o),
(712,195,c),
(712,183,ls),
(712,69,o),
(782,-10,o),
(897,-10,cs),
(1042,-10,o),
(1128,108,o),
(1188,239,cs),
(1223,316,o),
(1239,349,o),
(1271,349,cs),
(1302,349,o),
(1332,315,o),
(1332,237,cs),
(1332,77,o),
(1230,-171,o),
(898,-171,cs),
(840,-171,o),
(780,-166,o),
(702,-150,c),
(694,-197,l),
(760,-234,o),
(834,-257,o),
(930,-257,cs)
);
},
{
closed = 1;
nodes = (
(116,388,o),
(97,413,o),
(97,449,cs),
(97,484,o),
(123,506,o),
(158,506,cs),
(202,506,o),
(219,478,o),
(219,449,cs),
(219,408,o),
(196,388,o),
(159,388,cs)
);
}
);
width = 1437;
}
);
},
{
glyphname = "ma_ba-divesakuru";
lastChange = "2022-01-28 16:15:27 +0000";
layers = (
{
anchors = (
{
name = bottom;
pos = (789,-116);
},
{
name = top;
pos = (805,590);
}
);
layerId = UUID0;
shapes = (
{
closed = 1;
nodes = (
(443,-10,o),
(499,108,o),
(559,239,cs),
(594,316,o),
(610,349,o),
(650,349,cs),
(674,349,o),
(690,337,o),
(690,310,cs),
(690,278,o),
(669,250,o),
(642,219,cs),
(607,179,o),
(570,130,o),
(570,61,cs),
(570,-20,o),
(632,-70,o),
(725,-70,cs),
(899,-70,o),
(1079,136,o),
(1079,324,cs),
(1079,416,o),
(1017,469,o),
(933,483,c),
(923,436,l),
(977,421,o),
(1031,394,o),
(1031,327,cs),
(1031,190,o),
(882,32,o),
(736,32,cs),
(678,32,o),
(634,51,o),
(634,94,cs),
(634,130,o),
(657,161,o),
(683,192,cs),
(714,229,o),
(745,270,o),
(745,325,cs),
(745,367,o),
(716,408,o),
(654,408,cs),
(588,408,o),
(562,363,o),
(534,296,cs),
(475,156,o),
(410,92,o),
(314,92,cs),
(238,92,o),
(211,129,o),
(211,169,cs),
(211,207,o),
(236,244,o),
(292,280,cs),
(363,326,o),
(436,381,o),
(436,461,cs),
(436,534,o),
(376,589,o),
(255,589,cs),
(125,589,o),
(40,528,o),
(40,450,cs),
(40,377,o),
(89,337,o),
(157,337,cs),
(221,337,o),
(276,367,o),
(276,446,cs),
(276,501,o),
(238,538,o),
(183,538,cs),
(173,538,o),
(157,537,o),
(149,535,c),
(159,517,l),
(180,526,o),
(211,537,o),
(261,537,cs),
(323,537,o),
(376,512,o),
(376,459,cs),
(376,409,o),
(351,377,o),
(286,334,cs),
(186,268,o),
(145,221,o),
(145,146,cs),
(145,54,o),
(204,-10,o),
(302,-10,cs)
);
},
{
closed = 1;
nodes = (
(116,388,o),
(97,413,o),
(97,449,cs),
(97,484,o),
(123,506,o),
(158,506,cs),
(202,506,o),
(219,478,o),
(219,449,cs),
(219,408,o),
(196,388,o),
(159,388,cs)
);
}
);
width = 1119;
}
);
},
{
glyphname = "ma_vowelU-divesakuru";
lastChange = "2022-02-03 17:13:43 +0000";
layers = (
{
anchors = (
{
name = bottom;
pos = (764,-273);
},
{
name = top;
pos = (742,536);
},
{
name = topleft;
pos = (708,251);
}
);
layerId = UUID0;
shapes = (
{
closed = 1;
nodes = (
(844,-254,o),
(885,-196,o),
(885,-62,cs),
(885,101,ls),
(885,261,o),
(853,290,o),
(699,290,cs),
(504,290,l),
(481,233,l),
(497,233,ls),
(545,233,o),
(559,217,o),
(559,192,cs),
(559,140,o),
(506,92,o),
(390,92,cs),
(282,92,o),
(221,137,o),
(221,185,cs),
(221,215,o),
(236,244,o),
(292,280,cs),
(363,326,o),
(436,381,o),
(436,461,cs),
(436,534,o),
(376,589,o),
(255,589,cs),
(125,589,o),
(40,528,o),
(40,450,cs),
(40,377,o),
(89,337,o),
(157,337,cs),
(221,337,o),
(276,367,o),
(276,446,cs),
(276,490,o),
(252,522,o),
(215,533,c),
(228,536,o),
(243,537,o),
(261,537,cs),
(323,537,o),
(376,512,o),
(376,459,cs),
(376,409,o),
(351,377,o),
(286,334,cs),
(186,268,o),
(155,229,o),
(155,162,cs),
(155,62,o),
(248,-10,o),
(378,-10,cs),
(542,-10,o),
(612,98,o),
(612,178,cs),
(612,208,o),
(603,234,o),
(582,246,c),
(575,233,l),
(722,233,ls),
(818,233,o),
(825,206,o),
(825,77,cs),
(825,-47,ls),
(825,-142,o),
(820,-195,o),
(759,-195,cs),
(698,-195,o),
(689,-142,o),
(689,-47,cs),
(689,96,l),
(633,96,l),
(633,-62,ls),
(633,-196,o),
(674,-254,o),
(759,-254,cs)
);
},
{
closed = 1;
nodes = (
(116,388,o),
(97,413,o),
(97,449,cs),
(97,484,o),
(123,506,o),
(158,506,cs),
(202,506,o),
(219,478,o),
(219,449,cs),
(219,408,o),
(196,388,o),
(159,388,cs)
);
}
);
width = 945;
}
);
},
{
glyphname = "ya_medya-divesakuru";
lastChange = "2022-02-03 16:07:48 +0000";
layers = (
{
anchors = (
{
name = bottom;
pos = (915,-128);
},
{
name = right;
pos = (1247,300);
},
{
name = top;
pos = (436,590);
},
{
name = topleft;
pos = (822,398);
},
{
name = topright;
pos = (982,495);
}
);
layerId = UUID0;
shapes = (
{
closed = 1;
nodes = (
(879,7,o),
(986,128,o),
(986,268,cs),
(986,411,o),
(867,441,o),
(801,441,cs),
(751,441,o),
(707,432,o),
(673,422,c),
(686,377,l),
(745,393,o),
(771,393,o),
(793,393,cs),
(845,393,o),
(916,374,o),
(916,260,cs),
(916,139,o),
(832,37,o),
(700,-86,c),
(740,-113,l)
);
},
{
closed = 1;
nodes = (
(990,-127,o),
(1210,29,o),
(1210,214,cs),
(1210,253,o),
(1198,283,o),
(1185,306,c),
(1138,298,l),
(1143,271,o),
(1146,249,o),
(1146,226,cs),
(1146,-6,o),
(885,-86,o),
(700,-86,c),
(700,-127,l)
);
},
{
closed = 1;
nodes = (
(373,-10,o),
(497,151,o),
(497,355,cs),
(497,505,o),
(403,588,o),
(245,588,cs),
(178,588,o),
(108,576,o),
(40,553,c),
(56,483,l),
(125,505,o),
(175,515,o),
(239,515,cs),
(358,515,o),
(434,484,o),
(434,353,cs),
(434,175,o),
(341,56,o),
(224,56,cs),
(166,56,o),
(131,83,o),
(131,132,cs),
(131,186,o),
(161,214,o),
(217,214,cs),
(334,214,o),
(403,-7,o),
(564,-7,cs),
(689,-7,o),
(777,110,o),
(777,250,cs),
(777,308,o),
(766,357,o),
(748,392,c),
(685,381,l),
(697,338,o),
(703,298,o),
(703,257,cs),
(703,142,o),
(656,68,o),
(570,68,cs),
(440,68,o),
(364,268,o),
(215,268,cs),
(120,268,o),
(63,210,o),
(63,126,cs),
(63,35,o),
(135,-10,o),
(217,-10,cs)
);
}
);
width = 1250;
}
);
},
{
glyphname = "ya_vowelI-divesakuru";
lastChange = "2022-02-03 17:33:43 +0000";
layers = (
{
anchors = (
{
name = bottom;
pos = (705,-238);
},
{
name = top;
pos = (746,536);
}
);
layerId = UUID0;
shapes = (
{
closed = 1;
nodes = (
(766,-272,o),
(941,-83,o),
(941,157,cs),
(941,293,o),
(875,399,o),
(679,399,c),
(692,355,l),
(849,349,o),
(881,261,o),
(881,163,cs),
(881,-70,o),
(673,-187,o),
(461,-187,cs),
(337,-187,o),
(239,-166,o),
(115,-114,c),
(90,-164,l),
(170,-224,o),
(298,-272,o),
(458,-272,cs)
);
},
{
closed = 1;
nodes = (
(373,-10,o),
(497,151,o),
(497,355,cs),
(497,505,o),
(403,588,o),
(245,588,cs),
(160,588,o),
(76,569,o),
(8,546,c),
(35,476,l),
(109,503,o),
(175,515,o),
(239,515,cs),
(358,515,o),
(434,484,o),
(434,352,cs),
(434,174,o),
(341,56,o),
(224,56,cs),
(166,56,o),
(131,83,o),
(131,132,cs),
(131,186,o),
(161,214,o),
(217,214,cs),
(334,214,o),
(403,-7,o),
(564,-7,cs),
(689,-7,o),
(777,110,o),
(777,250,cs),
(777,308,o),
(766,357,o),
(748,392,c),
(685,381,l),
(697,338,o),
(703,298,o),
(703,257,cs),
(703,142,o),
(656,68,o),
(570,68,cs),
(440,68,o),
(364,268,o),
(215,268,cs),
(120,268,o),
(63,210,o),
(63,126,cs),
(63,35,o),
(135,-10,o),
(217,-10,cs)
);
}
);
width = 981;
}
);
},
{
glyphname = "u-divesakuru.00";
lastChange = "2022-02-03 17:13:32 +0000";
layers = (
{
anchors = (
{
name = bottom;
pos = (953,-239);
},
{
name = top;
pos = (911,590);
},
{
name = topleft;
pos = (862,367);
}
);
layerId = UUID0;
shapes = (
{
closed = 1;
nodes = (
(1064,-235,o),
(1105,-177,o),
(1105,-43,cs),
(1105,218,ls),
(1105,378,o),
(1073,407,o),
(919,407,cs),
(671,407,l),
(686,368,o),
(703,310,o),
(703,257,cs),
(703,142,o),
(656,67,o),
(570,67,cs),
(440,67,o),
(364,268,o),
(215,268,cs),
(120,268,o),
(63,210,o),
(63,126,cs),
(63,35,o),
(135,-10,o),
(217,-10,cs),
(373,-10,o),
(497,151,o),
(497,355,cs),
(497,505,o),
(403,588,o),
(245,588,cs),
(160,588,o),
(76,569,o),
(8,546,c),
(35,476,l),
(109,503,o),
(175,515,o),
(239,515,cs),
(358,515,o),
(434,484,o),
(434,352,cs),
(434,175,o),
(341,56,o),
(224,56,cs),
(168,56,o),
(131,80,o),
(131,134,cs),
(131,184,o),
(160,214,o),
(217,214,cs),
(334,214,o),
(403,-7,o),
(564,-7,cs),
(689,-7,o),
(777,110,o),
(777,250,cs),
(777,308,o),
(766,357,o),
(748,392,c),
(699,350,l),
(942,350,ls),
(1038,350,o),
(1045,323,o),
(1045,194,cs),
(1045,-28,ls),
(1045,-123,o),
(1040,-176,o),
(979,-176,cs),
(918,-176,o),
(909,-123,o),
(909,-28,cs),
(909,195,l),
(853,195,l),
(853,-43,ls),
(853,-177,o),
(894,-235,o),
(979,-235,cs)
);
}
);
width = 1195;
}
);
},
{
glyphname = "uu-divesakuru.00";
lastChange = "2022-02-03 17:13:23 +0000";
layers = (
{
anchors = (
{
name = bottom;
pos = (1083,-239);
},
{
name = top;
pos = (1011,590);
},
{
name = topleft;
pos = (945,368);
}
);
layerId = UUID0;
shapes = (
{
closed = 1;
nodes = (
(1194,-235,o),
(1235,-177,o),
(1235,-43,cs),
(1235,218,ls),
(1235,378,o),
(1203,407,o),
(1049,407,cs),
(671,407,l),
(686,368,o),
(703,310,o),
(703,257,cs),
(703,142,o),
(656,67,o),
(570,67,cs),
(440,67,o),
(364,268,o),
(215,268,cs),
(120,268,o),
(63,210,o),
(63,126,cs),
(63,35,o),
(135,-10,o),
(217,-10,cs),
(373,-10,o),
(497,151,o),
(497,355,cs),
(497,505,o),
(403,588,o),
(245,588,cs),
(160,588,o),
(76,569,o),
(8,546,c),
(35,476,l),
(109,503,o),
(175,515,o),
(239,515,cs),
(358,515,o),
(434,484,o),
(434,352,cs),
(434,175,o),
(341,56,o),
(224,56,cs),
(168,56,o),
(131,80,o),
(131,134,cs),
(131,184,o),
(160,214,o),
(217,214,cs),
(334,214,o),
(403,-7,o),
(564,-7,cs),
(689,-7,o),
(777,110,o),
(777,250,cs),
(777,308,o),
(766,357,o),
(748,392,c),
(699,350,l),
(1072,350,ls),
(1168,350,o),
(1175,323,o),
(1175,194,cs),
(1175,-28,ls),
(1175,-123,o),
(1170,-176,o),
(1109,-176,cs),
(1048,-176,o),
(1039,-123,o),
(1039,-28,cs),
(1039,225,l),
(983,195,l),
(983,-43,ls),
(983,-177,o),
(1024,-235,o),
(1109,-235,cs)
);
},
{
closed = 1;
nodes = (
(899,-257,l),
(870,-222,o),
(827,-160,o),
(827,-87,cs),
(827,47,o),
(910,137,o),
(1039,177,c),
(1039,226,l),
(941,200,o),
(763,91,o),
(763,-83,cs),
(763,-164,o),
(815,-234,o),
(834,-257,c)
);
}
);
width = 1325;
}
);
},
{
glyphname = "yya_medya-divesakuru";
lastChange = "2022-02-03 18:31:54 +0000";
layers = (
{
anchors = (
{
name = bottom;
pos = (929,-128);
},
{
name = right;
pos = (1259,300);
},
{
name = top;
pos = (958,536);
},
{
name = topleft;
pos = (790,387);
}
);
background = {
shapes = (
{
closed = 0;
nodes = (
(701,378,l),
(713,335,o),
(719,295,o),
(719,254,cs),
(719,127,o),
(653,83,o),
(534,83,cs),
(430,83,o),
(343,151,o),
(343,233,cs),
(343,280,o),
(365,304,o),
(404,304,cs),
(439,304,o),
(463,280,o),
(463,239,cs),
(463,167,o),
(411,86,o),
(268,86,cs),
(161,86,o),
(97,127,o),
(97,254,cs),
(97,295,o),
(103,335,o),
(115,378,c),
(69,389,l),
(51,354,o),
(40,305,o),
(40,247,cs),
(40,105,o),
(104,-10,o),
(257,-10,cs),
(428,-10,o),
(525,141,o),
(525,243,cs),
(525,312,o),
(482,364,o),
(405,364,cs),
(349,364,o),
(289,324,o),
(289,235,cs),
(289,137,o),
(404,-10,o),
(549,-10,cs),
(710,-10,o),
(776,105,o),
(776,247,cs),
(776,305,o),
(765,354,o),
(747,389,c)
);
},
{
closed = 0;
nodes = (
(701,377,l),
(760,393,o),
(786,393,o),
(808,393,cs),
(860,393,o),
(931,374,o),
(931,260,cs),
(931,139,o),
(847,37,o),
(715,-86,c),
(755,-113,l),
(894,7,o),
(1001,128,o),
(1001,268,cs),
(1001,411,o),
(882,441,o),
(816,441,cs),
(766,441,o),
(722,432,o),
(688,422,c)
);
},
{
closed = 1;
nodes = (
(1005,-127,o),
(1225,29,o),
(1225,214,cs),
(1225,253,o),
(1213,283,o),
(1200,306,c),
(1153,298,l),
(1158,271,o),
(1161,249,o),
(1161,226,cs),
(1161,-6,o),
(900,-86,o),
(715,-86,c),
(715,-127,l)
);
}
);
};
layerId = UUID0;
shapes = (
{
closed = 1;
nodes = (
(894,7,o),
(1001,128,o),
(1001,268,cs),
(1001,411,o),
(882,441,o),
(816,441,cs),
(766,441,o),
(722,432,o),
(687,422,c),
(714,340,o),
(719,295,o),
(719,254,cs),
(719,127,o),
(653,83,o),
(534,83,cs),
(430,83,o),
(343,151,o),
(343,233,cs),
(343,280,o),
(365,304,o),
(404,304,cs),
(439,304,o),
(463,280,o),
(463,239,cs),
(463,167,o),
(411,86,o),
(268,86,cs),
(161,86,o),
(97,127,o),
(97,254,cs),
(97,295,o),
(103,335,o),
(115,378,c),
(69,389,l),
(51,354,o),
(40,305,o),
(40,247,cs),
(40,105,o),
(104,-10,o),
(257,-10,cs),
(428,-10,o),
(525,141,o),
(525,243,cs),
(525,312,o),
(482,364,o),
(405,364,cs),
(349,364,o),
(289,324,o),
(289,235,cs),
(289,137,o),
(404,-10,o),
(549,-10,cs),
(710,-10,o),
(776,105,o),
(776,247,cs),
(776,305,o),
(767,356,o),
(737,409,c),
(711,379,l),
(760,393,o),
(786,393,o),
(808,393,cs),
(860,393,o),
(931,374,o),
(931,260,cs),
(931,139,o),
(847,37,o),
(715,-86,c),
(755,-113,l)
);
},
{
closed = 1;
nodes = (
(1005,-127,o),
(1225,29,o),
(1225,214,cs),
(1225,253,o),
(1213,283,o),
(1200,306,c),
(1153,298,l),
(1158,271,o),
(1161,249,o),
(1161,226,cs),
(1161,-6,o),
(900,-86,o),
(715,-86,c),
(715,-127,l)
);
}
);
width = 1265;
}
);
},
{
glyphname = "yya_vowelI-divesakuru";
lastChange = "2022-02-03 18:29:28 +0000";
layers = (
{
anchors = (
{
name = bottom;
pos = (705,-238);
},
{
name = top;
pos = (746,536);
},
{
name = topleft;
pos = (780,360);
}
);
layerId = UUID0;
shapes = (
{
closed = 1;
nodes = (
(428,-10,o),
(525,141,o),
(525,243,cs),
(525,312,o),
(482,364,o),
(405,364,cs),
(349,364,o),
(289,324,o),
(289,235,cs),
(289,137,o),
(404,-10,o),
(549,-10,cs),
(710,-10,o),
(776,105,o),
(776,247,cs),
(776,305,o),
(765,354,o),
(747,389,c),
(701,378,l),
(713,335,o),
(719,295,o),
(719,254,cs),
(719,127,o),
(653,83,o),
(534,83,cs),
(430,83,o),
(343,151,o),
(343,233,cs),
(343,280,o),
(365,304,o),
(404,304,cs),
(439,304,o),
(463,280,o),
(463,239,cs),
(463,167,o),
(411,86,o),
(268,86,cs),
(161,86,o),
(97,127,o),
(97,254,cs),
(97,295,o),
(103,335,o),
(115,378,c),
(69,389,l),
(51,354,o),
(40,305,o),
(40,247,cs),
(40,105,o),
(104,-10,o),
(257,-10,cs)
);
},
{
closed = 1;
nodes = (
(782,-272,o),
(957,-83,o),
(957,157,cs),
(957,293,o),
(891,399,o),
(695,399,c),
(708,355,l),
(865,349,o),
(897,261,o),
(897,163,cs),
(897,-70,o),
(689,-187,o),
(477,-187,cs),
(353,-187,o),
(255,-166,o),
(131,-114,c),
(106,-164,l),
(186,-224,o),
(314,-272,o),
(474,-272,cs)
);
}
);
width = 997;
}
);
},
{
glyphname = "ra_vowelU-divesakuru";
lastChange = "2022-02-03 17:13:13 +0000";
layers = (
{
anchors = (
{
name = bottom;
pos = (619,-148);
},
{
name = top;
pos = (552,653);
},
{
name = topleft;
pos = (440,510);
}
);
layerId = UUID0;
shapes = (
{
closed = 1;
nodes = (
(680,-105,o),
(711,-95,o),
(730,-85,c),
(715,-30,l),
(691,-38,o),
(669,-42,o),
(647,-42,cs),
(570,-42,o),
(558,7,o),
(558,102,cs),
(558,295,ls),
(558,443,o),
(509,551,o),
(356,551,cs),
(197,551,o),
(106,427,o),
(106,227,cs),
(106,156,ls),
(106,42,o),
(147,-11,o),
(233,-11,cs),
(327,-11,o),
(368,42,o),
(368,156,cs),
(368,315,ls),
(368,408,o),
(353,424,o),
(273,451,cs),
(24,535,l),
(5,476,l),
(254,392,ls),
(300,376,o),
(306,367,o),
(306,313,cs),
(306,171,ls),
(306,96,o),
(303,48,o),
(233,48,cs),
(171,48,o),
(162,96,o),
(162,171,cs),
(162,212,ls),
(162,431,o),
(246,495,o),
(348,495,cs),
(453,495,o),
(498,424,o),
(498,291,cs),
(498,74,ls),
(498,-47,o),
(543,-105,o),
(640,-105,cs)
);
}
);
width = 735;
}
);
},
{
glyphname = "va_va-divesakuru";
lastChange = "2022-02-03 15:46:22 +0000";
layers = (
{
anchors = (
{
name = bottom;
pos = (811,-293);
},
{
name = halant;
pos = (831,-4);
},
{
name = right;
pos = (1070,300);
},
{
name = top;
pos = (837,590);
}
);
layerId = UUID0;
shapes = (
{
closed = 1;
nodes = (
(962,-270,o),
(1036,-161,o),
(1036,-66,cs),
(1036,-10,o),
(1005,55,o),
(920,55,cs),
(885,55,o),
(848,41,o),
(818,23,c),
(843,-21,l),
(872,-6,o),
(893,1,o),
(918,1,cs),
(956,1,o),
(983,-22,o),
(983,-58,cs),
(983,-119,o),
(926,-168,o),
(814,-168,cs),
(705,-168,o),
(644,-121,o),
(644,-51,cs),
(644,1,o),
(669,32,o),
(715,70,cs),
(788,131,o),
(855,198,o),
(855,293,cs),
(855,371,o),
(813,442,o),
(683,442,cs),
(598,442,o),
(543,400,o),
(543,343,cs),
(543,306,o),
(557,282,o),
(557,242,cs),
(557,165,o),
(509,92,o),
(384,92,cs),
(282,92,o),
(221,135,o),
(221,191,cs),
(221,222,o),
(230,250,o),
(286,289,cs),
(367,346,o),
(422,404,o),
(422,470,cs),
(422,545,o),
(364,581,o),
(281,581,cs),
(271,581,l),
(260,490,o),
(228,450,o),
(169,450,cs),
(122,450,o),
(105,471,o),
(105,520,cs),
(105,539,o),
(109,556,o),
(115,575,c),
(48,575,l),
(41,560,o),
(37,540,o),
(37,516,cs),
(37,432,o),
(88,393,o),
(161,393,cs),
(271,393,o),
(310,488,o),
(315,539,c),
(304,527,l),
(332,526,o),
(367,510,o),
(367,463,cs),
(367,420,o),
(334,379,o),
(270,336,cs),
(178,274,o),
(155,218,o),
(155,169,cs),
(155,58,o),
(250,-10,o),
(372,-10,cs),
(533,-10,o),
(608,128,o),
(608,230,cs),
(608,265,o),
(598,283,o),
(598,322,cs),
(598,352,o),
(622,383,o),
(683,383,cs),
(760,383,o),
(800,349,o),
(800,285,cs),
(800,214,o),
(751,163,o),
(695,117,cs),
(614,50,o),
(578,-6,o),
(578,-71,cs),
(578,-198,o),
(673,-270,o),
(802,-270,cs)
);
}
);
width = 1001;
}
);
},
{
glyphname = "sha_ra_vowelI-divesakuru";
lastChange = "2022-02-03 17:12:57 +0000";
layers = (
{
anchors = (
{
name = bottom;
pos = (1104,-323);
},
{
name = top;
pos = (1072,536);
},
{
name = topleft;
pos = (1031,340);
}
);
layerId = UUID0;
shapes = (
{
closed = 1;
nodes = (
(806,-272,o),
(1039,-104,o),
(1039,95,cs),
(1039,219,o),
(952,305,o),
(840,305,cs),
(700,305,o),
(589,199,o),
(589,103,cs),
(589,42,o),
(628,-8,o),
(701,-8,cs),
(775,-8,o),
(830,42,o),
(830,135,cs),
(830,270,o),
(734,342,o),
(618,342,cs),
(509,342,o),
(416,273,o),
(416,169,cs),
(416,138,o),
(424,104,o),
(444,68,c),
(463,121,l),
(431,96,o),
(389,81,o),
(343,81,cs),
(264,81,o),
(225,108,o),
(225,161,cs),
(225,209,o),
(264,247,o),
(307,288,cs),
(358,337,o),
(413,391,o),
(413,470,cs),
(413,544,o),
(367,591,o),
(271,591,cs),
(190,591,o),
(113,539,o),
(66,473,c),
(90,450,l),
(151,494,o),
(202,517,o),
(266,517,cs),
(323,517,o),
(358,495,o),
(358,459,cs),
(358,401,o),
(311,356,o),
(262,310,cs),
(210,261,o),
(156,210,o),
(156,139,cs),
(156,37,o),
(226,-10,o),
(334,-10,cs),
(394,-10,o),
(474,17,o),
(509,45,c),
(484,89,o),
(470,118,o),
(470,158,cs),
(470,235,o),
(522,282,o),
(616,282,cs),
(712,282,o),
(779,233,o),
(779,137,cs),
(779,82,o),
(754,43,o),
(701,43,cs),
(665,43,o),
(644,65,o),
(644,102,cs),
(644,178,o),
(734,253,o),
(841,253,cs),
(917,253,o),
(980,197,o),
(980,99,cs),
(980,-91,o),
(713,-187,o),
(454,-187,cs),
(317,-187,o),
(216,-168,o),
(75,-114,c),
(50,-164,l),
(145,-228,o),
(278,-272,o),
(451,-272,cs)
);
},
{
closed = 1;
nodes = (
(90,450,l),
(97,483,l),
(92,490,l),
(95,497,o),
(97,514,o),
(97,531,cs),
(97,591,l),
(40,591,l),
(40,450,l)
);
},
{
closed = 1;
nodes = (
(1202,-198,o),
(1281,-42,o),
(1281,115,cs),
(1281,291,o),
(1185,409,o),
(1057,409,cs),
(963,409,o),
(903,350,o),
(866,280,c),
(904,245,l),
(943,310,o),
(987,357,o),
(1056,357,cs),
(1157,357,o),
(1221,254,o),
(1221,107,cs),
(1221,-31,o),
(1155,-168,o),
(1074,-261,c),
(1106,-292,l)
);
}
);
width = 1321;
}
);
},
{
glyphname = "sha_medra-divesakuru";
lastChange = "2022-02-03 16:08:05 +0000";
layers = (
{
anchors = (
{
name = bottom;
pos = (749,-276);
},
{
name = top;
pos = (865,590);
},
{
name = topleft;
pos = (896,265);
},
{
name = topright;
pos = (814,229);
}
);
layerId = UUID0;
shapes = (
{
closed = 1;
nodes = (
(806,-272,o),
(1039,-104,o),
(1039,95,cs),
(1039,219,o),
(952,305,o),
(840,305,cs),
(700,305,o),
(589,199,o),
(589,103,cs),
(589,42,o),
(628,-8,o),
(701,-8,cs),
(775,-8,o),
(830,42,o),
(830,135,cs),
(830,270,o),
(734,342,o),
(618,342,cs),
(509,342,o),
(416,273,o),
(416,169,cs),
(416,138,o),
(424,104,o),
(444,68,c),
(463,121,l),
(431,96,o),
(389,81,o),
(343,81,cs),
(264,81,o),
(225,108,o),
(225,161,cs),
(225,209,o),
(265,248,o),
(308,289,cs),
(359,338,o),
(413,391,o),
(413,470,cs),
(413,544,o),
(367,591,o),
(271,591,cs),
(190,591,o),
(113,539,o),
(66,473,c),
(90,450,l),
(151,494,o),
(202,517,o),
(266,517,cs),
(323,517,o),
(358,495,o),
(358,459,cs),
(358,400,o),
(312,356,o),
(262,310,cs),
(209,262,o),
(156,210,o),
(156,139,cs),
(156,37,o),
(226,-10,o),
(334,-10,cs),
(394,-10,o),
(474,17,o),
(509,45,c),
(484,89,o),
(470,118,o),
(470,158,cs),
(470,235,o),
(522,282,o),
(616,282,cs),
(712,282,o),
(779,233,o),
(779,137,cs),
(779,82,o),
(754,43,o),
(701,43,cs),
(665,43,o),
(644,65,o),
(644,102,cs),
(644,178,o),
(734,253,o),
(841,253,cs),
(917,253,o),
(980,197,o),
(980,99,cs),
(980,-91,o),
(713,-187,o),
(454,-187,cs),
(317,-187,o),
(216,-168,o),
(75,-114,c),
(50,-164,l),
(145,-228,o),
(278,-272,o),
(451,-272,cs)
);
},
{
closed = 1;
nodes = (
(90,450,l),
(97,483,l),
(92,490,l),
(95,497,o),
(97,514,o),
(97,531,cs),
(97,591,l),
(40,591,l),
(40,450,l)
);
}
);
width = 1079;
}
);
},
{
glyphname = "ssa_tta-divesakuru";
lastChange = "2022-01-28 16:15:27 +0000";
layers = (
{
anchors = (
{
name = bottom;
pos = (801,-38);
},
{
name = top;
pos = (822,590);
}
);
layerId = UUID0;
shapes = (
{
closed = 1;
nodes = (
(589,-10,o),
(742,114,o),
(742,255,cs),
(742,327,o),
(694,372,o),
(618,432,cs),
(569,471,o),
(554,501,o),
(554,538,cs),
(554,575,o),
(572,601,o),
(608,601,cs),
(643,601,o),
(663,580,o),
(663,542,cs),
(663,502,o),
(640,474,o),
(591,433,cs),
(532,383,o),
(470,319,o),
(470,247,cs),
(470,86,o),
(632,-10,o),
(755,-10,cs),
(882,-10,o),
(989,66,o),
(989,211,cs),
(989,295,o),
(936,357,o),
(866,392,c),
(839,348,l),
(909,308,o),
(926,265,o),
(926,220,cs),
(926,137,o),
(862,93,o),
(763,93,cs),
(683,93,o),
(532,129,o),
(532,254,cs),
(532,316,o),
(583,362,o),
(633,406,cs),
(686,453,o),
(713,500,o),
(713,549,cs),
(713,614,o),
(660,649,o),
(610,649,cs),
(546,649,o),
(501,604,o),
(501,540,cs),
(501,481,o),
(533,441,o),
(586,396,cs),
(647,344,o),
(676,304,o),
(676,252,cs),
(676,201,o),
(646,92,o),
(396,92,cs),
(263,92,o),
(211,133,o),
(211,193,cs),
(211,241,o),
(250,273,o),
(294,307,cs),
(346,347,o),
(399,392,o),
(399,470,cs),
(399,544,o),
(353,591,o),
(257,591,cs),
(176,591,o),
(99,539,o),
(52,473,c),
(76,450,l),
(137,494,o),
(188,517,o),
(252,517,cs),
(309,517,o),
(344,495,o),
(344,459,cs),
(344,408,o),
(304,375,o),
(257,339,cs),
(202,297,o),
(142,250,o),
(142,163,cs),
(142,61,o),
(224,-10,o),
(384,-10,cs)
);
},
{
closed = 1;
nodes = (
(76,450,l),
(83,483,l),
(78,490,l),
(81,497,o),
(83,514,o),
(83,531,cs),
(83,591,l),
(26,591,l),
(26,450,l)
);
}
);
width = 1029;
}
);
},
{
glyphname = "sa_ta-divesakuru";
lastChange = "2022-01-28 16:15:27 +0000";
layers = (
{
anchors = (
{
name = bottom;
pos = (969,-276);
},
{
name = top;
pos = (990,590);
}
);
layerId = UUID0;
shapes = (
{
closed = 1;
nodes = (
(917,-271,o),
(1157,-145,o),
(1157,108,cs),
(1157,249,o),
(1062,337,o),
(924,348,c),
(915,506,o),
(828,589,o),
(712,589,cs),
(595,589,o),
(523,507,o),
(513,403,c),
(564,395,l),
(578,436,o),
(622,502,o),
(709,502,cs),
(778,502,o),
(848,461,o),
(862,349,c),
(811,346,o),
(775,343,o),
(741,336,cs),
(712,330,o),
(683,324,o),
(652,317,cs),
(602,306,o),
(542,293,o),
(464,281,cs),
(372,267,o),
(351,244,o),
(351,210,cs),
(351,186,o),
(359,167,o),
(368,148,cs),
(377,128,o),
(386,108,o),
(386,83,cs),
(386,53,o),
(363,38,o),
(321,38,cs),
(240,38,o),
(183,110,o),
(183,197,cs),
(183,281,o),
(251,319,o),
(387,325,c),
(387,370,l),
(263,374,o),
(135,381,o),
(135,462,cs),
(135,516,o),
(185,537,o),
(263,537,cs),
(313,537,o),
(352,530,o),
(400,520,c),
(419,567,l),
(358,584,o),
(305,589,o),
(250,589,cs),
(119,589,o),
(44,544,o),
(44,463,cs),
(44,386,o),
(134,350,o),
(223,336,c),
(158,321,o),
(89,272,o),
(89,193,cs),
(89,73,o),
(194,-11,o),
(314,-11,cs),
(376,-11,o),
(440,15,o),
(440,83,cs),
(440,110,o),
(434,133,o),
(427,153,cs),
(421,170,o),
(417,185,o),
(417,199,cs),
(417,216,o),
(424,225,o),
(457,231,cs),
(507,240,o),
(547,248,o),
(579,255,c),
(552,223,o),
(536,182,o),
(536,130,cs),
(536,36,o),
(596,-10,o),
(687,-10,cs),
(819,-10,o),
(916,108,o),
(924,294,c),
(1031,284,o),
(1097,212,o),
(1097,106,cs),
(1097,-118,o),
(869,-180,o),
(711,-180,cs),
(610,-180,o),
(539,-166,o),
(484,-145,c),
(470,-192,l),
(517,-235,o),
(611,-271,o),
(716,-271,cs)
);
},
{
closed = 1;
nodes = (
(633,46,o),
(606,77,o),
(606,136,cs),
(606,257,o),
(708,291,o),
(865,295,c),
(862,143,o),
(787,46,o),
(689,46,cs)
);
}
);
width = 1197;
}
);
},
{
glyphname = "sa_ta_medra-divesakuru";
lastChange = "2022-04-25 13:28:11 +0000";
layers = (
{
anchors = (
{
name = bottom;
pos = (1019,-486);
},
{
name = top;
pos = (1140,590);
},
{
name = topleft;
pos = (1175,264);
}
);
layerId = UUID0;
shapes = (
{
closed = 1;
nodes = (
(1046,-492,o),
(1312,-258,o),
(1312,82,cs),
(1312,222,o),
(1235,307,o),
(1140,307,cs),
(1101,307,o),
(1076,296,o),
(1044,268,c),
(1081,237,l),
(1098,251,o),
(1113,256,o),
(1134,256,cs),
(1202,256,o),
(1252,195,o),
(1252,88,cs),
(1252,-245,o),
(923,-407,o),
(574,-407,cs),
(347,-407,o),
(140,-358,o),
(-7,-284,c),
(-31,-332,l),
(110,-429,o),
(320,-492,o),
(571,-492,cs)
);
},
{
closed = 1;
nodes = (
(897,-271,o),
(1137,-145,o),
(1137,108,cs),
(1137,249,o),
(1042,337,o),
(904,348,c),
(895,506,o),
(808,589,o),
(692,589,cs),
(575,589,o),
(503,507,o),
(493,403,c),
(544,395,l),
(558,436,o),
(602,502,o),
(689,502,cs),
(758,502,o),
(828,461,o),
(842,349,c),
(791,346,o),
(755,343,o),
(721,336,cs),
(692,330,o),
(663,324,o),
(632,317,cs),
(582,306,o),
(522,293,o),
(444,281,cs),
(352,267,o),
(331,244,o),
(331,210,cs),
(331,186,o),
(339,167,o),
(348,148,cs),
(357,128,o),
(366,108,o),
(366,83,cs),
(366,53,o),
(343,38,o),
(301,38,cs),
(220,38,o),
(163,110,o),
(163,197,cs),
(163,281,o),
(231,319,o),
(367,325,c),
(367,370,l),
(243,374,o),
(115,381,o),
(115,462,cs),
(115,516,o),
(165,537,o),
(243,537,cs),
(293,537,o),
(332,530,o),
(380,520,c),
(399,567,l),
(338,584,o),
(285,589,o),
(230,589,cs),
(99,589,o),
(24,544,o),
(24,463,cs),
(24,386,o),
(114,350,o),
(203,336,c),
(138,321,o),
(69,272,o),
(69,193,cs),
(69,73,o),
(174,-11,o),
(294,-11,cs),
(356,-11,o),
(420,15,o),
(420,83,cs),
(420,110,o),
(414,133,o),
(407,153,cs),
(401,170,o),
(397,185,o),
(397,199,cs),
(397,216,o),
(404,225,o),
(437,231,cs),
(487,240,o),
(527,248,o),
(559,255,c),
(532,223,o),
(516,182,o),
(516,130,cs),
(516,36,o),
(576,-10,o),
(667,-10,cs),
(799,-10,o),
(896,108,o),
(904,294,c),
(1011,284,o),
(1077,212,o),
(1077,106,cs),
(1077,-118,o),
(849,-180,o),
(691,-180,cs),
(590,-180,o),
(519,-166,o),
(464,-145,c),
(450,-192,l),
(497,-235,o),
(591,-271,o),
(696,-271,cs)
);
},
{
closed = 1;
nodes = (
(613,46,o),
(586,77,o),
(586,136,cs),
(586,257,o),
(688,291,o),
(845,295,c),
(842,143,o),
(767,46,o),
(669,46,cs)
);
}
);
width = 1352;
}
);
},
{
glyphname = "sa_pa_medra-divesakuru";
lastChange = "2022-02-03 16:08:38 +0000";
layers = (
{
anchors = (
{
name = bottom;
pos = (1285,-276);
},
{
name = top;
pos = (1406,590);
},
{
name = topleft;
pos = (1417,368);
}
);
layerId = UUID0;
shapes = (
{
closed = 1;
nodes = (
(1376,-272,o),
(1598,-58,o),
(1598,158,cs),
(1598,283,o),
(1518,400,o),
(1386,410,c),
(1386,371,l),
(1503,355,o),
(1538,255,o),
(1538,163,cs),
(1538,-45,o),
(1253,-187,o),
(754,-187,cs),
(477,-187,o),
(250,-158,o),
(63,-84,c),
(39,-132,l),
(220,-229,o),
(450,-272,o),
(751,-272,cs)
);
},
{
closed = 1;
nodes = (
(356,-11,o),
(420,15,o),
(420,83,cs),
(420,110,o),
(413,129,o),
(406,146,cs),
(401,159,o),
(397,172,o),
(397,186,cs),
(397,203,o),
(404,210,o),
(437,210,cs),
(647,210,o),
(705,269,o),
(705,433,c),
(649,433,l),
(649,294,o),
(595,260,o),
(444,260,cs),
(358,260,o),
(335,232,o),
(335,197,cs),
(335,173,o),
(342,157,o),
(350,141,cs),
(358,124,o),
(366,107,o),
(366,83,cs),
(366,53,o),
(343,38,o),
(301,38,cs),
(220,38,o),
(163,110,o),
(163,197,cs),
(163,281,o),
(231,319,o),
(367,325,c),
(367,370,l),
(243,374,o),
(115,381,o),
(115,462,cs),
(115,516,o),
(165,537,o),
(243,537,cs),
(293,537,o),
(332,530,o),
(380,520,c),
(399,567,l),
(338,584,o),
(285,589,o),
(230,589,cs),
(99,589,o),
(24,544,o),
(24,463,cs),
(24,376,o),
(138,341,o),
(237,332,c),
(237,341,l),
(164,337,o),
(69,286,o),
(69,193,cs),
(69,73,o),
(174,-11,o),
(294,-11,cs)
);
},
{
closed = 1;
nodes = (
(1244,-10,o),
(1394,142,o),
(1394,336,cs),
(1394,363,o),
(1392,390,o),
(1389,410,c),
(1336,407,l),
(1339,386,o),
(1340,361,o),
(1340,345,cs),
(1340,179,o),
(1220,92,o),
(1039,92,cs),
(892,92,o),
(805,142,o),
(805,207,c),
(791,192,l),
(960,233,o),
(1041,337,o),
(1041,434,cs),
(1041,514,o),
(988,589,o),
(862,589,cs),
(732,589,o),
(647,528,o),
(647,450,cs),
(647,377,o),
(696,337,o),
(764,337,cs),
(828,337,o),
(883,367,o),
(883,446,cs),
(883,501,o),
(845,538,o),
(790,538,cs),
(780,538,o),
(764,537,o),
(756,535,c),
(766,517,l),
(787,526,o),
(818,537,o),
(860,537,cs),
(935,537,o),
(981,492,o),
(981,432,cs),
(981,377,o),
(949,279,o),
(750,239,c),
(750,227,ls),
(750,79,o),
(872,-10,o),
(1027,-10,cs)
);
},
{
closed = 1;
nodes = (
(723,388,o),
(704,413,o),
(704,449,cs),
(704,484,o),
(730,506,o),
(765,506,cs),
(809,506,o),
(826,478,o),
(826,449,cs),
(826,408,o),
(803,388,o),
(766,388,cs)
);
}
);
width = 1638;
}
);
},
{
glyphname = "sa_va-divesakuru";
lastChange = "2022-01-28 16:15:27 +0000";
layers = (
{
anchors = (
{
name = bottom;
pos = (899,-166);
},
{
name = top;
pos = (930,590);
}
);
layerId = UUID0;
shapes = (
{
closed = 1;
nodes = (
(1008,-90,o),
(1092,19,o),
(1092,114,cs),
(1092,170,o),
(1061,235,o),
(976,235,cs),
(941,235,o),
(904,221,o),
(874,203,c),
(899,159,l),
(928,174,o),
(949,181,o),
(974,181,cs),
(1012,181,o),
(1039,158,o),
(1039,122,cs),
(1039,61,o),
(972,12,o),
(860,12,cs),
(751,12,o),
(700,55,o),
(700,111,cs),
(700,142,o),
(710,170,o),
(765,209,cs),
(843,265,o),
(891,325,o),
(891,391,cs),
(891,464,o),
(845,501,o),
(702,501,cs),
(609,501,l),
(609,288,o),
(580,260,o),
(464,260,cs),
(378,260,o),
(355,232,o),
(355,197,cs),
(355,172,o),
(362,156,o),
(371,139,cs),
(379,124,o),
(386,107,o),
(386,83,cs),
(386,53,o),
(363,38,o),
(321,38,cs),
(240,38,o),
(183,110,o),
(183,197,cs),
(183,281,o),
(251,319,o),
(387,325,c),
(387,370,l),
(263,374,o),
(135,381,o),
(135,462,cs),
(135,516,o),
(185,537,o),
(263,537,cs),
(313,537,o),
(352,530,o),
(400,520,c),
(419,567,l),
(358,584,o),
(305,589,o),
(250,589,cs),
(119,589,o),
(44,544,o),
(44,463,cs),
(44,376,o),
(158,341,o),
(257,332,c),
(257,341,l),
(184,337,o),
(89,286,o),
(89,193,cs),
(89,73,o),
(194,-11,o),
(314,-11,cs),
(376,-11,o),
(440,15,o),
(440,83,cs),
(440,110,o),
(434,129,o),
(427,146,cs),
(421,160,o),
(417,172,o),
(417,186,cs),
(417,203,o),
(424,210,o),
(457,210,cs),
(607,210,o),
(663,269,o),
(663,447,c),
(722,447,ls),
(801,447,o),
(836,429,o),
(836,382,cs),
(836,339,o),
(810,298,o),
(749,256,cs),
(657,193,o),
(634,138,o),
(634,89,cs),
(634,-22,o),
(719,-90,o),
(848,-90,cs)
);
}
);
width = 1132;
}
);
},
{
glyphname = "sa_medya-divesakuru";
lastChange = "2022-02-03 16:50:14 +0000";
layers = (
{
anchors = (
{
name = bottom;
pos = (815,-88);
},
{
name = right;
pos = (1134,300);
},
{
name = top;
pos = (739,590);
},
{
name = topleft;
pos = (715,466);
},
{
name = topright;
pos = (869,495);
}
);
layerId = UUID0;
shapes = (
{
closed = 1;
nodes = (
(356,-11,o),
(420,15,o),
(420,83,cs),
(420,106,o),
(414,126,o),
(406,146,cs),
(400,160,o),
(397,172,o),
(397,186,cs),
(397,203,o),
(404,210,o),
(437,210,cs),
(589,210,o),
(647,269,o),
(647,487,c),
(591,487,l),
(591,292,o),
(552,260,o),
(444,260,cs),
(358,260,o),
(335,232,o),
(335,197,cs),
(335,172,o),
(342,156,o),
(351,139,cs),
(359,124,o),
(366,107,o),
(366,83,cs),
(366,53,o),
(343,38,o),
(301,38,cs),
(220,38,o),
(163,110,o),
(163,197,cs),
(163,281,o),
(231,319,o),
(367,325,c),
(367,370,l),
(243,374,o),
(115,381,o),
(115,462,cs),
(115,516,o),
(165,537,o),
(243,537,cs),
(293,537,o),
(332,530,o),
(380,520,c),
(399,567,l),
(338,584,o),
(285,589,o),
(230,589,cs),
(99,589,o),
(24,544,o),
(24,463,cs),
(24,376,o),
(138,341,o),
(237,332,c),
(237,341,l),
(164,337,o),
(69,286,o),
(69,193,cs),
(69,73,o),
(174,-11,o),
(294,-11,cs)
);
},
{
closed = 1;
nodes = (
(755,47,o),
(872,198,o),
(872,338,cs),
(872,481,o),
(763,511,o),
(707,511,cs),
(668,511,o),
(626,506,o),
(590,493,c),
(592,447,l),
(641,463,o),
(667,463,o),
(689,463,cs),
(744,463,o),
(802,432,o),
(802,330,cs),
(802,209,o),
(708,77,o),
(566,-56,c),
(606,-83,l)
);
},
{
closed = 1;
nodes = (
(856,-97,o),
(1086,59,o),
(1086,244,cs),
(1086,283,o),
(1074,313,o),
(1061,336,c),
(1014,328,l),
(1019,301,o),
(1022,279,o),
(1022,256,cs),
(1022,24,o),
(751,-56,o),
(566,-56,c),
(566,-97,l)
);
}
);
width = 1136;
}
);
},
{
glyphname = "sa_vowelI-divesakuru";
lastChange = "2022-02-03 17:12:46 +0000";
layers = (
{
anchors = (
{
name = bottom;
pos = (740,-38);
},
{
name = top;
pos = (692,714);
},
{
name = topleft;
pos = (665,622);
}
);
layerId = UUID0;
shapes = (
{
closed = 1;
nodes = (
(833,82,o),
(912,238,o),
(912,395,cs),
(912,571,o),
(825,689,o),
(690,689,cs),
(572,689,o),
(529,608,o),
(529,532,cs),
(529,499,o),
(538,471,o),
(548,441,cs),
(559,409,o),
(570,375,o),
(570,330,cs),
(570,282,o),
(552,260,o),
(444,260,cs),
(358,260,o),
(335,232,o),
(335,197,cs),
(335,172,o),
(342,156,o),
(351,139,cs),
(359,124,o),
(366,107,o),
(366,83,cs),
(366,53,o),
(343,38,o),
(301,38,cs),
(220,38,o),
(163,110,o),
(163,197,cs),
(163,281,o),
(231,319,o),
(367,325,c),
(367,370,l),
(243,374,o),
(115,381,o),
(115,462,cs),
(115,516,o),
(165,537,o),
(243,537,cs),
(293,537,o),
(332,530,o),
(380,520,c),
(399,567,l),
(338,584,o),
(285,589,o),
(230,589,cs),
(99,589,o),
(24,544,o),
(24,463,cs),
(24,376,o),
(138,341,o),
(237,332,c),
(237,341,l),
(164,337,o),
(69,286,o),
(69,193,cs),
(69,73,o),
(174,-11,o),
(294,-11,cs),
(356,-11,o),
(420,15,o),
(420,87,cs),
(420,110,o),
(412,134,o),
(407,146,cs),
(401,159,o),
(397,172,o),
(397,186,cs),
(397,203,o),
(404,210,o),
(437,210,cs),
(589,210,o),
(627,259,o),
(627,329,cs),
(627,365,o),
(616,400,o),
(604,436,cs),
(593,470,o),
(583,504,o),
(583,537,cs),
(583,589,o),
(610,637,o),
(691,637,cs),
(793,637,o),
(852,534,o),
(852,387,cs),
(852,249,o),
(786,112,o),
(705,19,c),
(737,-12,l)
);
}
);
width = 987;
}
);
},
{
glyphname = "sa_vowelU-divesakuru";
lastChange = "2022-02-03 17:14:01 +0000";
layers = (
{
anchors = (
{
name = bottom;
pos = (794,-187);
},
{
name = top;
pos = (772,653);
},
{
name = topleft;
pos = (735,456);
}
);
layerId = UUID0;
shapes = (
{
closed = 1;
nodes = (
(356,-11,o),
(420,15,o),
(420,83,cs),
(420,110,o),
(414,129,o),
(407,145,cs),
(401,159,o),
(397,172,o),
(397,186,cs),
(397,203,o),
(404,210,o),
(437,210,cs),
(589,210,o),
(647,269,o),
(647,487,c),
(591,487,l),
(591,292,o),
(552,260,o),
(444,260,cs),
(358,260,o),
(335,232,o),
(335,197,cs),
(335,172,o),
(342,156,o),
(351,139,cs),
(359,124,o),
(366,107,o),
(366,83,cs),
(366,53,o),
(343,38,o),
(301,38,cs),
(220,38,o),
(163,110,o),
(163,197,cs),
(163,281,o),
(231,319,o),
(367,325,c),
(367,370,l),
(243,374,o),
(115,381,o),
(115,462,cs),
(115,516,o),
(165,537,o),
(243,537,cs),
(293,537,o),
(332,530,o),
(380,520,c),
(399,567,l),
(338,584,o),
(285,589,o),
(230,589,cs),
(99,589,o),
(24,544,o),
(24,463,cs),
(24,376,o),
(138,341,o),
(237,332,c),
(237,341,l),
(164,337,o),
(69,286,o),
(69,193,cs),
(69,73,o),
(174,-11,o),
(294,-11,cs)
);
},
{
closed = 1;
nodes = (
(886,-147,o),
(927,-89,o),
(927,45,cs),
(927,306,ls),
(927,466,o),
(895,495,o),
(741,495,cs),
(591,495,l),
(591,438,l),
(764,438,ls),
(860,438,o),
(867,411,o),
(867,282,cs),
(867,60,ls),
(867,-35,o),
(862,-88,o),
(801,-88,cs),
(740,-88,o),
(731,-35,o),
(731,60,cs),
(731,313,l),
(675,313,l),
(675,45,ls),
(675,-89,o),
(716,-147,o),
(801,-147,cs)
);
}
);
width = 1017;
}
);
},
{
glyphname = "lla_vowelU-divesakuru";
lastChange = "2022-02-02 19:15:04 +0000";
layers = (
{
anchors = (
{
name = bottom;
pos = (305,-238);
},
{
name = top;
pos = (326,590);
}
);
layerId = UUID0;
shapes = (
{
closed = 1;
nodes = (
(511,-220,o),
(597,-148,o),
(597,-61,cs),
(597,-22,o),
(577,27,o),
(504,27,cs),
(449,27,o),
(401,-13,o),
(401,-102,c),
(455,-102,l),
(455,-45,o),
(475,-23,o),
(505,-23,cs),
(530,-23,o),
(544,-36,o),
(544,-59,cs),
(544,-90,o),
(520,-138,o),
(361,-138,cs),
(143,-138,o),
(98,-54,o),
(103,10,c),
(88,-4,l),
(121,-9,o),
(152,-11,o),
(217,-11,cs),
(401,-11,o),
(523,57,o),
(523,159,cs),
(523,250,o),
(416,304,o),
(344,308,c),
(345,299,l),
(415,306,o),
(519,358,o),
(519,446,cs),
(519,540,o),
(423,589,o),
(270,589,cs),
(117,589,o),
(35,545,o),
(35,459,cs),
(35,392,o),
(79,367,o),
(137,367,cs),
(190,367,o),
(236,392,o),
(236,458,cs),
(236,503,o),
(204,534,o),
(159,534,cs),
(150,534,o),
(137,533,o),
(130,532,c),
(154,517,l),
(175,526,o),
(206,537,o),
(266,537,cs),
(361,537,o),
(429,513,o),
(429,448,cs),
(429,367,o),
(333,325,o),
(218,321,c),
(218,276,l),
(327,271,o),
(431,243,o),
(431,160,cs),
(431,79,o),
(335,45,o),
(186,45,cs),
(132,45,o),
(102,46,o),
(49,51,c),
(49,33,ls),
(49,-126,o),
(137,-220,o),
(344,-220,cs)
);
},
{
closed = 1;
nodes = (
(101,408,o),
(85,429,o),
(85,459,cs),
(85,494,o),
(101,507,o),
(136,507,cs),
(172,507,o),
(187,483,o),
(187,459,cs),
(187,425,o),
(167,408,o),
(137,408,cs)
);
}
);
width = 577;
}
);
},
{
glyphname = "nasal_ga-divesakuru";
lastChange = "2022-01-28 16:15:27 +0000";
layers = (
{
layerId = UUID0;
shapes = (
{
closed = 1;
nodes = (
(487,-273,o),
(651,-173,o),
(651,26,cs),
(651,147,o),
(577,218,o),
(470,218,cs),
(377,218,o),
(326,156,o),
(326,97,cs),
(326,74,o),
(330,52,o),
(337,40,c),
(365,57,l),
(158,57,l),
(152,46,l),
(232,108,o),
(300,199,o),
(300,259,cs),
(300,323,o),
(244,340,o),
(182,344,c),
(183,335,l),
(243,342,o),
(312,400,o),
(312,476,cs),
(312,547,o),
(252,589,o),
(149,589,cs),
(104,589,o),
(53,584,o),
(2,567,c),
(21,520,l),
(59,530,o),
(96,537,o),
(136,537,cs),
(194,537,o),
(232,519,o),
(232,467,cs),
(232,406,o),
(173,361,o),
(86,357,c),
(86,315,l),
(173,312,o),
(224,301,o),
(224,251,cs),
(224,202,o),
(186,138,o),
(85,51,c),
(85,0,l),
(416,0,l),
(401,28,o),
(387,61,o),
(387,95,cs),
(387,138,o),
(419,164,o),
(468,164,cs),
(550,164,o),
(590,108,o),
(590,24,cs),
(590,-146,o),
(439,-182,o),
(340,-182,cs),
(249,-182,o),
(184,-168,o),
(119,-147,c),
(100,-189,l),
(148,-242,o),
(240,-273,o),
(335,-273,cs)
);
}
);
width = 691;
}
);
},
{
glyphname = "k-divesakuru";
lastChange = "2022-05-03 17:26:54 +0000";
layers = (
{
anchors = (
{
name = bottom;
pos = (505,-38);
},
{
name = top;
pos = (532,653);
},
{
name = topleft;
pos = (534,551);
}
);
layerId = UUID0;
shapes = (
{
closed = 1;
nodes = (
(818,0,l),
(999,563,o),
(1145,745,o),
(1407,745,c),
(1407,800,l),
(1140,800,o),
(960,626,o),
(785,34,c),
(819,111,l),
(819,291,o),
(804,600,o),
(517,600,cs),
(397,600,o),
(176,522,o),
(176,297,cs),
(176,123,o),
(285,0,o),
(440,0,cs),
(532,0,o),
(631,66,o),
(631,171,cs),
(631,249,o),
(582,292,o),
(471,307,c),
(473,296,l),
(566,309,o),
(619,359,o),
(619,430,cs),
(619,495,o),
(561,564,o),
(390,564,c),
(380,521,l),
(479,521,o),
(529,488,o),
(529,429,cs),
(529,381,o),
(509,323,o),
(352,319,c),
(352,274,l),
(518,265,o),
(535,210,o),
(535,166,cs),
(535,109,o),
(496,66,o),
(423,66,cs),
(325,66,o),
(237,150,o),
(237,299,cs),
(237,495,o),
(430,549,o),
(508,549,cs),
(760,549,o),
(769,285,o),
(769,0,c)
);
},
{
closed = 1;
nodes = (
(125,457,l),
(106,465,o),
(87,477,o),
(87,504,cs),
(87,543,o),
(136,573,o),
(200,573,cs),
(278,573,o),
(331,553,o),
(385,528,c),
(406,569,l),
(349,596,o),
(263,617,o),
(192,617,cs),
(68,617,o),
(10,552,o),
(10,488,cs),
(10,427,o),
(60,408,o),
(94,397,c)
);
}
);
width = 1157;
}
);
},
{
glyphname = "n-divesakuru";
lastChange = "2022-05-03 17:17:23 +0000";
layers = (
{
anchors = (
{
name = bottom;
pos = (415,-38);
},
{
name = top;
pos = (416,590);
},
{
name = topleft;
pos = (330,543);
}
);
layerId = UUID0;
shapes = (
{
closed = 1;
nodes = (
(711,-78,o),
(789,64,o),
(789,274,cs),
(789,468,o),
(718,589,o),
(577,589,cs),
(471,589,o),
(424,513,o),
(405,436,c),
(386,513,o),
(336,589,o),
(240,589,cs),
(111,589,o),
(35,493,o),
(35,369,cs),
(35,316,o),
(53,277,o),
(70,251,c),
(116,264,l),
(105,289,o),
(96,319,o),
(96,351,cs),
(96,454,o),
(165,493,o),
(241,493,cs),
(326,493,o),
(369,427,o),
(379,346,c),
(432,346,l),
(442,427,o),
(482,493,o),
(577,493,cs),
(675,493,o),
(733,429,o),
(733,256,cs),
(733,137,o),
(686,-13,o),
(608,-13,cs),
(579,-13,o),
(559,8,o),
(559,47,cs),
(559,120,o),
(599,218,o),
(722,375,cs),
(922,631,o),
(1075,745,o),
(1365,745,c),
(1365,800,l),
(1042,800,o),
(898,677,o),
(678,397,cs),
(553,238,o),
(502,125,o),
(502,34,cs),
(502,-40,o),
(542,-78,o),
(602,-78,cs)
);
}
);
width = 1065;
}
);
},
{
glyphname = "s-divesakuru";
lastChange = "2022-05-03 18:02:08 +0000";
layers = (
{
anchors = (
{
name = bottom;
pos = (445,-38);
},
{
name = top;
pos = (466,590);
},
{
name = topleft;
pos = (260,541);
}
);
layerId = UUID0;
shapes = (
{
closed = 1;
nodes = (
(356,-11,o),
(420,15,o),
(420,83,cs),
(420,110,o),
(414,129,o),
(407,145,cs),
(401,159,o),
(397,172,o),
(397,186,cs),
(397,203,o),
(404,210,o),
(437,210,cs),
(473,210,o),
(455,210,o),
(502,210,cs),
(623,210,o),
(675,240,o),
(827,509,cs),
(920,674,o),
(1005,745,o),
(1187,745,c),
(1187,800,l),
(1014,800,o),
(889,731,o),
(797,558,cs),
(686,348,o),
(626,260,o),
(521,260,cs),
(501,260,o),
(463,260,o),
(444,260,cs),
(358,260,o),
(335,232,o),
(335,197,cs),
(335,172,o),
(343,155,o),
(351,139,cs),
(359,123,o),
(366,107,o),
(366,83,cs),
(366,53,o),
(343,38,o),
(301,38,cs),
(220,38,o),
(163,110,o),
(163,197,cs),
(163,281,o),
(231,319,o),
(367,325,c),
(367,370,l),
(243,374,o),
(115,381,o),
(115,462,cs),
(115,516,o),
(165,537,o),
(243,537,cs),
(293,537,o),
(332,530,o),
(380,520,c),
(399,567,l),
(338,584,o),
(285,589,o),
(230,589,cs),
(99,589,o),
(24,544,o),
(24,463,cs),
(24,376,o),
(138,341,o),
(237,332,c),
(237,341,l),
(164,337,o),
(69,286,o),
(69,193,cs),
(69,73,o),
(174,-11,o),
(294,-11,cs)
);
}
);
width = 891;
}
);
},
{
glyphname = "t-divesakuru";
lastChange = "2022-05-03 17:23:50 +0000";
layers = (
{
anchors = (
{
name = bottom;
pos = (455,-38);
},
{
name = top;
pos = (476,590);
},
{
name = topleft;
pos = (310,543);
}
);
layerId = UUID0;
shapes = (
{
closed = 1;
nodes = (
(352,-10,o),
(452,119,o),
(452,319,cs),
(452,496,o),
(362,589,o),
(239,589,cs),
(122,589,o),
(50,507,o),
(40,403,c),
(91,395,l),
(105,436,o),
(149,502,o),
(236,502,cs),
(313,502,o),
(392,450,o),
(392,304,cs),
(392,147,o),
(316,46,o),
(216,46,cs),
(160,46,o),
(133,77,o),
(133,136,cs),
(133,246,o),
(250,315,o),
(426,315,cs),
(574,315,o),
(598,201,o),
(624,0,c),
(663,0,l),
(814,563,o),
(960,745,o),
(1222,745,c),
(1222,800,l),
(958,800,o),
(777,626,o),
(635,51,c),
(657,51,l),
(657,219,o),
(596,369,o),
(422,369,cs),
(216,369,o),
(63,273,o),
(63,130,cs),
(63,36,o),
(123,-10,o),
(214,-10,cs)
);
}
);
width = 972;
}
);
},
{
glyphname = "tt-divesakuru";
lastChange = "2022-05-03 17:30:01 +0000";
layers = (
{
anchors = (
{
name = bottom;
pos = (455,-38);
},
{
name = top;
pos = (476,590);
},
{
name = topleft;
pos = (270,543);
}
);
layerId = UUID0;
shapes = (
{
closed = 1;
nodes = (
(537,-10,o),
(679,56,o),
(838,344,cs),
(1017,668,o),
(1095,745,o),
(1337,745,c),
(1337,800,l),
(1094,800,o),
(994,736,o),
(808,390,cs),
(681,154,o),
(560,92,o),
(391,92,cs),
(249,92,o),
(179,134,o),
(179,238,c),
(155,194,l),
(272,252,o),
(419,334,o),
(419,471,cs),
(419,544,o),
(367,591,o),
(271,591,cs),
(190,591,o),
(113,539,o),
(66,473,c),
(90,450,l),
(151,494,o),
(202,517,o),
(266,517,cs),
(323,517,o),
(358,495,o),
(358,449,cs),
(358,375,o),
(259,300,o),
(114,241,c),
(114,229,ls),
(114,84,o),
(195,-10,o),
(369,-10,cs)
);
},
{
closed = 1;
nodes = (
(90,450,l),
(97,483,l),
(92,490,l),
(95,497,o),
(97,514,o),
(97,531,cs),
(97,591,l),
(40,591,l),
(40,450,l)
);
}
);
width = 1037;
}
);
},
{
glyphname = "tta_tt-divesakuru";
lastChange = "2022-02-02 01:32:35 +0000";
layers = (
{
layerId = UUID0;
shapes = (
{
closed = 1;
nodes = (
(800,-10,o),
(872,52,o),
(997,344,cs),
(1136,668,o),
(1214,745,o),
(1456,745,c),
(1456,800,l),
(1213,800,o),
(1113,736,o),
(967,390,cs),
(863,143,o),
(819,92,o),
(700,92,cs),
(598,92,o),
(561,147,o),
(561,219,c),
(511,219,l),
(511,84,o),
(576,-10,o),
(684,-10,cs)
);
},
{
closed = 1;
nodes = (
(80,450,l),
(87,483,l),
(82,490,l),
(85,497,o),
(87,514,o),
(87,531,cs),
(87,591,l),
(30,591,l),
(30,450,l)
);
},
{
closed = 1;
nodes = (
(484,-10,o),
(573,170,o),
(573,292,cs),
(573,317,o),
(572,336,o),
(568,359,c),
(514,357,l),
(517,339,o),
(519,318,o),
(519,294,cs),
(519,202,o),
(442,92,o),
(309,92,cs),
(216,92,o),
(166,125,o),
(156,187,c),
(142,172,l),
(269,240,o),
(382,334,o),
(382,471,cs),
(382,544,o),
(335,591,o),
(257,591,cs),
(178,591,o),
(103,539,o),
(56,473,c),
(80,450,l),
(141,494,o),
(190,517,o),
(244,517,cs),
(291,517,o),
(321,495,o),
(321,449,cs),
(321,375,o),
(256,285,o),
(101,216,c),
(102,204,ls),
(114,58,o),
(181,-10,o),
(300,-10,cs)
);
}
);
width = 1156;
}
);
},
{
glyphname = "na_dh-divesakuru";
lastChange = "2022-02-02 17:18:27 +0000";
layers = (
{
layerId = UUID0;
shapes = (
{
closed = 1;
nodes = (
(783,-10,o),
(889,113,o),
(889,214,cs),
(889,282,o),
(848,334,o),
(773,334,cs),
(719,334,o),
(660,295,o),
(660,207,cs),
(660,115,o),
(764,-10,o),
(901,-10,cs),
(1017,-10,o),
(1089,52,o),
(1214,344,cs),
(1353,668,o),
(1431,745,o),
(1673,745,c),
(1673,800,l),
(1430,800,o),
(1330,736,o),
(1184,390,cs),
(1080,143,o),
(1036,82,o),
(892,82,cs),
(791,82,o),
(713,125,o),
(713,206,cs),
(713,251,o),
(734,276,o),
(772,276,cs),
(806,276,o),
(828,251,o),
(828,212,cs),
(828,137,o),
(769,85,o),
(626,85,cs),
(496,85,o),
(438,139,o),
(438,201,c),
(424,176,l),
(541,263,o),
(619,328,o),
(619,443,cs),
(619,529,o),
(572,586,o),
(480,586,cs),
(389,586,o),
(342,514,o),
(323,447,c),
(304,514,o),
(258,586,o),
(177,586,cs),
(76,586,o),
(25,510,o),
(25,416,cs),
(25,371,o),
(42,323,o),
(60,296,c),
(106,309,l),
(95,334,o),
(86,364,o),
(86,396,cs),
(86,469,o),
(130,499,o),
(178,499,cs),
(248,499,o),
(286,438,o),
(296,367,c),
(349,367,l),
(359,438,o),
(397,499,o),
(470,499,cs),
(529,499,o),
(557,466,o),
(557,423,cs),
(557,369,o),
(532,309,o),
(387,211,c),
(387,199,ls),
(387,84,o),
(471,-10,o),
(614,-10,cs)
);
}
);
width = 1373;
}
);
},
{
glyphname = "ma_b-divesakuru";
lastChange = "2022-02-02 17:18:21 +0000";
layers = (
{
layerId = UUID0;
shapes = (
{
closed = 1;
nodes = (
(891,-70,o),
(969,52,o),
(1094,344,cs),
(1233,668,o),
(1311,745,o),
(1553,745,c),
(1553,800,l),
(1310,800,o),
(1210,736,o),
(1064,390,cs),
(960,143,o),
(910,32,o),
(736,32,cs),
(678,32,o),
(634,51,o),
(634,94,cs),
(634,130,o),
(657,161,o),
(683,192,cs),
(714,229,o),
(745,270,o),
(745,325,cs),
(745,367,o),
(716,408,o),
(654,408,cs),
(588,408,o),
(562,363,o),
(534,296,cs),
(475,156,o),
(410,92,o),
(314,92,cs),
(238,92,o),
(211,129,o),
(211,169,cs),
(211,207,o),
(236,244,o),
(292,280,cs),
(363,326,o),
(436,381,o),
(436,461,cs),
(436,534,o),
(376,589,o),
(255,589,cs),
(125,589,o),
(40,528,o),
(40,450,cs),
(40,377,o),
(89,337,o),
(157,337,cs),
(221,337,o),
(276,367,o),
(276,446,cs),
(276,501,o),
(238,538,o),
(183,538,cs),
(173,538,o),
(157,537,o),
(149,535,c),
(159,517,l),
(180,526,o),
(211,537,o),
(261,537,cs),
(323,537,o),
(376,512,o),
(376,459,cs),
(376,409,o),
(351,377,o),
(286,334,cs),
(186,268,o),
(145,221,o),
(145,146,cs),
(145,54,o),
(204,-10,o),
(302,-10,cs),
(443,-10,o),
(499,108,o),
(559,239,cs),
(594,316,o),
(610,349,o),
(650,349,cs),
(674,349,o),
(690,337,o),
(690,310,cs),
(690,278,o),
(669,250,o),
(642,219,cs),
(607,179,o),
(570,130,o),
(570,61,cs),
(570,-20,o),
(632,-70,o),
(725,-70,cs)
);
},
{
closed = 1;
nodes = (
(116,388,o),
(97,413,o),
(97,449,cs),
(97,484,o),
(123,506,o),
(158,506,cs),
(202,506,o),
(219,478,o),
(219,449,cs),
(219,408,o),
(196,388,o),
(159,388,cs)
);
}
);
width = 1253;
}
);
},
{
glyphname = "ya_u-divesakuru";
lastChange = "2022-05-03 17:25:02 +0000";
layers = (
{
anchors = (
{
name = bottom;
pos = (415,-38);
},
{
name = top;
pos = (436,590);
},
{
name = topleft;
pos = (292,537);
}
);
layerId = UUID0;
shapes = (
{
closed = 1;
nodes = (
(373,-10,o),
(497,151,o),
(497,355,cs),
(497,505,o),
(403,588,o),
(245,588,cs),
(160,588,o),
(76,569,o),
(8,546,c),
(35,476,l),
(109,503,o),
(175,515,o),
(239,515,cs),
(358,515,o),
(434,484,o),
(434,352,cs),
(434,175,o),
(341,56,o),
(224,56,cs),
(168,56,o),
(131,80,o),
(131,134,cs),
(131,184,o),
(160,214,o),
(217,214,cs),
(349,214,o),
(407,-7,o),
(554,-7,cs),
(652,-7,o),
(704,65,o),
(848,344,cs),
(1018,673,o),
(1089,745,o),
(1331,745,c),
(1331,800,l),
(1088,800,o),
(994,740,o),
(816,390,cs),
(685,133,o),
(646,57,o),
(561,57,cs),
(442,57,o),
(369,268,o),
(215,268,cs),
(120,268,o),
(63,210,o),
(63,126,cs),
(63,35,o),
(135,-10,o),
(217,-10,cs)
);
}
);
width = 1031;
}
);
},
{
glyphname = "ch-divesakuru";
lastChange = "2022-02-02 16:36:55 +0000";
layers = (
{
anchors = (
{
name = bottom;
pos = (614,-138);
},
{
name = top;
pos = (515,590);
}
);
layerId = UUID0;
shapes = (
{
closed = 1;
nodes = (
(606,-10,o),
(816,122,o),
(816,242,cs),
(816,272,o),
(807,295,o),
(797,317,cs),
(788,337,o),
(781,355,o),
(781,376,cs),
(781,412,o),
(809,442,o),
(864,442,cs),
(948,442,o),
(984,369,o),
(984,301,cs),
(984,189,o),
(902,131,o),
(812,131,cs),
(698,131,o),
(598,231,o),
(598,349,cs),
(598,517,o),
(715,602,o),
(857,602,cs),
(1122,602,o),
(1159,315,o),
(1179,0,c),
(1228,0,l),
(1359,563,o),
(1505,745,o),
(1767,745,c),
(1767,800,l),
(1500,800,o),
(1320,626,o),
(1195,34,c),
(1223,88,l),
(1203,324,o),
(1166,656,o),
(853,656,cs),
(681,656,o),
(540,537,o),
(540,344,cs),
(540,192,o),
(665,73,o),
(811,73,cs),
(931,73,o),
(1044,154,o),
(1044,308,cs),
(1044,438,o),
(960,509,o),
(860,509,cs),
(782,509,o),
(720,465,o),
(720,393,cs),
(720,356,o),
(732,333,o),
(746,311,cs),
(758,292,o),
(767,273,o),
(767,248,cs),
(767,159,o),
(582,92,o),
(391,92,cs),
(214,92,o),
(147,147,o),
(147,219,c),
(133,204,l),
(325,235,o),
(456,316,o),
(456,452,cs),
(456,548,o),
(393,581,o),
(281,581,cs),
(271,581,l),
(260,490,o),
(228,448,o),
(169,448,cs),
(122,448,o),
(105,471,o),
(105,520,cs),
(105,539,o),
(109,556,o),
(115,575,c),
(51,575,l),
(44,560,o),
(40,540,o),
(40,516,cs),
(40,432,o),
(88,393,o),
(161,393,cs),
(271,393,o),
(310,488,o),
(315,539,c),
(304,527,l),
(352,527,o),
(396,514,o),
(396,450,cs),
(396,356,o),
(322,284,o),
(92,251,c),
(92,239,ls),
(92,84,o),
(194,-10,o),
(379,-10,cs)
);
}
);
width = 1517;
}
);
},
{
glyphname = "ssa_tt-divesakuru";
lastChange = "2022-02-03 17:54:22 +0000";
layers = (
{
anchors = (
{
name = bottom;
pos = (801,-38);
},
{
name = top;
pos = (822,590);
}
);
layerId = UUID0;
shapes = (
{
closed = 1;
nodes = (
(589,-10,o),
(742,114,o),
(742,255,cs),
(742,327,o),
(694,372,o),
(618,432,cs),
(569,471,o),
(554,501,o),
(554,538,cs),
(554,575,o),
(572,601,o),
(608,601,cs),
(643,601,o),
(663,580,o),
(663,542,cs),
(663,502,o),
(640,474,o),
(591,433,cs),
(532,383,o),
(470,319,o),
(470,247,cs),
(470,83,o),
(619,-10,o),
(735,-10,cs),
(870,-10,o),
(958,46,o),
(1067,344,cs),
(1186,668,o),
(1270,745,o),
(1522,745,c),
(1522,800,l),
(1269,800,o),
(1162,736,o),
(1037,390,cs),
(946,139,o),
(889,93,o),
(741,93,cs),
(666,93,o),
(532,127,o),
(532,254,cs),
(532,316,o),
(583,362,o),
(633,406,cs),
(686,453,o),
(713,500,o),
(713,549,cs),
(713,614,o),
(660,649,o),
(610,649,cs),
(546,649,o),
(501,604,o),
(501,540,cs),
(501,481,o),
(533,441,o),
(586,396,cs),
(647,344,o),
(676,304,o),
(676,252,cs),
(676,201,o),
(646,92,o),
(396,92,cs),
(263,92,o),
(211,133,o),
(211,193,cs),
(211,241,o),
(250,273,o),
(294,307,cs),
(346,347,o),
(399,392,o),
(399,470,cs),
(399,544,o),
(353,591,o),
(257,591,cs),
(176,591,o),
(99,539,o),
(52,473,c),
(76,450,l),
(137,494,o),
(188,517,o),
(252,517,cs),
(309,517,o),
(344,495,o),
(344,459,cs),
(344,408,o),
(304,375,o),
(257,339,cs),
(202,297,o),
(142,250,o),
(142,163,cs),
(142,61,o),
(224,-10,o),
(384,-10,cs)
);
},
{
closed = 1;
nodes = (
(76,450,l),
(83,483,l),
(78,490,l),
(81,497,o),
(83,514,o),
(83,531,cs),
(83,591,l),
(26,591,l),
(26,450,l)
);
}
);
width = 1202;
}
);
},
{
glyphname = "yy-divesakuru";
lastChange = "2022-05-03 18:01:16 +0000";
layers = (
{
anchors = (
{
name = bottom;
pos = (415,-38);
},
{
name = top;
pos = (436,590);
},
{
name = topleft;
pos = (432,316);
}
);
layerId = UUID0;
shapes = (
{
closed = 1;
nodes = (
(428,-10,o),
(525,141,o),
(525,243,cs),
(525,312,o),
(482,364,o),
(405,364,cs),
(349,364,o),
(289,324,o),
(289,235,cs),
(289,137,o),
(404,-10,o),
(556,-10,cs),
(676,-10,o),
(748,51,o),
(863,344,cs),
(992,672,o),
(1080,745,o),
(1322,745,c),
(1322,800,l),
(1079,800,o),
(967,741,o),
(833,390,cs),
(739,143,o),
(685,83,o),
(535,83,cs),
(431,83,o),
(343,151,o),
(343,233,cs),
(343,280,o),
(365,304,o),
(404,304,cs),
(439,304,o),
(463,280,o),
(463,239,cs),
(463,167,o),
(411,86,o),
(268,86,cs),
(161,86,o),
(97,127,o),
(97,254,cs),
(97,295,o),
(103,335,o),
(115,378,c),
(69,389,l),
(51,354,o),
(40,305,o),
(40,247,cs),
(40,105,o),
(104,-10,o),
(257,-10,cs)
);
}
);
width = 1002;
}
);
},
{
glyphname = "p-divesakuru";
lastChange = "2022-05-03 17:28:06 +0000";
layers = (
{
anchors = (
{
name = bottom;
pos = (545,-38);
},
{
name = top;
pos = (566,590);
},
{
name = topleft;
pos = (262,536);
}
);
layerId = UUID0;
shapes = (
{
closed = 1;
nodes = (
(587,-10,o),
(729,56,o),
(888,344,cs),
(1067,668,o),
(1145,745,o),
(1387,745,c),
(1387,800,l),
(1144,800,o),
(1044,736,o),
(858,390,cs),
(731,154,o),
(610,92,o),
(441,92,cs),
(284,92,o),
(198,142,o),
(198,207,c),
(184,192,l),
(353,233,o),
(434,337,o),
(434,434,cs),
(434,514,o),
(381,589,o),
(255,589,cs),
(125,589,o),
(40,528,o),
(40,450,cs),
(40,377,o),
(89,337,o),
(157,337,cs),
(221,337,o),
(276,367,o),
(276,446,cs),
(276,501,o),
(238,538,o),
(183,538,cs),
(173,538,o),
(157,537,o),
(149,535,c),
(159,517,l),
(180,526,o),
(211,537,o),
(253,537,cs),
(328,537,o),
(374,492,o),
(374,432,cs),
(374,377,o),
(342,279,o),
(143,239,c),
(143,227,ls),
(143,79,o),
(265,-10,o),
(430,-10,cs)
);
},
{
closed = 1;
nodes = (
(116,388,o),
(97,413,o),
(97,449,cs),
(97,484,o),
(123,506,o),
(158,506,cs),
(202,506,o),
(219,478,o),
(219,449,cs),
(219,408,o),
(196,388,o),
(159,388,cs)
);
}
);
width = 1087;
}
);
},
{
glyphname = "ptouch-divesakuru";
lastChange = "2022-05-03 17:28:09 +0000";
layers = (
{
anchors = (
{
name = bottom;
pos = (545,-38);
},
{
name = top;
pos = (566,590);
},
{
name = topleft;
pos = (262,536);
}
);
layerId = UUID0;
shapes = (
{
closed = 1;
nodes = (
(587,-10,o),
(729,56,o),
(888,344,cs),
(1067,668,o),
(1145,745,o),
(1387,745,c),
(1387,800,l),
(1144,800,o),
(1044,736,o),
(858,390,cs),
(731,154,o),
(610,92,o),
(441,92,cs),
(284,92,o),
(198,142,o),
(198,207,c),
(184,192,l),
(353,233,o),
(434,337,o),
(434,434,cs),
(434,514,o),
(381,589,o),
(255,589,cs),
(125,589,o),
(40,528,o),
(40,450,cs),
(40,377,o),
(89,337,o),
(157,337,cs),
(221,337,o),
(276,367,o),
(276,446,cs),
(276,501,o),
(238,538,o),
(183,538,cs),
(173,538,o),
(157,537,o),
(149,535,c),
(159,517,l),
(180,526,o),
(211,537,o),
(253,537,cs),
(328,537,o),
(374,492,o),
(374,432,cs),
(374,377,o),
(342,279,o),
(143,239,c),
(143,227,ls),
(143,79,o),
(265,-10,o),
(430,-10,cs)
);
},
{
closed = 1;
nodes = (
(116,388,o),
(97,413,o),
(97,449,cs),
(97,484,o),
(123,506,o),
(158,506,cs),
(202,506,o),
(219,478,o),
(219,449,cs),
(219,408,o),
(196,388,o),
(159,388,cs)
);
}
);
width = 1087;
}
);
},
{
glyphname = "b-divesakuru";
lastChange = "2022-05-03 18:08:03 +0000";
layers = (
{
anchors = (
{
name = bottom;
pos = (475,-38);
},
{
name = top;
pos = (496,590);
},
{
name = topleft;
pos = (242,536);
}
);
layerId = UUID0;
shapes = (
{
closed = 1;
nodes = (
(487,-10,o),
(579,56,o),
(738,344,cs),
(917,668,o),
(995,745,o),
(1237,745,c),
(1237,800,l),
(994,800,o),
(894,736,o),
(708,390,cs),
(581,154,o),
(510,92,o),
(340,92,cs),
(237,92,o),
(204,132,o),
(199,173,c),
(358,235,o),
(434,340,o),
(434,434,cs),
(434,514,o),
(381,589,o),
(255,589,cs),
(125,589,o),
(40,528,o),
(40,450,cs),
(40,377,o),
(89,337,o),
(157,337,cs),
(221,337,o),
(276,367,o),
(276,446,cs),
(276,501,o),
(238,538,o),
(183,538,cs),
(173,538,o),
(157,537,o),
(149,535,c),
(159,517,l),
(180,526,o),
(211,537,o),
(253,537,cs),
(328,537,o),
(374,492,o),
(374,432,cs),
(374,377,o),
(342,275,o),
(143,215,c),
(143,203,ls),
(143,75,o),
(219,-10,o),
(340,-10,cs)
);
},
{
closed = 1;
nodes = (
(116,388,o),
(97,413,o),
(97,449,cs),
(97,484,o),
(123,506,o),
(158,506,cs),
(202,506,o),
(219,478,o),
(219,449,cs),
(219,408,o),
(196,388,o),
(159,388,cs)
);
}
);
width = 937;
}
);
},
{
glyphname = "dh-divesakuru";
lastChange = "2022-02-02 17:24:16 +0000";
layers = (
{
layerId = UUID0;
shapes = (
{
closed = 1;
nodes = (
(559,-10,o),
(664,113,o),
(664,214,cs),
(664,282,o),
(623,334,o),
(548,334,cs),
(494,334,o),
(435,295,o),
(435,207,cs),
(435,115,o),
(539,-10,o),
(669,-10,cs),
(786,-10,o),
(858,52,o),
(983,344,cs),
(1122,668,o),
(1200,745,o),
(1442,745,c),
(1442,800,l),
(1199,800,o),
(1099,736,o),
(953,390,cs),
(849,143,o),
(805,82,o),
(667,82,cs),
(566,82,o),
(488,125,o),
(488,206,cs),
(488,251,o),
(509,276,o),
(547,276,cs),
(581,276,o),
(603,251,o),
(603,212,cs),
(603,137,o),
(544,85,o),
(401,85,cs),
(309,85,o),
(259,108,o),
(259,165,cs),
(259,217,o),
(295,258,o),
(342,301,cs),
(389,344,o),
(435,387,o),
(435,461,cs),
(435,534,o),
(376,589,o),
(255,589,cs),
(125,589,o),
(40,528,o),
(40,450,cs),
(40,377,o),
(89,337,o),
(157,337,cs),
(221,337,o),
(276,367,o),
(276,446,cs),
(276,501,o),
(238,538,o),
(183,538,cs),
(173,538,o),
(157,537,o),
(149,535,c),
(159,517,l),
(180,526,o),
(211,537,o),
(261,537,cs),
(323,537,o),
(375,512,o),
(375,459,cs),
(375,396,o),
(335,359,o),
(293,321,cs),
(243,275,o),
(193,228,o),
(193,149,cs),
(193,24,o),
(294,-10,o),
(390,-10,cs)
);
},
{
closed = 1;
nodes = (
(116,388,o),
(97,413,o),
(97,449,cs),
(97,484,o),
(123,506,o),
(158,506,cs),
(202,506,o),
(219,478,o),
(219,449,cs),
(219,408,o),
(196,388,o),
(159,388,cs)
);
}
);
width = 1142;
}
);
},
{
glyphname = "ktouch-divesakuru";
lastChange = "2022-05-03 17:27:00 +0000";
layers = (
{
anchors = (
{
name = bottom;
pos = (505,-38);
},
{
name = top;
pos = (532,653);
},
{
name = topleft;
pos = (534,551);
}
);
layerId = UUID0;
shapes = (
{
closed = 1;
nodes = (
(818,0,l),
(999,563,o),
(1145,745,o),
(1407,745,c),
(1407,800,l),
(1140,800,o),
(960,626,o),
(785,34,c),
(819,111,l),
(819,291,o),
(804,600,o),
(517,600,cs),
(397,600,o),
(176,522,o),
(176,297,cs),
(176,123,o),
(285,0,o),
(440,0,cs),
(532,0,o),
(631,66,o),
(631,171,cs),
(631,249,o),
(582,292,o),
(471,307,c),
(473,296,l),
(566,309,o),
(619,359,o),
(619,430,cs),
(619,495,o),
(561,564,o),
(390,564,c),
(380,521,l),
(479,521,o),
(529,488,o),
(529,429,cs),
(529,381,o),
(509,323,o),
(352,319,c),
(352,274,l),
(518,265,o),
(535,210,o),
(535,166,cs),
(535,109,o),
(496,66,o),
(423,66,cs),
(325,66,o),
(237,150,o),
(237,299,cs),
(237,495,o),
(430,549,o),
(508,549,cs),
(760,549,o),
(769,285,o),
(769,0,c)
);
},
{
closed = 1;
nodes = (
(125,457,l),
(106,465,o),
(87,477,o),
(87,504,cs),
(87,543,o),
(136,573,o),
(200,573,cs),
(278,573,o),
(331,553,o),
(385,528,c),
(406,569,l),
(349,596,o),
(263,617,o),
(192,617,cs),
(68,617,o),
(10,552,o),
(10,488,cs),
(10,427,o),
(60,408,o),
(94,397,c)
);
}
);
width = 1157;
}
);
},
{
glyphname = "ntouch-divesakuru";
lastChange = "2022-05-03 17:16:04 +0000";
layers = (
{
anchors = (
{
name = bottom;
pos = (415,-38);
},
{
name = top;
pos = (416,590);
},
{
name = topleft;
pos = (330,543);
}
);
layerId = UUID0;
shapes = (
{
closed = 1;
nodes = (
(711,-78,o),
(789,64,o),
(789,274,cs),
(789,468,o),
(718,589,o),
(577,589,cs),
(471,589,o),
(424,513,o),
(405,436,c),
(386,513,o),
(336,589,o),
(240,589,cs),
(111,589,o),
(35,493,o),
(35,369,cs),
(35,316,o),
(53,277,o),
(70,251,c),
(116,264,l),
(105,289,o),
(96,319,o),
(96,351,cs),
(96,454,o),
(165,493,o),
(241,493,cs),
(326,493,o),
(369,427,o),
(379,346,c),
(432,346,l),
(442,427,o),
(482,493,o),
(577,493,cs),
(675,493,o),
(733,429,o),
(733,256,cs),
(733,137,o),
(686,-13,o),
(608,-13,cs),
(579,-13,o),
(559,8,o),
(559,47,cs),
(559,120,o),
(599,218,o),
(722,375,cs),
(922,631,o),
(1075,745,o),
(1365,745,c),
(1365,800,l),
(1042,800,o),
(898,677,o),
(678,397,cs),
(553,238,o),
(502,125,o),
(502,34,cs),
(502,-40,o),
(542,-78,o),
(602,-78,cs)
);
}
);
width = 1065;
}
);
},
{
glyphname = "ttouch-divesakuru";
lastChange = "2022-05-03 17:23:47 +0000";
layers = (
{
anchors = (
{
name = bottom;
pos = (455,-38);
},
{
name = top;
pos = (476,590);
},
{
name = topleft;
pos = (310,543);
}
);
layerId = UUID0;
shapes = (
{
closed = 1;
nodes = (
(352,-10,o),
(452,119,o),
(452,319,cs),
(452,496,o),
(362,589,o),
(239,589,cs),
(122,589,o),
(50,507,o),
(40,403,c),
(91,395,l),
(105,436,o),
(149,502,o),
(236,502,cs),
(313,502,o),
(392,450,o),
(392,304,cs),
(392,147,o),
(316,46,o),
(216,46,cs),
(160,46,o),
(133,77,o),
(133,136,cs),
(133,246,o),
(250,315,o),
(426,315,cs),
(574,315,o),
(598,201,o),
(624,0,c),
(663,0,l),
(814,563,o),
(960,745,o),
(1222,745,c),
(1222,800,l),
(958,800,o),
(777,626,o),
(635,51,c),
(657,51,l),
(657,219,o),
(596,369,o),
(422,369,cs),
(216,369,o),
(63,273,o),
(63,130,cs),
(63,36,o),
(123,-10,o),
(214,-10,cs)
);
}
);
width = 972;
}
);
},
{
glyphname = "atouch-divesakuru";
lastChange = "2022-05-03 18:00:25 +0000";
layers = (
{
anchors = (
{
name = bottom;
pos = (466,-202);
},
{
name = top;
pos = (576,590);
},
{
name = topleft;
pos = (252,607);
},
{
name = topright;
pos = (707,366);
}
);
layerId = UUID0;
shapes = (
{
closed = 1;
nodes = (
(790,-210,o),
(856,-120,o),
(856,-16,cs),
(856,73,o),
(800,138,o),
(740,160,c),
(744,149,l),
(795,169,o),
(841,210,o),
(841,284,cs),
(841,363,o),
(763,459,o),
(603,459,cs),
(417,459,o),
(266,330,o),
(266,131,cs),
(266,37,o),
(303,-17,o),
(376,-17,cs),
(432,-17,o),
(478,16,o),
(478,77,cs),
(478,156,o),
(401,215,o),
(286,223,cs),
(169,231,o),
(109,238,o),
(109,289,cs),
(109,400,o),
(353,384,o),
(353,542,cs),
(353,602,o),
(319,659,o),
(236,659,cs),
(161,659,o),
(115,614,o),
(115,546,cs),
(115,473,o),
(163,433,o),
(231,433,cs),
(291,433,o),
(334,463,o),
(334,536,cs),
(334,588,o),
(303,634,o),
(258,634,cs),
(248,634,o),
(232,633,o),
(220,619,c),
(236,607,l),
(286,607,o),
(300,579,o),
(300,519,cs),
(300,415,o),
(43,433,o),
(43,285,cs),
(43,186,o),
(153,178,o),
(262,171,cs),
(367,164,o),
(418,131,o),
(418,76,cs),
(418,48,o),
(398,34,o),
(377,34,cs),
(342,34,o),
(324,65,o),
(324,131,cs),
(324,309,o),
(454,407,o),
(593,407,cs),
(727,407,o),
(765,341,o),
(765,276,cs),
(765,232,o),
(744,178,o),
(673,169,c),
(673,130,l),
(750,115,o),
(777,52,o),
(777,-15,cs),
(777,-85,o),
(756,-157,o),
(704,-157,cs),
(640,-157,o),
(612,-69,o),
(612,53,cs),
(612,160,o),
(641,287,o),
(760,351,c),
(717,383,l),
(629,334,o),
(547,214,o),
(547,51,cs),
(547,-96,o),
(606,-210,o),
(698,-210,cs)
);
},
{
closed = 1;
nodes = (
(191,484,o),
(172,509,o),
(172,545,cs),
(172,580,o),
(198,602,o),
(233,602,cs),
(277,602,o),
(294,574,o),
(294,545,cs),
(294,504,o),
(271,484,o),
(234,484,cs)
);
}
);
width = 931;
}
);
},
{
glyphname = "etouch-divesakuru";
lastChange = "2022-05-03 18:00:08 +0000";
layers = (
{
anchors = (
{
name = bottom;
pos = (435,-38);
},
{
name = right;
pos = (792,304);
},
{
name = top;
pos = (566,590);
},
{
name = topleft;
pos = (367,543);
}
);
layerId = UUID0;
shapes = (
{
closed = 1;
nodes = (
(352,-10,o),
(472,163,o),
(472,350,cs),
(472,497,o),
(402,581,o),
(298,581,cs),
(288,581,l),
(277,490,o),
(245,450,o),
(186,450,cs),
(139,450,o),
(122,471,o),
(122,520,cs),
(122,539,o),
(126,556,o),
(132,575,c),
(65,575,l),
(58,560,o),
(54,540,o),
(54,516,cs),
(54,432,o),
(105,393,o),
(178,393,cs),
(288,393,o),
(327,488,o),
(332,539,c),
(321,524,l),
(361,524,o),
(412,463,o),
(412,345,cs),
(412,195,o),
(312,57,o),
(196,57,cs),
(147,57,o),
(108,78,o),
(108,130,cs),
(108,187,o),
(139,214,o),
(194,214,cs),
(311,214,o),
(380,-7,o),
(541,-7,cs),
(666,-7,o),
(754,110,o),
(754,250,cs),
(754,308,o),
(743,357,o),
(725,392,c),
(662,381,l),
(674,338,o),
(680,298,o),
(680,257,cs),
(680,142,o),
(635,68,o),
(545,68,cs),
(419,68,o),
(341,268,o),
(192,268,cs),
(97,268,o),
(40,210,o),
(40,126,cs),
(40,35,o),
(112,-10,o),
(194,-10,cs)
);
}
);
width = 794;
}
);
},
{
glyphname = "gatouch-divesakuru";
lastChange = "2022-02-03 16:19:30 +0000";
layers = (
{
anchors = (
{
name = bottom;
pos = (375,-38);
},
{
name = halant;
pos = (665,374);
},
{
name = ra;
pos = (90,590);
},
{
name = top;
pos = (148,714);
}
);
layerId = UUID0;
shapes = (
{
closed = 1;
nodes = (
(546,-10,o),
(696,127,o),
(696,354,cs),
(696,487,o),
(612,587,o),
(487,587,cs),
(378,587,o),
(309,517,o),
(309,421,cs),
(309,386,o),
(317,359,o),
(329,331,c),
(357,348,l),
(252,348,ls),
(186,348,o),
(175,365,o),
(175,464,cs),
(175,671,l),
(119,671,l),
(119,440,ls),
(119,310,o),
(151,291,o),
(245,291,cs),
(413,291,l),
(395,319,o),
(367,366,o),
(367,422,cs),
(367,502,o),
(420,533,o),
(485,533,cs),
(585,533,o),
(635,448,o),
(635,352,cs),
(635,154,o),
(498,81,o),
(320,81,cs),
(239,81,o),
(164,95,o),
(99,116,c),
(80,74,l),
(128,21,o),
(230,-10,o),
(315,-10,cs)
);
}
);
width = 746;
}
);
},
{
glyphname = "itouch-divesakuru";
lastChange = "2022-05-03 18:00:43 +0000";
layers = (
{
anchors = (
{
name = bottom;
pos = (456,-292);
},
{
name = top;
pos = (472,590);
},
{
name = topleft;
pos = (136,607);
},
{
name = topright;
pos = (617,334);
}
);
layerId = UUID0;
shapes = (
{
closed = 1;
nodes = (
(519,-271,o),
(779,-124,o),
(779,163,cs),
(779,316,o),
(684,436,o),
(497,436,cs),
(325,436,o),
(163,287,o),
(163,134,cs),
(163,22,o),
(228,-17,o),
(294,-17,cs),
(354,-17,o),
(409,26,o),
(409,97,cs),
(409,194,o),
(340,284,o),
(84,342,c),
(99,316,l),
(158,373,o),
(238,453,o),
(238,561,cs),
(238,620,o),
(190,659,o),
(124,659,cs),
(62,659,o),
(23,631,o),
(23,587,cs),
(23,545,o),
(44,530,o),
(73,530,cs),
(101,530,o),
(124,544,o),
(124,579,cs),
(124,604,o),
(109,624,o),
(87,624,cs),
(82,624,o),
(77,622,o),
(77,618,c),
(102,613,l),
(165,613,o),
(179,590,o),
(179,557,cs),
(179,469,o),
(95,379,o),
(45,326,c),
(45,292,l),
(333,227,o),
(349,151,o),
(349,100,cs),
(349,61,o),
(325,41,o),
(295,41,cs),
(261,41,o),
(225,61,o),
(225,137,cs),
(225,267,o),
(359,382,o),
(501,382,cs),
(657,382,o),
(719,277,o),
(719,161,cs),
(719,-97,o),
(471,-180,o),
(313,-180,cs),
(192,-180,o),
(117,-166,o),
(52,-145,c),
(38,-192,l),
(95,-235,o),
(193,-271,o),
(318,-271,cs)
);
}
);
width = 819;
}
);
},
{
glyphname = "katouch-divesakuru";
lastChange = "2022-05-03 17:26:21 +0000";
layers = (
{
anchors = (
{
name = bottom;
pos = (505,-276);
},
{
name = right;
pos = (938,300);
},
{
name = top;
pos = (532,653);
},
{
name = topleft;
pos = (534,551);
},
{
name = topright;
pos = (674,495);
}
);
layerId = UUID0;
shapes = (
{
closed = 1;
nodes = (
(725,-235,o),
(904,11,o),
(904,254,cs),
(904,466,o),
(775,598,o),
(554,598,cs),
(387,598,o),
(176,520,o),
(176,295,cs),
(176,121,o),
(285,-2,o),
(440,-2,cs),
(532,-2,o),
(631,64,o),
(631,169,cs),
(631,247,o),
(582,290,o),
(471,305,c),
(473,294,l),
(566,307,o),
(619,357,o),
(619,428,cs),
(619,493,o),
(561,562,o),
(390,562,c),
(380,519,l),
(479,519,o),
(529,486,o),
(529,427,cs),
(529,379,o),
(509,321,o),
(352,317,c),
(352,272,l),
(518,263,o),
(535,208,o),
(535,164,cs),
(535,107,o),
(496,64,o),
(423,64,cs),
(325,64,o),
(237,148,o),
(237,297,cs),
(237,493,o),
(420,547,o),
(548,547,cs),
(732,547,o),
(842,439,o),
(842,270,cs),
(842,33,o),
(663,-143,o),
(418,-143,cs),
(303,-143,o),
(212,-118,o),
(125,-76,c),
(99,-128,l),
(180,-187,o),
(273,-235,o),
(414,-235,cs)
);
},
{
closed = 1;
nodes = (
(125,455,l),
(106,463,o),
(87,475,o),
(87,502,cs),
(87,541,o),
(136,571,o),
(200,571,cs),
(278,571,o),
(331,551,o),
(385,526,c),
(406,567,l),
(349,594,o),
(263,615,o),
(192,615,cs),
(68,615,o),
(10,550,o),
(10,486,cs),
(10,425,o),
(60,406,o),
(94,395,c)
);
}
);
width = 944;
}
);
},
{
glyphname = "patouch-divesakuru";
lastChange = "2022-05-03 17:28:01 +0000";
layers = (
{
anchors = (
{
name = bottom;
pos = (545,-38);
},
{
name = halant;
pos = (773,380);
},
{
name = top;
pos = (566,590);
},
{
name = topleft;
pos = (262,536);
}
);
layerId = UUID0;
shapes = (
{
closed = 1;
nodes = (
(657,-10,o),
(818,142,o),
(818,336,cs),
(818,363,o),
(816,390,o),
(813,410,c),
(760,407,l),
(763,386,o),
(764,361,o),
(764,345,cs),
(764,179,o),
(633,92,o),
(442,92,cs),
(285,92,o),
(198,142,o),
(198,207,c),
(184,192,l),
(353,233,o),
(434,337,o),
(434,434,cs),
(434,514,o),
(381,589,o),
(255,589,cs),
(125,589,o),
(40,528,o),
(40,450,cs),
(40,377,o),
(89,337,o),
(157,337,cs),
(221,337,o),
(276,367,o),
(276,446,cs),
(276,501,o),
(238,538,o),
(183,538,cs),
(173,538,o),
(157,537,o),
(149,535,c),
(159,517,l),
(180,526,o),
(211,537,o),
(253,537,cs),
(328,537,o),
(374,492,o),
(374,432,cs),
(374,377,o),
(342,279,o),
(143,239,c),
(143,227,ls),
(143,79,o),
(265,-10,o),
(430,-10,cs)
);
},
{
closed = 1;
nodes = (
(116,388,o),
(97,413,o),
(97,449,cs),
(97,484,o),
(123,506,o),
(158,506,cs),
(202,506,o),
(219,478,o),
(219,449,cs),
(219,408,o),
(196,388,o),
(159,388,cs)
);
}
);
width = 858;
}
);
},
{
glyphname = "llatouch-divesakuru";
lastChange = "2022-05-03 17:28:51 +0000";
layers = (
{
anchors = (
{
name = bottom;
pos = (305,-248);
},
{
name = halant;
pos = (454,374);
},
{
name = top;
pos = (326,590);
},
{
name = topleft;
pos = (259,547);
}
);
layerId = UUID0;
shapes = (
{
closed = 1;
nodes = (
(438,-220,o),
(550,-142,o),
(557,-13,c),
(508,-13,l),
(498,-83,o),
(441,-138,o),
(295,-138,cs),
(133,-138,o),
(88,-54,o),
(93,10,c),
(78,-4,l),
(111,-9,o),
(142,-11,o),
(207,-11,cs),
(391,-11,o),
(513,57,o),
(513,159,cs),
(513,250,o),
(406,304,o),
(334,308,c),
(335,299,l),
(405,306,o),
(509,358,o),
(509,446,cs),
(509,540,o),
(413,589,o),
(260,589,cs),
(107,589,o),
(25,545,o),
(25,459,cs),
(25,392,o),
(69,367,o),
(127,367,cs),
(180,367,o),
(226,392,o),
(226,458,cs),
(226,503,o),
(194,534,o),
(149,534,cs),
(140,534,o),
(127,533,o),
(120,532,c),
(144,517,l),
(165,526,o),
(196,537,o),
(256,537,cs),
(351,537,o),
(412,513,o),
(412,448,cs),
(412,367,o),
(323,325,o),
(208,321,c),
(208,276,l),
(317,271,o),
(414,243,o),
(414,160,cs),
(414,79,o),
(325,45,o),
(176,45,cs),
(122,45,o),
(92,46,o),
(39,51,c),
(39,33,ls),
(39,-126,o),
(127,-220,o),
(289,-220,cs)
);
},
{
closed = 1;
nodes = (
(91,408,o),
(75,429,o),
(75,459,cs),
(75,494,o),
(91,507,o),
(126,507,cs),
(162,507,o),
(177,483,o),
(177,459,cs),
(177,425,o),
(157,408,o),
(127,408,cs)
);
}
);
width = 607;
}
);
},
{
glyphname = "matouch-divesakuru";
lastChange = "2022-05-03 17:59:06 +0000";
layers = (
{
anchors = (
{
name = bottom;
pos = (388,-38);
},
{
name = ra;
pos = (60,589);
},
{
name = right;
pos = (658,300);
},
{
name = top;
pos = (486,590);
},
{
name = topleft;
pos = (262,537);
}
);
layerId = UUID0;
shapes = (
{
closed = 1;
nodes = (
(568,-10,o),
(642,98,o),
(642,188,cs),
(642,244,o),
(611,309,o),
(526,309,cs),
(491,309,o),
(454,295,o),
(424,277,c),
(449,233,l),
(478,248,o),
(499,255,o),
(524,255,cs),
(562,255,o),
(589,232,o),
(589,196,cs),
(589,140,o),
(532,92,o),
(400,92,cs),
(282,92,o),
(221,137,o),
(221,185,cs),
(221,215,o),
(236,244,o),
(292,280,cs),
(363,326,o),
(436,381,o),
(436,461,cs),
(436,534,o),
(376,589,o),
(255,589,cs),
(125,589,o),
(40,528,o),
(40,450,cs),
(40,377,o),
(89,337,o),
(157,337,cs),
(221,337,o),
(276,367,o),
(276,446,cs),
(276,501,o),
(238,538,o),
(183,538,cs),
(173,538,o),
(157,537,o),
(149,535,c),
(159,517,l),
(180,526,o),
(211,537,o),
(261,537,cs),
(323,537,o),
(376,512,o),
(376,459,cs),
(376,409,o),
(351,377,o),
(286,334,cs),
(186,268,o),
(155,229,o),
(155,162,cs),
(155,62,o),
(248,-10,o),
(388,-10,cs)
);
},
{
closed = 1;
nodes = (
(116,388,o),
(97,413,o),
(97,449,cs),
(97,484,o),
(123,506,o),
(158,506,cs),
(202,506,o),
(219,478,o),
(219,449,cs),
(219,408,o),
(196,388,o),
(159,388,cs)
);
}
);
width = 692;
}
);
},
{
glyphname = "natouch-divesakuru";
lastChange = "2022-05-03 17:17:51 +0000";
layers = (
{
anchors = (
{
name = bottom;
pos = (415,-38);
},
{
name = medra;
pos = (718,489);
},
{
name = top;
pos = (416,590);
},
{
name = topleft;
pos = (330,543);
},
{
name = topright;
pos = (589,494);
}
);
layerId = UUID0;
shapes = (
{
closed = 1;
nodes = (
(625,-6,o),
(783,165,o),
(783,365,cs),
(783,493,o),
(706,589,o),
(577,589,cs),
(471,589,o),
(424,513,o),
(405,436,c),
(386,513,o),
(336,589,o),
(240,589,cs),
(111,589,o),
(35,493,o),
(35,369,cs),
(35,316,o),
(53,277,o),
(70,251,c),
(116,264,l),
(105,289,o),
(96,319,o),
(96,351,cs),
(96,454,o),
(165,493,o),
(241,493,cs),
(326,493,o),
(369,427,o),
(379,346,c),
(432,346,l),
(442,427,o),
(482,493,o),
(577,493,cs),
(653,493,o),
(723,454,o),
(723,348,cs),
(723,197,o),
(576,82,o),
(415,82,cs),
(354,82,o),
(303,93,o),
(265,105,c),
(246,52,l),
(292,15,o),
(361,-6,o),
(431,-6,cs)
);
}
);
width = 823;
}
);
},
{
glyphname = "ratouch-divesakuru";
lastChange = "2022-05-03 17:58:46 +0000";
layers = (
{
anchors = (
{
name = bottom;
pos = (229,-38);
},
{
name = top;
pos = (250,590);
},
{
name = topleft;
pos = (182,467);
}
);
layerId = UUID0;
shapes = (
{
closed = 1;
nodes = (
(324,-11,o),
(365,42,o),
(365,156,cs),
(365,318,ls),
(365,411,o),
(350,428,o),
(270,454,cs),
(19,535,l),
(3,474,l),
(251,395,ls),
(297,380,o),
(303,370,o),
(303,316,cs),
(303,171,ls),
(303,96,o),
(300,48,o),
(230,48,cs),
(168,48,o),
(159,96,o),
(159,171,cs),
(159,455,l),
(103,455,l),
(103,156,ls),
(103,42,o),
(144,-11,o),
(230,-11,cs)
);
}
);
width = 455;
}
);
},
{
glyphname = "tatouch-divesakuru";
lastChange = "2022-05-03 17:23:58 +0000";
layers = (
{
anchors = (
{
name = bottom;
pos = (455,-276);
},
{
name = top;
pos = (476,590);
},
{
name = topleft;
pos = (310,543);
}
);
layerId = UUID0;
shapes = (
{
closed = 1;
nodes = (
(487,-271,o),
(727,-145,o),
(727,122,cs),
(727,269,o),
(628,369,o),
(465,369,cs),
(249,369,o),
(86,273,o),
(86,130,cs),
(86,36,o),
(156,-10,o),
(247,-10,cs),
(385,-10,o),
(495,119,o),
(495,319,cs),
(495,496,o),
(405,589,o),
(282,589,cs),
(165,589,o),
(93,507,o),
(83,403,c),
(134,395,l),
(148,436,o),
(192,502,o),
(279,502,cs),
(356,502,o),
(435,450,o),
(435,304,cs),
(435,147,o),
(349,46,o),
(249,46,cs),
(193,46,o),
(156,77,o),
(156,136,cs),
(156,246,o),
(283,315,o),
(469,315,cs),
(601,315,o),
(667,230,o),
(667,120,cs),
(667,-118,o),
(439,-180,o),
(281,-180,cs),
(180,-180,o),
(109,-166,o),
(54,-145,c),
(40,-192,l),
(87,-235,o),
(181,-271,o),
(286,-271,cs)
);
}
);
width = 767;
}
);
},
{
glyphname = "yatouch-divesakuru";
lastChange = "2022-05-03 17:25:07 +0000";
layers = (
{
anchors = (
{
name = bottom;
pos = (415,-38);
},
{
name = top;
pos = (436,590);
},
{
name = topleft;
pos = (292,537);
}
);
layerId = UUID0;
shapes = (
{
closed = 1;
nodes = (
(373,-10,o),
(497,151,o),
(497,355,cs),
(497,505,o),
(403,588,o),
(245,588,cs),
(160,588,o),
(76,569,o),
(8,546,c),
(35,476,l),
(109,503,o),
(175,515,o),
(239,515,cs),
(358,515,o),
(434,484,o),
(434,352,cs),
(434,175,o),
(341,56,o),
(224,56,cs),
(168,56,o),
(131,80,o),
(131,134,cs),
(131,184,o),
(160,214,o),
(217,214,cs),
(334,214,o),
(403,-7,o),
(564,-7,cs),
(689,-7,o),
(777,110,o),
(777,250,cs),
(777,308,o),
(766,357,o),
(748,392,c),
(685,381,l),
(697,338,o),
(703,298,o),
(703,257,cs),
(703,142,o),
(656,67,o),
(570,67,cs),
(440,67,o),
(364,268,o),
(215,268,cs),
(120,268,o),
(63,210,o),
(63,126,cs),
(63,35,o),
(135,-10,o),
(217,-10,cs)
);
}
);
width = 817;
}
);
},
{
glyphname = "ya_utouch-divesakuru";
lastChange = "2022-05-03 17:25:09 +0000";
layers = (
{
anchors = (
{
name = bottom;
pos = (415,-38);
},
{
name = top;
pos = (436,590);
},
{
name = topleft;
pos = (292,537);
}
);
layerId = UUID0;
shapes = (
{
closed = 1;
nodes = (
(373,-10,o),
(497,151,o),
(497,355,cs),
(497,505,o),
(403,588,o),
(245,588,cs),
(160,588,o),
(76,569,o),
(8,546,c),
(35,476,l),
(109,503,o),
(175,515,o),
(239,515,cs),
(358,515,o),
(434,484,o),
(434,352,cs),
(434,175,o),
(341,56,o),
(224,56,cs),
(168,56,o),
(131,80,o),
(131,134,cs),
(131,184,o),
(160,214,o),
(217,214,cs),
(349,214,o),
(407,-7,o),
(554,-7,cs),
(652,-7,o),
(704,65,o),
(848,344,cs),
(1018,673,o),
(1089,745,o),
(1331,745,c),
(1331,800,l),
(1088,800,o),
(994,740,o),
(816,390,cs),
(685,133,o),
(646,57,o),
(561,57,cs),
(442,57,o),
(369,268,o),
(215,268,cs),
(120,268,o),
(63,210,o),
(63,126,cs),
(63,35,o),
(135,-10,o),
(217,-10,cs)
);
}
);
width = 1031;
}
);
},
{
glyphname = "ya_vowelItouch-divesakuru";
lastChange = "2022-04-27 14:39:17 +0000";
layers = (
{
anchors = (
{
name = bottom;
pos = (705,-238);
},
{
name = top;
pos = (746,536);
}
);
layerId = UUID0;
shapes = (
{
closed = 1;
nodes = (
(766,-272,o),
(941,-83,o),
(941,157,cs),
(941,293,o),
(875,399,o),
(679,399,c),
(692,355,l),
(849,349,o),
(881,261,o),
(881,163,cs),
(881,-70,o),
(673,-187,o),
(461,-187,cs),
(337,-187,o),
(239,-166,o),
(115,-114,c),
(90,-164,l),
(170,-224,o),
(298,-272,o),
(458,-272,cs)
);
},
{
closed = 1;
nodes = (
(373,-10,o),
(497,151,o),
(497,355,cs),
(497,505,o),
(403,588,o),
(245,588,cs),
(160,588,o),
(76,569,o),
(8,546,c),
(35,476,l),
(109,503,o),
(175,515,o),
(239,515,cs),
(358,515,o),
(434,484,o),
(434,352,cs),
(434,174,o),
(341,56,o),
(224,56,cs),
(166,56,o),
(131,83,o),
(131,132,cs),
(131,186,o),
(161,214,o),
(217,214,cs),
(334,214,o),
(403,-7,o),
(564,-7,cs),
(689,-7,o),
(777,110,o),
(777,250,cs),
(777,308,o),
(766,357,o),
(748,392,c),
(685,381,l),
(697,338,o),
(703,298,o),
(703,257,cs),
(703,142,o),
(656,68,o),
(570,68,cs),
(440,68,o),
(364,268,o),
(215,268,cs),
(120,268,o),
(63,210,o),
(63,126,cs),
(63,35,o),
(135,-10,o),
(217,-10,cs)
);
}
);
width = 981;
}
);
},
{
glyphname = u11950;
lastChange = "2022-01-28 16:15:27 +0000";
layers = (
{
layerId = UUID0;
shapes = (
{
closed = 1;
nodes = (
(379,66,o),
(438,127,o),
(438,230,cs),
(438,317,o),
(379,383,o),
(286,383,cs),
(191,383,o),
(132,317,o),
(132,230,cs),
(132,129,o),
(190,66,o),
(284,66,cs)
);
},
{
closed = 1;
nodes = (
(217,137,o),
(188,180,o),
(188,238,cs),
(188,298,o),
(227,333,o),
(284,333,cs),
(343,333,o),
(382,298,o),
(382,237,cs),
(382,179,o),
(353,137,o),
(284,137,cs)
);
}
);
width = 570;
}
);
unicode = 72016;
},
{
glyphname = u11951;
lastChange = "2022-01-28 16:15:27 +0000";
layers = (
{
layerId = UUID0;
shapes = (
{
closed = 1;
nodes = (
(382,91,o),
(466,159,o),
(466,260,cs),
(466,336,o),
(403,396,o),
(293,396,cs),
(260,396,o),
(225,391,o),
(195,382,c),
(205,324,l),
(225,329,o),
(249,332,o),
(276,332,cs),
(346,332,o),
(390,302,o),
(390,248,cs),
(390,180,o),
(331,148,o),
(236,130,c),
(251,77,l)
);
}
);
width = 600;
}
);
unicode = 72017;
},
{
glyphname = u11952;
lastChange = "2022-01-28 16:15:27 +0000";
layers = (
{
layerId = UUID0;
shapes = (
{
closed = 1;
nodes = (
(287,-11,o),
(426,41,o),
(426,132,cs),
(426,199,o),
(350,238,o),
(269,238,c),
(273,232,l),
(358,240,o),
(428,296,o),
(428,371,cs),
(428,450,o),
(345,495,o),
(260,495,cs),
(240,495,o),
(213,482,o),
(198,470,c),
(204,429,l),
(211,439,o),
(230,452,o),
(249,452,cs),
(295,452,o),
(348,421,o),
(348,363,cs),
(348,298,o),
(278,253,o),
(167,253,c),
(167,210,l),
(281,206,o),
(344,186,o),
(344,132,cs),
(344,79,o),
(291,40,o),
(197,40,cs),
(152,40,o),
(111,48,o),
(53,67,c),
(36,20,l),
(81,-1,o),
(127,-11,o),
(187,-11,cs)
);
},
{
closed = 1;
nodes = (
(240,461,l),
(238,469,l),
(251,485,o),
(260,498,o),
(267,512,cs),
(296,571,l),
(249,592,l),
(170,435,l),
(213,415,l)
);
}
);
width = 478;
}
);
unicode = 72018;
},
{
glyphname = u11953;
lastChange = "2022-01-28 16:15:27 +0000";
layers = (
{
layerId = UUID0;
shapes = (
{
closed = 1;
nodes = (
(346,-11,o),
(444,49,o),
(444,132,cs),
(444,199,o),
(368,237,o),
(287,237,c),
(291,231,l),
(376,239,o),
(446,296,o),
(446,371,cs),
(446,450,o),
(363,496,o),
(278,496,cs),
(258,496,o),
(231,482,o),
(216,470,c),
(222,429,l),
(229,439,o),
(248,452,o),
(267,452,cs),
(315,452,o),
(366,424,o),
(366,363,cs),
(366,298,o),
(296,253,o),
(185,253,c),
(185,210,l),
(299,206,o),
(362,186,o),
(362,132,cs),
(362,81,o),
(314,43,o),
(235,43,cs),
(172,43,o),
(125,65,o),
(72,111,c),
(40,74,l),
(89,26,o),
(148,-11,o),
(241,-11,cs)
);
},
{
closed = 1;
nodes = (
(80,-52,o),
(127,-24,o),
(166,23,c),
(128,56,l),
(100,19,o),
(55,-11,o),
(5,-29,c),
(25,-71,l)
);
},
{
closed = 1;
nodes = (
(258,461,l),
(256,469,l),
(269,485,o),
(278,498,o),
(285,512,cs),
(314,571,l),
(267,592,l),
(188,435,l),
(231,415,l)
);
}
);
width = 496;
}
);
unicode = 72019;
},
{
glyphname = u11954;
lastChange = "2022-01-28 16:15:27 +0000";
layers = (
{
layerId = UUID0;
shapes = (
{
closed = 1;
nodes = (
(189,4,o),
(276,53,o),
(276,123,cs),
(276,173,o),
(248,196,o),
(191,233,cs),
(133,271,o),
(113,285,o),
(113,309,cs),
(113,327,o),
(131,344,o),
(207,398,cs),
(299,464,o),
(360,487,o),
(400,487,cs),
(428,487,o),
(447,478,o),
(447,453,cs),
(447,412,o),
(400,389,o),
(332,389,cs),
(285,389,o),
(235,396,o),
(185,415,c),
(149,377,l),
(190,354,o),
(260,328,o),
(338,328,cs),
(429,328,o),
(508,372,o),
(508,456,cs),
(508,509,o),
(473,548,o),
(404,548,cs),
(346,548,o),
(268,512,o),
(172,444,cs),
(96,390,o),
(46,354,o),
(46,305,cs),
(46,257,o),
(95,226,o),
(141,197,cs),
(187,168,o),
(209,153,o),
(209,122,cs),
(209,84,o),
(162,56,o),
(109,33,c),
(127,-11,l)
);
}
);
width = 548;
}
);
unicode = 72020;
},
{
glyphname = u11955;
lastChange = "2022-01-28 16:15:27 +0000";
layers = (
{
layerId = UUID0;
shapes = (
{
closed = 1;
nodes = (
(473,-22,o),
(615,123,o),
(615,273,cs),
(615,436,o),
(478,473,o),
(379,473,cs),
(294,473,o),
(230,446,o),
(163,403,c),
(180,364,l),
(234,399,o),
(283,425,o),
(361,425,cs),
(456,425,o),
(533,380,o),
(533,265,cs),
(533,134,o),
(426,14,o),
(122,-103,c),
(145,-147,l)
);
},
{
closed = 1;
nodes = (
(293,89,o),
(354,152,o),
(354,236,cs),
(354,302,o),
(314,363,o),
(216,399,c),
(180,364,l),
(240,345,o),
(274,303,o),
(274,246,cs),
(274,181,o),
(228,150,o),
(174,150,cs),
(129,150,o),
(98,163,o),
(61,192,c),
(35,147,l),
(69,116,o),
(118,89,o),
(183,89,cs)
);
}
);
width = 655;
}
);
unicode = 72021;
},
{
glyphname = u11956;
lastChange = "2022-01-28 16:15:27 +0000";
layers = (
{
guides = (
{
pos = (217,465);
}
);
layerId = UUID0;
shapes = (
{
closed = 1;
nodes = (
(343,-9,o),
(441,88,o),
(441,176,cs),
(441,255,o),
(393,280,o),
(225,332,c),
(239,288,l),
(304,350,o),
(406,399,o),
(481,430,c),
(460,478,l),
(368,442,o),
(272,393,o),
(190,319,c),
(190,281,l),
(355,224,o),
(386,204,o),
(386,169,cs),
(386,112,o),
(312,73,o),
(221,73,cs),
(157,73,o),
(95,85,o),
(44,105,c),
(30,60,l),
(67,25,o),
(136,-9,o),
(220,-9,cs)
);
}
);
width = 521;
}
);
unicode = 72022;
},
{
glyphname = u11957;
lastChange = "2022-01-28 16:15:27 +0000";
layers = (
{
layerId = UUID0;
shapes = (
{
closed = 1;
nodes = (
(302,16,l),
(269,57,o),
(239,103,o),
(239,145,cs),
(239,181,o),
(270,206,o),
(306,233,cs),
(354,269,o),
(406,310,o),
(406,391,cs),
(406,474,o),
(344,530,o),
(219,530,cs),
(119,530,o),
(40,486,o),
(40,403,cs),
(40,336,o),
(84,311,o),
(142,311,cs),
(195,311,o),
(241,336,o),
(241,402,cs),
(241,447,o),
(209,478,o),
(164,478,cs),
(155,478,o),
(142,477,o),
(135,476,c),
(144,458,l),
(159,467,o),
(184,478,o),
(225,478,cs),
(291,478,o),
(346,452,o),
(346,389,cs),
(346,327,o),
(304,294,o),
(260,262,cs),
(217,231,o),
(177,199,o),
(177,141,cs),
(177,88,o),
(218,36,o),
(263,-11,c)
);
},
{
closed = 1;
nodes = (
(106,352,o),
(90,373,o),
(90,403,cs),
(90,438,o),
(106,451,o),
(141,451,cs),
(177,451,o),
(192,427,o),
(192,403,cs),
(192,369,o),
(172,352,o),
(142,352,cs)
);
}
);
width = 456;
}
);
unicode = 72023;
},
{
glyphname = u11958;
lastChange = "2022-01-28 16:15:27 +0000";
layers = (
{
layerId = UUID0;
shapes = (
{
closed = 1;
nodes = (
(365,205,o),
(467,229,o),
(526,252,c),
(512,305,l),
(470,290,o),
(374,265,o),
(292,265,cs),
(183,265,o),
(116,293,o),
(116,350,cs),
(116,383,o),
(142,407,o),
(183,407,cs),
(211,407,o),
(239,398,o),
(262,383,c),
(278,409,l),
(265,431,o),
(222,460,o),
(161,460,cs),
(92,460,o),
(40,416,o),
(40,354,cs),
(40,243,o),
(141,205,o),
(279,205,cs)
);
},
{
closed = 1;
nodes = (
(316,0,l),
(316,578,l),
(256,578,l),
(256,0,l)
);
}
);
width = 566;
}
);
unicode = 72024;
},
{
glyphname = u11959;
lastChange = "2022-01-28 16:15:27 +0000";
layers = (
{
layerId = UUID0;
shapes = (
{
closed = 1;
nodes = (
(510,-11,o),
(611,66,o),
(641,98,c),
(613,144,l),
(555,104,o),
(471,70,o),
(380,70,cs),
(228,70,o),
(101,142,o),
(101,313,cs),
(101,456,o),
(194,529,o),
(293,529,cs),
(372,529,o),
(404,497,o),
(433,453,c),
(497,460,l),
(477,503,o),
(422,581,o),
(288,581,cs),
(166,581,o),
(40,495,o),
(40,315,cs),
(40,115,o),
(170,-11,o),
(365,-11,cs)
);
},
{
closed = 1;
nodes = (
(465,215,o),
(510,243,o),
(538,267,c),
(514,310,l),
(478,288,o),
(450,277,o),
(418,277,cs),
(366,277,o),
(336,299,o),
(336,351,cs),
(336,420,o),
(385,444,o),
(497,460,c),
(455,495,l),
(320,482,o),
(252,430,o),
(252,349,cs),
(252,278,o),
(301,215,o),
(399,215,cs)
);
}
);
width = 673;
}
);
unicode = 72025;
},
{
glyphname = u11944;
lastChange = "2022-01-28 16:15:27 +0000";
layers = (
{
layerId = UUID0;
shapes = (
{
closed = 1;
nodes = (
(249,25,l),
(261,308,l),
(190,308,l),
(200,25,l)
);
},
{
closed = 1;
nodes = (
(397,25,l),
(409,308,l),
(338,308,l),
(348,25,l)
);
}
);
width = 600;
}
);
unicode = 72004;
},
{
glyphname = u11945;
lastChange = "2022-01-28 16:15:27 +0000";
layers = (
{
layerId = UUID0;
shapes = (
{
closed = 1;
nodes = (
(320,-6,o),
(399,50,o),
(399,150,cs),
(399,242,o),
(328,291,o),
(258,298,c),
(258,290,l),
(328,297,o),
(399,352,o),
(399,440,cs),
(399,530,o),
(328,585,o),
(224,585,cs),
(118,585,o),
(47,533,o),
(47,471,cs),
(47,429,o),
(68,414,o),
(97,414,cs),
(125,414,o),
(148,428,o),
(148,463,cs),
(148,488,o),
(133,508,o),
(111,508,cs),
(106,508,o),
(101,506,o),
(101,502,c),
(119,498,l),
(134,515,o),
(165,533,o),
(209,533,cs),
(275,533,o),
(313,497,o),
(313,440,cs),
(313,356,o),
(253,315,o),
(101,315,cs),
(91,315,l),
(91,264,l),
(101,264,ls),
(255,264,o),
(313,225,o),
(313,147,cs),
(313,82,o),
(271,46,o),
(212,46,cs),
(168,46,o),
(136,62,o),
(119,81,c),
(101,77,l),
(101,73,o),
(106,71,o),
(111,71,cs),
(133,71,o),
(148,91,o),
(148,116,cs),
(148,151,o),
(125,165,o),
(97,165,cs),
(68,165,o),
(47,150,o),
(47,108,cs),
(47,44,o),
(116,-6,o),
(217,-6,cs)
);
}
);
width = 464;
}
);
unicode = 72005;
},
{
glyphname = u11946;
lastChange = "2022-01-28 16:15:27 +0000";
layers = (
{
layerId = UUID0;
shapes = (
{
closed = 1;
nodes = (
(185,12,o),
(245,52,o),
(303,109,cs),
(353,158,o),
(401,218,o),
(444,279,c),
(404,259,l),
(901,259,l),
(901,322,l),
(403,322,l),
(443,303,l),
(400,364,o),
(348,428,o),
(295,478,cs),
(239,531,o),
(182,568,o),
(134,568,cs),
(86,568,o),
(40,529,o),
(40,441,cs),
(40,355,o),
(102,309,o),
(139,290,c),
(102,271,o),
(40,225,o),
(40,139,cs),
(40,51,o),
(85,12,o),
(134,12,cs)
);
},
{
closed = 1;
nodes = (
(147,93,o),
(127,120,o),
(127,159,cs),
(127,192,o),
(149,261,o),
(269,267,c),
(269,313,l),
(149,319,o),
(127,388,o),
(127,422,cs),
(127,460,o),
(147,487,o),
(178,487,cs),
(200,487,o),
(229,469,o),
(260,440,cs),
(300,403,o),
(345,347,o),
(385,290,c),
(347,237,o),
(306,185,o),
(268,148,cs),
(234,115,o),
(202,93,o),
(178,93,cs)
);
}
);
width = 911;
}
);
unicode = 72006;
},
{
category = Mark;
glyphname = u11941;
lastChange = "2022-02-07 16:12:51 +0000";
layers = (
{
anchors = (
{
name = _ra;
pos = (-218,673);
},
{
name = _top;
pos = (-232,673);
},
{
name = top;
pos = (0,860);
}
);
layerId = UUID0;
shapes = (
{
closed = 1;
nodes = (
(-161,707,o),
(-128,760,o),
(-128,825,cs),
(-128,889,o),
(-180,941,o),
(-268,941,cs),
(-317,941,o),
(-345,933,o),
(-380,918,c),
(-367,873,l),
(-344,883,o),
(-311,890,o),
(-280,890,cs),
(-214,890,o),
(-186,861,o),
(-186,816,cs),
(-186,777,o),
(-200,748,o),
(-240,713,c),
(-214,674,l)
);
}
);
width = 0;
}
);
script = divesakuru;
subCategory = Nonspacing;
unicode = 72001;
},
{
category = Mark;
glyphname = u11930;
lastChange = "2022-02-03 14:59:38 +0000";
layers = (
{
anchors = (
{
name = _right;
pos = (-2,300);
},
{
name = right;
pos = (254,304);
},
{
name = top;
pos = (82,653);
},
{
name = topleft;
pos = (131,402);
}
);
layerId = UUID0;
shapes = (
{
closed = 1;
nodes = (
(135,111,o),
(172,210,o),
(172,284,cs),
(172,355,o),
(128,411,o),
(57,440,c),
(23,392,l),
(73,368,o),
(106,331,o),
(106,269,cs),
(106,210,o),
(82,130,o),
(10,21,c),
(57,-4,l)
);
}
);
width = 249;
}
);
script = divesakuru;
subCategory = Spacing;
unicode = 71984;
},
{
category = Mark;
glyphname = u11931;
lastChange = "2022-02-07 13:12:44 +0000";
layers = (
{
anchors = (
{
name = _topright;
pos = (-236,495);
},
{
name = bottom;
pos = (83,-18);
},
{
name = top;
pos = (64,714);
},
{
name = topleft;
pos = (5,639);
}
);
layerId = UUID0;
shapes = (
{
closed = 1;
nodes = (
(193,82,o),
(272,238,o),
(272,395,cs),
(272,571,o),
(164,689,o),
(9,689,cs),
(-100,689,o),
(-176,626,o),
(-224,560,c),
(-186,525,l),
(-138,582,o),
(-85,637,o),
(14,637,cs),
(136,637,o),
(212,534,o),
(212,387,cs),
(212,249,o),
(146,112,o),
(65,19,c),
(97,-12,l)
);
}
);
width = 347;
}
);
script = divesakuru;
subCategory = Spacing;
unicode = 71985;
},
{
category = Mark;
glyphname = u11932;
lastChange = "2022-02-07 13:12:40 +0000";
layers = (
{
anchors = (
{
name = _topright;
pos = (-266,495);
},
{
name = bottom;
pos = (103,-105);
},
{
name = top;
pos = (84,714);
},
{
name = topleft;
pos = (45,663);
}
);
layerId = UUID0;
shapes = (
{
closed = 1;
nodes = (
(201,-93,o),
(349,36,o),
(349,215,cs),
(349,349,o),
(257,444,o),
(138,444,cs),
(69,444,o),
(19,398,o),
(19,333,cs),
(19,289,o),
(55,244,o),
(126,244,cs),
(207,244,o),
(310,310,o),
(310,469,cs),
(310,628,o),
(207,713,o),
(50,713,cs),
(-89,713,o),
(-193,646,o),
(-254,560,c),
(-216,525,l),
(-155,602,o),
(-74,661,o),
(52,661,cs),
(179,661,o),
(251,591,o),
(251,456,cs),
(251,342,o),
(185,295,o),
(129,295,cs),
(87,295,o),
(71,319,o),
(71,343,cs),
(71,368,o),
(87,401,o),
(138,401,cs),
(236,401,o),
(290,318,o),
(290,227,cs),
(290,78,o),
(144,-16,o),
(-16,-69,c),
(-5,-121,l)
);
}
);
width = 423;
}
);
script = divesakuru;
subCategory = Spacing;
unicode = 71986;
},
{
category = Mark;
glyphname = u11933;
lastChange = "2022-02-07 14:33:37 +0000";
layers = (
{
anchors = (
{
name = _right2;
pos = (8,300);
},
{
name = bottom;
pos = (182,-275);
},
{
name = top;
pos = (144,540);
},
{
name = topleft;
pos = (83,367);
}
);
layerId = UUID0;
shapes = (
{
closed = 1;
nodes = (
(264,-235,o),
(305,-177,o),
(305,-43,cs),
(305,218,ls),
(305,378,o),
(273,407,o),
(119,407,cs),
(-71,407,l),
(-61,350,l),
(142,350,ls),
(238,350,o),
(245,323,o),
(245,194,cs),
(245,-28,ls),
(245,-123,o),
(240,-176,o),
(179,-176,cs),
(118,-176,o),
(109,-123,o),
(109,-28,cs),
(109,225,l),
(53,225,l),
(53,-43,ls),
(53,-177,o),
(94,-235,o),
(179,-235,cs)
);
}
);
width = 395;
}
);
script = divesakuru;
subCategory = Spacing;
unicode = 71987;
},
{
category = Mark;
glyphname = u11934;
lastChange = "2022-02-07 15:37:00 +0000";
layers = (
{
anchors = (
{
name = _right2;
pos = (5,300);
},
{
name = bottom;
pos = (229,-275);
},
{
name = top;
pos = (171,540);
},
{
name = topleft;
pos = (120,367);
}
);
layerId = UUID0;
shapes = (
{
closed = 1;
nodes = (
(331,-235,o),
(372,-177,o),
(372,-43,cs),
(372,218,ls),
(372,378,o),
(340,407,o),
(186,407,cs),
(-74,407,l),
(-64,350,l),
(209,350,ls),
(305,350,o),
(312,323,o),
(312,194,cs),
(312,-28,ls),
(312,-123,o),
(307,-176,o),
(246,-176,cs),
(185,-176,o),
(176,-123,o),
(176,-28,cs),
(176,225,l),
(120,195,l),
(120,-43,ls),
(120,-177,o),
(161,-235,o),
(246,-235,cs)
);
},
{
closed = 1;
nodes = (
(36,-257,l),
(7,-222,o),
(-26,-160,o),
(-26,-87,cs),
(-26,47,o),
(47,137,o),
(176,177,c),
(176,226,l),
(78,200,o),
(-90,91,o),
(-90,-83,cs),
(-90,-164,o),
(-48,-234,o),
(-29,-257,c)
);
}
);
width = 462;
}
);
script = divesakuru;
subCategory = Spacing;
unicode = 71988;
},
{
category = Mark;
glyphname = u11935;
lastChange = "2022-01-28 17:07:53 +0000";
layers = (
{
layerId = UUID0;
shapes = (
{
closed = 1;
nodes = (
(261,-9,o),
(382,46,o),
(382,232,cs),
(382,358,o),
(299,449,o),
(176,449,cs),
(98,449,o),
(48,412,o),
(48,321,cs),
(48,247,o),
(87,195,o),
(164,195,cs),
(247,195,o),
(285,254,o),
(285,316,cs),
(285,354,o),
(272,379,o),
(260,397,c),
(254,361,l),
(298,334,o),
(320,289,o),
(320,229,cs),
(320,117,o),
(247,51,o),
(170,51,cs),
(136,51,o),
(111,56,o),
(67,75,c),
(45,28,l),
(96,-1,o),
(133,-9,o),
(179,-9,cs)
);
},
{
closed = 1;
nodes = (
(123,251,o),
(101,282,o),
(101,321,cs),
(101,368,o),
(130,391,o),
(169,391,cs),
(208,391,o),
(236,366,o),
(236,321,cs),
(236,279,o),
(210,251,o),
(167,251,cs)
);
}
);
width = 405;
}
);
script = divesakuru;
subCategory = Spacing;
unicode = 71989;
},
{
category = Mark;
glyphname = u11938;
lastChange = "2022-01-28 17:07:53 +0000";
layers = (
{
layerId = UUID0;
shapes = (
{
closed = 1;
nodes = (
(261,-9,o),
(384,46,o),
(384,232,cs),
(384,358,o),
(299,449,o),
(176,449,cs),
(98,449,o),
(48,412,o),
(48,321,cs),
(48,247,o),
(87,195,o),
(164,195,cs),
(247,195,o),
(285,254,o),
(285,316,cs),
(285,354,o),
(272,379,o),
(260,397,c),
(251,361,l),
(295,334,o),
(317,289,o),
(317,229,cs),
(317,117,o),
(247,51,o),
(170,51,cs),
(136,51,o),
(111,56,o),
(67,75,c),
(45,28,l),
(96,-1,o),
(133,-9,o),
(179,-9,cs)
);
},
{
closed = 1;
nodes = (
(123,251,o),
(101,282,o),
(101,321,cs),
(101,368,o),
(130,391,o),
(169,391,cs),
(208,391,o),
(236,366,o),
(236,321,cs),
(236,279,o),
(210,251,o),
(167,251,cs)
);
},
{
closed = 1;
nodes = (
(863,111,o),
(900,210,o),
(900,284,cs),
(900,355,o),
(856,411,o),
(785,440,c),
(751,392,l),
(801,368,o),
(834,331,o),
(834,269,cs),
(834,210,o),
(810,130,o),
(738,21,c),
(785,-4,l)
);
}
);
width = 977;
}
);
script = divesakuru;
subCategory = Spacing;
unicode = 71992;
},
{
category = Mark;
glyphname = u1193B;
lastChange = "2022-02-02 01:02:54 +0000";
layers = (
{
anchors = (
{
name = _top;
pos = (-405,673);
},
{
name = top;
pos = (-403,960);
}
);
layerId = UUID0;
shapes = (
{
closed = 1;
nodes = (
(-331,710,o),
(-282,755,o),
(-282,830,cs),
(-282,900,o),
(-331,946,o),
(-407,946,cs),
(-483,946,o),
(-531,894,o),
(-531,828,cs),
(-531,761,o),
(-489,710,o),
(-406,710,cs)
);
},
{
closed = 1;
nodes = (
(-455,764,o),
(-476,796,o),
(-476,828,cs),
(-476,872,o),
(-448,896,o),
(-407,896,cs),
(-360,896,o),
(-337,867,o),
(-337,830,cs),
(-337,785,o),
(-367,764,o),
(-408,764,cs)
);
}
);
width = 0;
}
);
script = divesakuru;
subCategory = Nonspacing;
unicode = 71995;
},
{
category = Mark;
glyphname = u1193C;
lastChange = "2022-02-02 01:02:38 +0000";
layers = (
{
anchors = (
{
name = _top;
pos = (-426,673);
},
{
name = top;
pos = (-422,960);
}
);
layerId = UUID0;
shapes = (
{
closed = 1;
nodes = (
(-323,708,o),
(-265,764,o),
(-265,863,cs),
(-265,882,o),
(-268,902,o),
(-273,918,c),
(-315,909,l),
(-312,897,o),
(-311,888,o),
(-311,879,cs),
(-311,801,o),
(-365,779,o),
(-427,779,cs),
(-490,779,o),
(-544,801,o),
(-544,879,cs),
(-544,887,o),
(-543,897,o),
(-540,909,c),
(-582,918,l),
(-587,902,o),
(-590,882,o),
(-590,863,cs),
(-590,764,o),
(-532,708,o),
(-427,708,cs)
);
},
{
closed = 1;
nodes = (
(-399,815,o),
(-377,835,o),
(-377,866,cs),
(-377,894,o),
(-398,916,o),
(-427,916,cs),
(-456,916,o),
(-478,894,o),
(-478,866,cs),
(-478,835,o),
(-457,815,o),
(-428,815,cs)
);
}
);
width = 0;
}
);
script = divesakuru;
subCategory = Nonspacing;
unicode = 71996;
},
{
category = Mark;
glyphname = u1193D;
lastChange = "2022-01-28 17:15:24 +0000";
layers = (
{
anchors = (
{
name = _halant;
pos = (-81,374);
}
);
layerId = UUID0;
shapes = (
{
closed = 1;
nodes = (
(-53,374,l),
(-12,431,o),
(13,465,o),
(47,509,cs),
(167,664,o),
(239,745,o),
(431,745,c),
(431,800,l),
(248,800,o),
(137,720,o),
(17,558,cs),
(-20,508,o),
(-69,441,o),
(-94,401,c)
);
}
);
width = 165;
}
);
subCategory = Spacing;
unicode = 71997;
},
{
category = Mark;
glyphname = "virama-divesakuru";
lastChange = "2022-01-28 17:15:40 +0000";
layers = (
{
layerId = UUID0;
shapes = (
{
closed = 1;
nodes = (
(25,-261,l),
(25,-2,l),
(-26,-2,l),
(-26,-261,l)
);
},
{
closed = 1;
nodes = (
(-130,-157,l),
(129,-157,l),
(129,-106,l),
(-130,-106,l)
);
}
);
width = 0;
}
);
subCategory = Nonspacing;
unicode = 71998;
},
{
category = Mark;
glyphname = u1193F;
lastChange = "2022-01-28 17:13:16 +0000";
layers = (
{
anchors = (
{
name = _topleft;
pos = (-207,674);
}
);
layerId = UUID0;
shapes = (
{
closed = 1;
nodes = (
(-175,679,o),
(-136,717,o),
(-136,763,cs),
(-136,807,o),
(-187,835,o),
(-233,837,c),
(-232,833,l),
(-188,836,o),
(-138,860,o),
(-138,904,cs),
(-138,938,o),
(-168,972,o),
(-243,972,cs),
(-266,972,o),
(-292,967,o),
(-306,961,c),
(-301,933,l),
(-283,938,o),
(-268,940,o),
(-249,940,cs),
(-216,940,o),
(-196,927,o),
(-196,901,cs),
(-196,869,o),
(-224,850,o),
(-283,848,c),
(-283,817,l),
(-221,814,o),
(-185,796,o),
(-185,764,cs),
(-185,748,o),
(-196,737,o),
(-211,729,cs),
(-230,719,o),
(-260,713,o),
(-281,712,c),
(-283,682,l),
(-272,680,o),
(-263,679,o),
(-250,679,cs)
);
}
);
width = 0;
}
);
script = divesakuru;
subCategory = Nonspacing;
unicode = 71999;
},
{
category = Mark;
glyphname = u11943;
lastChange = "2022-01-28 17:13:36 +0000";
layers = (
{
anchors = (
{
name = _bottom;
pos = (-355,-38);
}
);
layerId = UUID0;
shapes = (
{
closed = 1;
nodes = (
(-313,-294,o),
(-279,-260,o),
(-279,-218,cs),
(-279,-175,o),
(-313,-141,o),
(-355,-141,cs),
(-398,-141,o),
(-432,-175,o),
(-432,-218,cs),
(-432,-260,o),
(-398,-294,o),
(-355,-294,cs)
);
}
);
width = 0;
}
);
subCategory = Nonspacing;
unicode = 72003;
},
{
category = Mark;
glyphname = "halanta-divesakuru.00";
lastChange = "2022-01-28 17:15:24 +0000";
layers = (
{
anchors = (
{
name = _halant;
pos = (-158,333);
}
);
layerId = UUID0;
shapes = (
{
closed = 1;
nodes = (
(-130,336,l),
(-70,424,o),
(-39,465,o),
(-5,509,cs),
(115,664,o),
(187,745,o),
(379,745,c),
(379,800,l),
(196,800,o),
(85,720,o),
(-35,558,cs),
(-72,508,o),
(-126,433,o),
(-171,360,c)
);
}
);
width = 113;
}
);
subCategory = Spacing;
},
{
category = Mark;
glyphname = "halanta-divesakuru.01";
lastChange = "2022-01-28 17:15:24 +0000";
layers = (
{
anchors = (
{
name = _halant;
pos = (-198,257);
}
);
layerId = UUID0;
shapes = (
{
closed = 1;
nodes = (
(-169,259,l),
(-89,380,o),
(-30,466,o),
(6,509,cs),
(138,664,o),
(220,745,o),
(432,745,c),
(432,800,l),
(229,800,o),
(108,720,o),
(-24,558,cs),
(-64,508,o),
(-128,412,o),
(-210,283,c)
);
}
);
width = 134;
}
);
subCategory = Spacing;
},
{
category = Mark;
glyphname = "halanta-divesakuru.02";
lastChange = "2022-02-03 18:16:43 +0000";
layers = (
{
anchors = (
{
name = _halant;
pos = (-74,191);
}
);
layerId = UUID0;
shapes = (
{
closed = 1;
nodes = (
(-46,191,l),
(-6,248,o),
(71,353,o),
(162,469,cs),
(312,660,o),
(381,741,o),
(573,741,c),
(573,796,l),
(390,796,o),
(282,716,o),
(131,519,cs),
(-3,345,o),
(-62,258,o),
(-87,218,c)
);
}
);
width = 327;
}
);
subCategory = Spacing;
},
{
category = Mark;
glyphname = "halanta-divesakuru.03";
lastChange = "2022-01-28 17:15:24 +0000";
layers = (
{
anchors = (
{
name = _halant;
pos = (-111,191);
}
);
layerId = UUID0;
shapes = (
{
closed = 1;
nodes = (
(-79,194,l),
(-47,263,o),
(21,407,o),
(66,499,cs),
(153,676,o),
(211,741,o),
(423,741,c),
(423,796,l),
(220,796,o),
(121,733,o),
(20,514,cs),
(-18,431,o),
(-80,298,o),
(-120,221,c)
);
}
);
width = 193;
}
);
subCategory = Spacing;
},
{
category = Mark;
glyphname = "halanta-divesakuru.04";
lastChange = "2022-02-03 18:10:08 +0000";
layers = (
{
anchors = (
{
name = _halant;
pos = (-111,191);
}
);
layerId = UUID0;
shapes = (
{
closed = 1;
nodes = (
(-78,194,l),
(-47,263,o),
(12,404,o),
(50,499,cs),
(96,614,ls),
(218,918,o),
(286,972,o),
(477,972,c),
(477,1027,l),
(291,1027,o),
(183,977,o),
(47,625,cs),
(4,514,ls),
(-29,428,o),
(-80,298,o),
(-119,221,c)
);
}
);
width = 162;
}
);
subCategory = Spacing;
},
{
glyphname = uni25CC;
lastChange = "2022-02-01 20:45:56 +0000";
layers = (
{
layerId = UUID0;
shapes = (
{
closed = 1;
nodes = (
(480,466,o),
(472,475,o),
(455,475,cs),
(437,475,o),
(428,466,o),
(428,448,cs),
(428,431,o),
(437,422,o),
(455,422,cs),
(472,422,o),
(480,431,o),
(480,448,cs)
);
},
{
closed = 1;
nodes = (
(408,514,o),
(400,523,o),
(383,523,cs),
(364,523,o),
(355,514,o),
(355,496,cs),
(355,479,o),
(364,470,o),
(383,470,cs),
(400,470,o),
(408,479,o),
(408,496,cs)
);
},
{
closed = 1;
nodes = (
(529,393,o),
(520,402,o),
(503,402,cs),
(485,402,o),
(476,393,o),
(476,376,cs),
(476,358,o),
(485,349,o),
(502,349,cs),
(520,349,o),
(529,358,o),
(529,376,cs)
);
},
{
closed = 1;
nodes = (
(546,308,o),
(538,317,o),
(521,317,cs),
(503,317,o),
(494,308,o),
(494,291,cs),
(494,274,o),
(503,265,o),
(521,265,cs),
(538,265,o),
(546,274,o),
(546,291,cs)
);
},
{
closed = 1;
nodes = (
(323,531,o),
(314,540,o),
(297,540,cs),
(280,540,o),
(271,531,o),
(271,514,cs),
(271,496,o),
(280,487,o),
(297,487,cs),
(314,487,o),
(323,496,o),
(323,514,cs)
);
},
{
closed = 1;
nodes = (
(239,514,o),
(230,523,o),
(212,523,cs),
(195,523,o),
(186,514,o),
(186,496,cs),
(186,479,o),
(195,470,o),
(212,470,cs),
(230,470,o),
(239,479,o),
(239,496,cs)
);
},
{
closed = 1;
nodes = (
(529,224,o),
(520,233,o),
(502,233,cs),
(485,233,o),
(476,224,o),
(476,206,cs),
(476,189,o),
(485,180,o),
(502,180,cs),
(520,180,o),
(529,189,o),
(529,206,cs)
);
},
{
closed = 1;
nodes = (
(167,466,o),
(158,475,o),
(140,475,cs),
(123,475,o),
(114,466,o),
(114,447,cs),
(114,430,o),
(123,422,o),
(140,422,cs),
(158,422,o),
(167,431,o),
(167,448,cs)
);
},
{
closed = 1;
nodes = (
(480,151,o),
(472,160,o),
(455,160,cs),
(437,160,o),
(428,151,o),
(428,133,cs),
(428,116,o),
(437,107,o),
(455,107,cs),
(472,107,o),
(480,116,o),
(480,133,cs)
);
},
{
closed = 1;
nodes = (
(408,103,o),
(400,112,o),
(383,112,cs),
(364,112,o),
(355,103,o),
(355,85,cs),
(355,68,o),
(364,60,o),
(383,60,cs),
(400,60,o),
(408,68,o),
(408,85,cs)
);
},
{
closed = 1;
nodes = (
(118,393,o),
(109,402,o),
(92,402,cs),
(74,402,o),
(65,393,o),
(65,376,cs),
(65,358,o),
(74,349,o),
(93,349,cs),
(110,349,o),
(118,358,o),
(118,376,cs)
);
},
{
closed = 1;
nodes = (
(101,308,o),
(92,317,o),
(75,317,cs),
(57,317,o),
(48,308,o),
(48,291,cs),
(48,274,o),
(57,265,o),
(75,265,cs),
(92,265,o),
(101,274,o),
(101,291,cs)
);
},
{
closed = 1;
nodes = (
(323,86,o),
(314,95,o),
(297,95,cs),
(280,95,o),
(271,86,o),
(271,69,cs),
(271,51,o),
(280,42,o),
(297,42,cs),
(314,42,o),
(323,51,o),
(323,69,cs)
);
},
{
closed = 1;
nodes = (
(118,224,o),
(109,233,o),
(92,233,cs),
(74,233,o),
(65,224,o),
(65,206,cs),
(65,189,o),
(74,180,o),
(92,180,cs),
(109,180,o),
(118,189,o),
(118,206,cs)
);
},
{
closed = 1;
nodes = (
(239,104,o),
(230,112,o),
(212,112,cs),
(195,112,o),
(186,103,o),
(186,85,cs),
(186,68,o),
(195,60,o),
(212,60,cs),
(230,60,o),
(239,69,o),
(239,87,cs)
);
},
{
closed = 1;
nodes = (
(167,151,o),
(158,160,o),
(140,160,cs),
(123,160,o),
(114,151,o),
(114,133,cs),
(114,116,o),
(123,107,o),
(140,107,cs),
(158,107,o),
(167,116,o),
(167,133,cs)
);
}
);
width = 594;
}
);
note = uni25CC;
unicode = 9676;
},
